<svg version="1.1" viewBox="0.0 0.0 568.0472440944882 162.13123359580052" fill="none" stroke="none" stroke-linecap="square" stroke-miterlimit="10" xmlns:xlink="http://www.w3.org/1999/xlink" xmlns="http://www.w3.org/2000/svg"><clipPath id="p.0"><path d="m0 0l568.04724 0l0 162.13124l-568.04724 0l0 -162.13124z" clip-rule="nonzero"/></clipPath><g clip-path="url(#p.0)"><path fill="#000000" fill-opacity="0.0" d="m0 0l568.04724 0l0 162.13124l-568.04724 0z" fill-rule="evenodd"/><path fill="#efefef" d="m380.49344 17.156332l0 0c0 -5.0561876 4.0988464 -9.155038 9.155029 -9.155038l158.41434 0c2.4281006 0 4.756714 0.9645462 6.473572 2.681449c1.716919 1.7169027 2.6814575 4.0455227 2.6814575 6.473589l0 36.619057c0 5.0561867 -4.098816 9.155037 -9.155029 9.155037l-158.41434 0c-5.056183 0 -9.155029 -4.0988503 -9.155029 -9.155037z" fill-rule="evenodd"/><path stroke="#ad182b" stroke-width="2.0" stroke-linejoin="round" stroke-linecap="butt" d="m380.49344 17.156332l0 0c0 -5.0561876 4.0988464 -9.155038 9.155029 -9.155038l158.41434 0c2.4281006 0 4.756714 0.9645462 6.473572 2.681449c1.716919 1.7169027 2.6814575 4.0455227 2.6814575 6.473589l0 36.619057c0 5.0561867 -4.098816 9.155037 -9.155029 9.155037l-158.41434 0c-5.056183 0 -9.155029 -4.0988503 -9.155029 -9.155037z" fill-rule="evenodd"/><path fill="#000000" d="m415.70212 31.10586q-0.1875 0 -0.296875 -0.109375q-0.109375 -0.109375 -0.109375 -0.296875l0 -11.328125q0 -0.171875 0.109375 -0.28125q0.109375 -0.109375 0.296875 -0.109375l0.921875 0q0.1875 0 0.28125 0.109375q0.109375 0.109375 0.109375 0.28125l0 11.328125q0 0.1875 -0.109375 0.296875q-0.09375 0.109375 -0.28125 0.109375l-0.921875 0zm4.5118103 0q-0.1875 0 -0.296875 -0.109375q-0.109375 -0.109375 -0.109375 -0.296875l0 -8.203125q0 -0.171875 0.109375 -0.28125q0.109375 -0.125 0.296875 -0.125l0.8125 0q0.171875 0 0.28125 0.125q0.109375 0.109375 0.109375 0.28125l0 0.765625q0.453125 -0.59375 1.140625 -0.96875q0.6875 -0.375 1.75 -0.375q1.125 0 1.90625 0.5q0.796875 0.484375 1.203125 1.359375q0.421875 0.875 0.421875 2.046875l0 4.875q0 0.1875 -0.125 0.296875q-0.109375 0.109375 -0.28125 0.109375l-0.859375 0q-0.1875 0 -0.296875 -0.109375q-0.109375 -0.109375 -0.109375 -0.296875l0 -4.796875q0 -1.203125 -0.59375 -1.890625q-0.578125 -0.6875 -1.734375 -0.6875q-1.0625 0 -1.71875 0.6875q-0.640625 0.6875 -0.640625 1.890625l0 4.796875q0 0.1875 -0.125 0.296875q-0.109375 0.109375 -0.28125 0.109375l-0.859375 0zm13.219513 0.171875q-0.96875 0 -1.671875 -0.234375q-0.6875 -0.25 -1.125 -0.59375q-0.4375 -0.34375 -0.65625 -0.6875q-0.203125 -0.359375 -0.21875 -0.5625q-0.03125 -0.1875 0.109375 -0.28125q0.140625 -0.109375 0.28125 -0.109375l0.78125 0q0.09375 0 0.140625 0.03125q0.0625 0.015625 0.171875 0.140625q0.21875 0.234375 0.5 0.484375q0.28125 0.234375 0.6875 0.390625q0.40625 0.15625 1.015625 0.15625q0.875 0 1.453125 -0.328125q0.578125 -0.34375 0.578125 -1.0q0 -0.4375 -0.234375 -0.6875q-0.234375 -0.265625 -0.84375 -0.46875q-0.59375 -0.21875 -1.625 -0.4375q-1.046875 -0.25 -1.65625 -0.59375q-0.609375 -0.359375 -0.875 -0.84375q-0.25 -0.5 -0.25 -1.125q0 -0.640625 0.375 -1.234375q0.390625 -0.609375 1.125 -0.984375q0.734375 -0.390625 1.84375 -0.390625q0.90625 0 1.546875 0.234375q0.640625 0.21875 1.046875 0.5625q0.421875 0.328125 0.625 0.65625q0.21875 0.328125 0.234375 0.5625q0.015625 0.171875 -0.109375 0.28125q-0.125 0.109375 -0.28125 0.109375l-0.71875 0q-0.125 0 -0.203125 -0.046875q-0.078125 -0.046875 -0.140625 -0.125q-0.171875 -0.21875 -0.40625 -0.4375q-0.234375 -0.234375 -0.609375 -0.375q-0.375 -0.15625 -0.984375 -0.15625q-0.859375 0 -1.296875 0.375q-0.4375 0.359375 -0.4375 0.90625q0 0.328125 0.1875 0.59375q0.203125 0.265625 0.734375 0.46875q0.53125 0.203125 1.59375 0.453125q1.140625 0.21875 1.796875 0.609375q0.671875 0.375 0.9375 0.875q0.28125 0.5 0.28125 1.15625q0 0.734375 -0.421875 1.34375q-0.40625 0.609375 -1.25 0.96875q-0.828125 0.34375 -2.03125 0.34375zm9.210602 -0.171875q-0.96875 0 -1.578125 -0.375q-0.609375 -0.375 -0.890625 -1.046875q-0.265625 -0.6875 -0.265625 -1.625l0 -4.578125l-1.359375 0q-0.171875 0 -0.28125 -0.109375q-0.109375 -0.109375 -0.109375 -0.28125l0 -0.59375q0 -0.171875 0.109375 -0.28125q0.109375 -0.125 0.28125 -0.125l1.359375 0l0 -2.890625q0 -0.171875 0.109375 -0.28125q0.109375 -0.109375 0.28125 -0.109375l0.828125 0q0.171875 0 0.28125 0.109375q0.109375 0.109375 0.109375 0.28125l0 2.890625l2.15625 0q0.1875 0 0.28125 0.125q0.109375 0.109375 0.109375 0.28125l0 0.59375q0 0.171875 -0.109375 0.28125q-0.09375 0.109375 -0.28125 0.109375l-2.15625 0l0 4.453125q0 0.8125 0.28125 1.28125q0.28125 0.46875 0.984375 0.46875l1.0625 0q0.171875 0 0.28125 0.109375q0.109375 0.109375 0.109375 0.296875l0 0.609375q0 0.1875 -0.109375 0.296875q-0.109375 0.109375 -0.28125 0.109375l-1.203125 0zm3.665863 0q-0.1875 0 -0.296875 -0.109375q-0.109375 -0.109375 -0.109375 -0.296875l0 -8.1875q0 -0.171875 0.109375 -0.296875q0.109375 -0.125 0.296875 -0.125l0.796875 0q0.171875 0 0.28125 0.125q0.125 0.125 0.125 0.296875l0 0.765625q0.34375 -0.59375 0.953125 -0.890625q0.609375 -0.296875 1.46875 -0.296875l0.6875 0q0.171875 0 0.28125 0.125q0.109375 0.109375 0.109375 0.28125l0 0.703125q0 0.171875 -0.109375 0.28125q-0.109375 0.109375 -0.28125 0.109375l-1.046875 0q-0.9375 0 -1.46875 0.546875q-0.53125 0.546875 -0.53125 1.46875l0 5.09375q0 0.1875 -0.125 0.296875q-0.125 0.109375 -0.296875 0.109375l-0.84375 0zm9.537781 0.171875q-1.109375 0 -1.875 -0.484375q-0.765625 -0.5 -1.171875 -1.375q-0.390625 -0.890625 -0.390625 -2.03125l0 -4.890625q0 -0.171875 0.109375 -0.28125q0.109375 -0.125 0.28125 -0.125l0.859375 0q0.1875 0 0.296875 0.125q0.109375 0.109375 0.109375 0.28125l0 4.796875q0 2.578125 2.25 2.578125q1.078125 0 1.71875 -0.671875q0.65625 -0.6875 0.65625 -1.90625l0 -4.796875q0 -0.171875 0.109375 -0.28125q0.125 -0.125 0.296875 -0.125l0.859375 0q0.171875 0 0.265625 0.125q0.109375 0.109375 0.109375 0.28125l0 8.203125q0 0.1875 -0.109375 0.296875q-0.09375 0.109375 -0.265625 0.109375l-0.8125 0q-0.171875 0 -0.296875 -0.109375q-0.109375 -0.109375 -0.109375 -0.296875l0 -0.75q-0.46875 0.609375 -1.140625 0.96875q-0.65625 0.359375 -1.75 0.359375zm7.478363 -0.171875q-0.1875 0 -0.296875 -0.109375q-0.109375 -0.109375 -0.109375 -0.296875l0 -8.203125q0 -0.171875 0.109375 -0.28125q0.109375 -0.125 0.296875 -0.125l0.765625 0q0.1875 0 0.296875 0.125q0.109375 0.109375 0.109375 0.28125l0 0.609375q0.390625 -0.546875 1.0 -0.859375q0.609375 -0.328125 1.453125 -0.328125q1.96875 -0.015625 2.78125 1.59375q0.390625 -0.71875 1.15625 -1.15625q0.765625 -0.4375 1.734375 -0.4375q0.90625 0 1.640625 0.421875q0.734375 0.40625 1.15625 1.25q0.421875 0.84375 0.421875 2.109375l0 5.0q0 0.1875 -0.109375 0.296875q-0.109375 0.109375 -0.28125 0.109375l-0.8125 0q-0.171875 0 -0.296875 -0.109375q-0.109375 -0.109375 -0.109375 -0.296875l0 -4.84375q0 -0.96875 -0.28125 -1.515625q-0.265625 -0.5625 -0.734375 -0.78125q-0.46875 -0.234375 -1.03125 -0.234375q-0.4375 0 -0.90625 0.234375q-0.46875 0.21875 -0.78125 0.78125q-0.296875 0.546875 -0.296875 1.515625l0 4.84375q0 0.1875 -0.125 0.296875q-0.109375 0.109375 -0.28125 0.109375l-0.8125 0q-0.171875 0 -0.28125 -0.109375q-0.109375 -0.109375 -0.109375 -0.296875l0 -4.84375q0 -0.96875 -0.296875 -1.515625q-0.296875 -0.5625 -0.765625 -0.78125q-0.46875 -0.234375 -0.984375 -0.234375q-0.453125 0 -0.921875 0.234375q-0.46875 0.21875 -0.78125 0.78125q-0.296875 0.546875 -0.296875 1.5l0 4.859375q0 0.1875 -0.109375 0.296875q-0.109375 0.109375 -0.28125 0.109375l-0.828125 0zm18.607727 0.171875q-1.8125 0 -2.875 -1.09375q-1.046875 -1.109375 -1.15625 -3.015625q-0.015625 -0.21875 -0.015625 -0.578125q0 -0.359375 0.015625 -0.578125q0.078125 -1.234375 0.578125 -2.15625q0.5 -0.921875 1.375 -1.421875q0.875 -0.515625 2.0625 -0.515625q1.3125 0 2.203125 0.5625q0.890625 0.546875 1.359375 1.578125q0.46875 1.015625 0.46875 2.390625l0 0.296875q0 0.1875 -0.109375 0.296875q-0.109375 0.09375 -0.28125 0.09375l-6.0 0q0 0.015625 0 0.078125q0 0.046875 0 0.078125q0.03125 0.703125 0.3125 1.328125q0.28125 0.609375 0.796875 1.0q0.53125 0.375 1.25 0.375q0.625 0 1.03125 -0.1875q0.421875 -0.1875 0.671875 -0.421875q0.265625 -0.234375 0.359375 -0.375q0.15625 -0.203125 0.234375 -0.25q0.09375 -0.046875 0.28125 -0.046875l0.84375 0q0.15625 0 0.265625 0.09375q0.125 0.09375 0.09375 0.265625q-0.015625 0.265625 -0.28125 0.640625q-0.25 0.375 -0.734375 0.734375q-0.46875 0.359375 -1.171875 0.59375q-0.703125 0.234375 -1.578125 0.234375zm-2.375 -5.328125l4.75 0l0 -0.0625q0 -0.78125 -0.296875 -1.375q-0.28125 -0.609375 -0.828125 -0.96875q-0.53125 -0.359375 -1.265625 -0.359375q-0.75 0 -1.28125 0.359375q-0.53125 0.359375 -0.8125 0.96875q-0.265625 0.59375 -0.265625 1.375l0 0.0625zm8.87558 5.15625q-0.1875 0 -0.296875 -0.109375q-0.109375 -0.109375 -0.109375 -0.296875l0 -8.203125q0 -0.171875 0.109375 -0.28125q0.109375 -0.125 0.296875 -0.125l0.8125 0q0.171875 0 0.28125 0.125q0.109375 0.109375 0.109375 0.28125l0 0.765625q0.453125 -0.59375 1.140625 -0.96875q0.6875 -0.375 1.75 -0.375q1.125 0 1.90625 0.5q0.796875 0.484375 1.203125 1.359375q0.421875 0.875 0.421875 2.046875l0 4.875q0 0.1875 -0.125 0.296875q-0.109375 0.109375 -0.28125 0.109375l-0.859375 0q-0.1875 0 -0.296875 -0.109375q-0.109375 -0.109375 -0.109375 -0.296875l0 -4.796875q0 -1.203125 -0.59375 -1.890625q-0.578125 -0.6875 -1.734375 -0.6875q-1.0625 0 -1.71875 0.6875q-0.640625 0.6875 -0.640625 1.890625l0 4.796875q0 0.1875 -0.125 0.296875q-0.109375 0.109375 -0.28125 0.109375l-0.859375 0zm13.4888 0q-0.96875 0 -1.578125 -0.375q-0.609375 -0.375 -0.890625 -1.046875q-0.265625 -0.6875 -0.265625 -1.625l0 -4.578125l-1.359375 0q-0.171875 0 -0.28125 -0.109375q-0.109375 -0.109375 -0.109375 -0.28125l0 -0.59375q0 -0.171875 0.109375 -0.28125q0.109375 -0.125 0.28125 -0.125l1.359375 0l0 -2.890625q0 -0.171875 0.109375 -0.28125q0.109375 -0.109375 0.28125 -0.109375l0.828125 0q0.171875 0 0.28125 0.109375q0.109375 0.109375 0.109375 0.28125l0 2.890625l2.15625 0q0.1875 0 0.28125 0.125q0.109375 0.109375 0.109375 0.28125l0 0.59375q0 0.171875 -0.109375 0.28125q-0.09375 0.109375 -0.28125 0.109375l-2.15625 0l0 4.453125q0 0.8125 0.28125 1.28125q0.28125 0.46875 0.984375 0.46875l1.0625 0q0.171875 0 0.28125 0.109375q0.109375 0.109375 0.109375 0.296875l0 0.609375q0 0.1875 -0.109375 0.296875q-0.109375 0.109375 -0.28125 0.109375l-1.203125 0zm6.8690186 0.171875q-1.8125 0 -2.875 -1.09375q-1.046875 -1.109375 -1.15625 -3.015625q-0.015625 -0.21875 -0.015625 -0.578125q0 -0.359375 0.015625 -0.578125q0.078125 -1.234375 0.578125 -2.15625q0.5 -0.921875 1.375 -1.421875q0.875 -0.515625 2.0625 -0.515625q1.3125 0 2.203125 0.5625q0.890625 0.546875 1.359375 1.578125q0.46875 1.015625 0.46875 2.390625l0 0.296875q0 0.1875 -0.109375 0.296875q-0.109375 0.09375 -0.28125 0.09375l-6.0 0q0 0.015625 0 0.078125q0 0.046875 0 0.078125q0.03125 0.703125 0.3125 1.328125q0.28125 0.609375 0.796875 1.0q0.53125 0.375 1.25 0.375q0.625 0 1.03125 -0.1875q0.421875 -0.1875 0.671875 -0.421875q0.265625 -0.234375 0.359375 -0.375q0.15625 -0.203125 0.234375 -0.25q0.09375 -0.046875 0.28125 -0.046875l0.84375 0q0.15625 0 0.265625 0.09375q0.125 0.09375 0.09375 0.265625q-0.015625 0.265625 -0.28125 0.640625q-0.25 0.375 -0.734375 0.734375q-0.46875 0.359375 -1.171875 0.59375q-0.703125 0.234375 -1.578125 0.234375zm-2.375 -5.328125l4.75 0l0 -0.0625q0 -0.78125 -0.296875 -1.375q-0.28125 -0.609375 -0.828125 -0.96875q-0.53125 -0.359375 -1.265625 -0.359375q-0.75 0 -1.28125 0.359375q-0.53125 0.359375 -0.8125 0.96875q-0.265625 0.59375 -0.265625 1.375l0 0.0625zm11.766174 5.328125q-0.953125 0 -1.65625 -0.328125q-0.6875 -0.34375 -1.125 -0.921875q-0.4375 -0.578125 -0.65625 -1.328125q-0.21875 -0.75 -0.25 -1.578125q-0.03125 -0.28125 -0.03125 -0.515625q0 -0.25 0.03125 -0.53125q0.03125 -0.8125 0.25 -1.546875q0.21875 -0.75 0.65625 -1.34375q0.4375 -0.59375 1.125 -0.921875q0.703125 -0.34375 1.65625 -0.34375q1.015625 0 1.6875 0.375q0.6875 0.359375 1.109375 0.890625l0 -3.984375q0 -0.171875 0.109375 -0.28125q0.125 -0.109375 0.296875 -0.109375l0.828125 0q0.171875 0 0.28125 0.109375q0.125 0.109375 0.125 0.28125l0 11.5q0 0.1875 -0.125 0.296875q-0.109375 0.109375 -0.28125 0.109375l-0.78125 0q-0.1875 0 -0.296875 -0.109375q-0.09375 -0.109375 -0.09375 -0.296875l0 -0.71875q-0.4375 0.546875 -1.140625 0.921875q-0.6875 0.375 -1.71875 0.375zm0.359375 -1.40625q0.875 0 1.390625 -0.390625q0.515625 -0.40625 0.765625 -1.015625q0.265625 -0.609375 0.28125 -1.265625q0.03125 -0.265625 0.03125 -0.65625q0 -0.390625 -0.03125 -0.671875q-0.015625 -0.609375 -0.28125 -1.1875q-0.265625 -0.59375 -0.796875 -0.96875q-0.53125 -0.390625 -1.359375 -0.390625q-0.875 0 -1.40625 0.390625q-0.515625 0.390625 -0.75 1.03125q-0.21875 0.625 -0.25 1.359375q-0.015625 0.5 0 1.0q0.03125 0.71875 0.25 1.359375q0.234375 0.625 0.75 1.015625q0.53125 0.390625 1.40625 0.390625z" fill-rule="nonzero"/><path fill="#000000" d="m457.78293 52.277737q-1.5 0 -2.53125 -0.46875q-1.015625 -0.46875 -1.5625 -1.203125q-0.546875 -0.734375 -0.578125 -1.546875q0 -0.140625 0.109375 -0.25q0.109375 -0.109375 0.265625 -0.109375l0.890625 0q0.203125 0 0.296875 0.109375q0.109375 0.09375 0.140625 0.234375q0.109375 0.40625 0.4375 0.8125q0.328125 0.40625 0.9375 0.6875q0.625 0.265625 1.59375 0.265625q1.484375 0 2.1875 -0.53125q0.703125 -0.53125 0.703125 -1.40625q0 -0.609375 -0.375 -0.984375q-0.359375 -0.375 -1.125 -0.671875q-0.765625 -0.296875 -1.984375 -0.640625q-1.265625 -0.359375 -2.09375 -0.796875q-0.828125 -0.4375 -1.234375 -1.078125q-0.40625 -0.640625 -0.40625 -1.625q0 -0.9375 0.5 -1.671875q0.5 -0.734375 1.453125 -1.15625q0.953125 -0.4375 2.28125 -0.4375q1.078125 0 1.875 0.28125q0.8125 0.28125 1.34375 0.765625q0.546875 0.46875 0.828125 1.015625q0.28125 0.546875 0.296875 1.0625q0 0.125 -0.09375 0.25q-0.078125 0.109375 -0.28125 0.109375l-0.90625 0q-0.125 0 -0.265625 -0.0625q-0.125 -0.078125 -0.1875 -0.28125q-0.109375 -0.703125 -0.8125 -1.1875q-0.6875 -0.484375 -1.796875 -0.484375q-1.125 0 -1.828125 0.4375q-0.6875 0.421875 -0.6875 1.34375q0 0.59375 0.328125 0.984375q0.328125 0.390625 1.03125 0.6875q0.71875 0.28125 1.859375 0.609375q1.390625 0.390625 2.265625 0.8125q0.890625 0.421875 1.3125 1.0625q0.421875 0.625 0.421875 1.609375q0 1.09375 -0.578125 1.875q-0.5625 0.765625 -1.59375 1.171875q-1.03125 0.40625 -2.4375 0.40625zm11.449921 0q-1.453125 0 -2.5 -0.515625q-1.046875 -0.515625 -1.609375 -1.578125q-0.5625 -1.078125 -0.5625 -2.75l0 -7.046875q0 -0.1875 0.09375 -0.296875q0.109375 -0.109375 0.296875 -0.109375l0.890625 0q0.1875 0 0.296875 0.109375q0.125 0.109375 0.125 0.296875l0 7.078125q0 1.6875 0.796875 2.515625q0.796875 0.8125 2.171875 0.8125q1.375 0 2.171875 -0.8125q0.8125 -0.828125 0.8125 -2.515625l0 -7.078125q0 -0.1875 0.109375 -0.296875q0.109375 -0.109375 0.296875 -0.109375l0.890625 0q0.171875 0 0.28125 0.109375q0.125 0.109375 0.125 0.296875l0 7.046875q0 1.671875 -0.5625 2.75q-0.5625 1.0625 -1.609375 1.578125q-1.03125 0.515625 -2.515625 0.515625zm10.631317 -0.171875q-0.171875 0 -0.296875 -0.109375q-0.109375 -0.109375 -0.109375 -0.296875l0 -10.1875l-3.328125 0q-0.171875 0 -0.28125 -0.109375q-0.109375 -0.109375 -0.109375 -0.28125l0 -0.734375q0 -0.1875 0.109375 -0.296875q0.109375 -0.109375 0.28125 -0.109375l8.359375 0q0.1875 0 0.296875 0.109375q0.109375 0.109375 0.109375 0.296875l0 0.734375q0 0.171875 -0.109375 0.28125q-0.109375 0.109375 -0.296875 0.109375l-3.3125 0l0 10.1875q0 0.1875 -0.109375 0.296875q-0.109375 0.109375 -0.3125 0.109375l-0.890625 0z" fill-rule="nonzero"/><path fill="#efefef" d="m194.24669 17.156332l0 0c0 -5.0561876 4.0988617 -9.155038 9.155045 -9.155038l158.41434 0c2.42807 0 4.7566833 0.9645462 6.473572 2.681449c1.716919 1.7169027 2.6814575 4.0455227 2.6814575 6.473589l0 36.619057c0 5.0561867 -4.0988464 9.155037 -9.155029 9.155037l-158.41434 0c-5.056183 0 -9.155045 -4.0988503 -9.155045 -9.155037z" fill-rule="evenodd"/><path stroke="#ad182b" stroke-width="2.0" stroke-linejoin="round" stroke-linecap="butt" d="m194.24669 17.156332l0 0c0 -5.0561876 4.0988617 -9.155038 9.155045 -9.155038l158.41434 0c2.42807 0 4.7566833 0.9645462 6.473572 2.681449c1.716919 1.7169027 2.6814575 4.0455227 2.6814575 6.473589l0 36.619057c0 5.0561867 -4.0988464 9.155037 -9.155029 9.155037l-158.41434 0c-5.056183 0 -9.155045 -4.0988503 -9.155045 -9.155037z" fill-rule="evenodd"/><path fill="#000000" d="m251.31465 41.60586q-0.1875 0 -0.296875 -0.109375q-0.109375 -0.109375 -0.109375 -0.296875l0 -11.312502q0 -0.1875 0.109375 -0.296875q0.109375 -0.109375 0.296875 -0.109375l0.890625 0q0.1875 0 0.296875 0.109375q0.109375 0.109375 0.109375 0.296875l0 4.781252l5.9687653 0l0 -4.781252q0 -0.1875 0.109375 -0.296875q0.109375 -0.109375 0.28125 -0.109375l0.890625 0q0.1875 0 0.296875 0.109375q0.109375 0.109375 0.109375 0.296875l0 11.312502q0 0.1875 -0.109375 0.296875q-0.109375 0.109375 -0.296875 0.109375l-0.890625 0q-0.171875 0 -0.28125 -0.109375q-0.109375 -0.109375 -0.109375 -0.296875l0 -4.96875l-5.9687653 0l0 4.96875q0 0.1875 -0.109375 0.296875q-0.109375 0.109375 -0.296875 0.109375l-0.890625 0zm14.262833 0.171875q-0.875 0 -1.59375 -0.34375q-0.703125 -0.34375 -1.140625 -0.9375q-0.421875 -0.59375 -0.421875 -1.328125q0 -1.203125 0.96875 -1.90625q0.96875 -0.71875 2.53125 -0.9375l2.578125 -0.375l0 -0.5q0 -0.828125 -0.484375 -1.296875q-0.46875 -0.46875 -1.53125 -0.46875q-0.765625 0 -1.25 0.3125q-0.484375 0.3125 -0.6875 0.796875q-0.09375 0.265625 -0.359375 0.265625l-0.78125 0q-0.1875 0 -0.28125 -0.109375q-0.09375 -0.125 -0.09375 -0.28125q0 -0.25 0.1875 -0.625q0.203125 -0.390625 0.625 -0.75q0.421875 -0.375 1.0625 -0.625q0.65625 -0.25 1.59375 -0.25q1.03125 0 1.734375 0.28125q0.71875 0.265625 1.125 0.71875q0.40625 0.4375 0.59375 1.015625q0.1875 0.5625 0.1875 1.15625l0 5.609375q0 0.1875 -0.125 0.296875q-0.109375 0.109375 -0.28125 0.109375l-0.796875 0q-0.1875 0 -0.296875 -0.109375q-0.09375 -0.109375 -0.09375 -0.296875l0 -0.734375q-0.234375 0.3125 -0.625 0.625q-0.375 0.296875 -0.953125 0.5q-0.5625 0.1875 -1.390625 0.1875zm0.359375 -1.296875q0.71875 0 1.296875 -0.296875q0.59375 -0.3125 0.921875 -0.953125q0.34375 -0.640625 0.34375 -1.609375l0 -0.484375l-2.0 0.296875q-1.234375 0.171875 -1.859375 0.578125q-0.625 0.40625 -0.625 1.03125q0 0.484375 0.28125 0.8125q0.296875 0.3125 0.734375 0.46875q0.4375 0.15625 0.90625 0.15625zm7.0963135 1.125q-0.1875 0 -0.296875 -0.109375q-0.109375 -0.109375 -0.109375 -0.296875l0 -8.1875q0 -0.171875 0.109375 -0.296875q0.109375 -0.125 0.296875 -0.125l0.796875 0q0.171875 0 0.28125 0.125q0.125 0.125 0.125 0.296875l0 0.765625q0.34375 -0.59375 0.953125 -0.890625q0.609375 -0.296875 1.46875 -0.296875l0.6875 0q0.171875 0 0.28125 0.125q0.109375 0.109375 0.109375 0.28125l0 0.703125q0 0.171875 -0.109375 0.28125q-0.109375 0.109375 -0.28125 0.109375l-1.046875 0q-0.9375 0 -1.46875 0.546875q-0.53125 0.546875 -0.53125 1.46875l0 5.09375q0 0.1875 -0.125 0.296875q-0.125 0.109375 -0.296875 0.109375l-0.84375 0zm6.584656 0q-0.1875 0 -0.296875 -0.109375q-0.109375 -0.109375 -0.109375 -0.296875l0 -8.203125q0 -0.171875 0.109375 -0.28125q0.109375 -0.125 0.296875 -0.125l0.8125 0q0.171875 0 0.28125 0.125q0.109375 0.109375 0.109375 0.28125l0 0.765625q0.453125 -0.59375 1.140625 -0.96875q0.6875 -0.375 1.75 -0.375q1.125 0 1.90625 0.5q0.796875 0.484375 1.203125 1.359375q0.421875 0.875 0.421875 2.046875l0 4.875q0 0.1875 -0.125 0.296875q-0.109375 0.109375 -0.28125 0.109375l-0.859375 0q-0.1875 0 -0.296875 -0.109375q-0.109375 -0.109375 -0.109375 -0.296875l0 -4.796875q0 -1.203125 -0.59375 -1.890625q-0.578125 -0.6875 -1.734375 -0.6875q-1.0625 0 -1.71875 0.6875q-0.640625 0.6875 -0.640625 1.890625l0 4.796875q0 0.1875 -0.125 0.296875q-0.109375 0.109375 -0.28125 0.109375l-0.859375 0zm13.703918 0.171875q-1.8125 0 -2.875 -1.09375q-1.046875 -1.109375 -1.15625 -3.015625q-0.015625 -0.21875 -0.015625 -0.578125q0 -0.359375 0.015625 -0.578125q0.078125 -1.234375 0.578125 -2.15625q0.5 -0.921875 1.375 -1.421875q0.875 -0.515625 2.0625 -0.515625q1.3125 0 2.203125 0.5625q0.890625 0.546875 1.359375 1.578125q0.46875 1.015625 0.46875 2.390625l0 0.296875q0 0.1875 -0.109375 0.296875q-0.109375 0.09375 -0.28125 0.09375l-6.0 0q0 0.015625 0 0.078125q0 0.046875 0 0.078125q0.03125 0.703125 0.3125 1.328125q0.28125 0.609375 0.796875 1.0q0.53125 0.375 1.25 0.375q0.625 0 1.03125 -0.1875q0.421875 -0.1875 0.671875 -0.421875q0.265625 -0.234375 0.359375 -0.375q0.15625 -0.203125 0.234375 -0.25q0.09375 -0.046875 0.28125 -0.046875l0.84375 0q0.15625 0 0.265625 0.09375q0.125 0.09375 0.09375 0.265625q-0.015625 0.265625 -0.28125 0.640625q-0.25 0.375 -0.734375 0.734375q-0.46875 0.359375 -1.171875 0.59375q-0.703125 0.234375 -1.578125 0.234375zm-2.375 -5.328125l4.75 0l0 -0.0625q0 -0.78125 -0.296875 -1.375q-0.28125 -0.609375 -0.828125 -0.96875q-0.53125 -0.359375 -1.265625 -0.359375q-0.75 0 -1.28125 0.359375q-0.53125 0.359375 -0.8125 0.96875q-0.265625 0.59375 -0.265625 1.375l0 0.0625zm11.594299 5.328125q-0.96875 0 -1.671875 -0.234375q-0.6875 -0.25 -1.125 -0.59375q-0.4375 -0.34375 -0.65625 -0.6875q-0.203125 -0.359375 -0.21875 -0.5625q-0.03125 -0.1875 0.109375 -0.28125q0.140625 -0.109375 0.28125 -0.109375l0.78125 0q0.09375 0 0.140625 0.03125q0.0625 0.015625 0.171875 0.140625q0.21875 0.234375 0.5 0.484375q0.28125 0.234375 0.6875 0.390625q0.40625 0.15625 1.015625 0.15625q0.875 0 1.453125 -0.328125q0.578125 -0.34375 0.578125 -1.0q0 -0.4375 -0.234375 -0.6875q-0.234375 -0.265625 -0.84375 -0.46875q-0.59375 -0.21875 -1.625 -0.4375q-1.046875 -0.25 -1.65625 -0.59375q-0.609375 -0.359375 -0.875 -0.84375q-0.25 -0.5 -0.25 -1.125q0 -0.640625 0.375 -1.234375q0.390625 -0.609375 1.125 -0.984375q0.734375 -0.390625 1.84375 -0.390625q0.90625 0 1.546875 0.234375q0.640625 0.21875 1.046875 0.5625q0.421875 0.328125 0.625 0.65625q0.21875 0.328125 0.234375 0.5625q0.015625 0.171875 -0.109375 0.28125q-0.125 0.109375 -0.28125 0.109375l-0.71875 0q-0.125 0 -0.203125 -0.046875q-0.078125 -0.046875 -0.140625 -0.125q-0.171875 -0.21875 -0.40625 -0.4375q-0.234375 -0.234375 -0.609375 -0.375q-0.375 -0.15625 -0.984375 -0.15625q-0.859375 0 -1.296875 0.375q-0.4375 0.359375 -0.4375 0.90625q0 0.328125 0.1875 0.59375q0.203125 0.265625 0.734375 0.46875q0.53125 0.203125 1.59375 0.453125q1.140625 0.21875 1.796875 0.609375q0.671875 0.375 0.9375 0.875q0.28125 0.5 0.28125 1.15625q0 0.734375 -0.421875 1.34375q-0.40625 0.609375 -1.25 0.96875q-0.828125 0.34375 -2.03125 0.34375zm8.837311 0q-0.96875 0 -1.671875 -0.234375q-0.6875 -0.25 -1.125 -0.59375q-0.4375 -0.34375 -0.65625 -0.6875q-0.203125 -0.359375 -0.21875 -0.5625q-0.03125 -0.1875 0.109375 -0.28125q0.140625 -0.109375 0.28125 -0.109375l0.78125 0q0.09375 0 0.140625 0.03125q0.0625 0.015625 0.171875 0.140625q0.21875 0.234375 0.5 0.484375q0.28125 0.234375 0.6875 0.390625q0.40625 0.15625 1.015625 0.15625q0.875 0 1.453125 -0.328125q0.578125 -0.34375 0.578125 -1.0q0 -0.4375 -0.234375 -0.6875q-0.234375 -0.265625 -0.84375 -0.46875q-0.59375 -0.21875 -1.625 -0.4375q-1.046875 -0.25 -1.65625 -0.59375q-0.609375 -0.359375 -0.875 -0.84375q-0.25 -0.5 -0.25 -1.125q0 -0.640625 0.375 -1.234375q0.390625 -0.609375 1.125 -0.984375q0.734375 -0.390625 1.84375 -0.390625q0.90625 0 1.546875 0.234375q0.640625 0.21875 1.046875 0.5625q0.421875 0.328125 0.625 0.65625q0.21875 0.328125 0.234375 0.5625q0.015625 0.171875 -0.109375 0.28125q-0.125 0.109375 -0.28125 0.109375l-0.71875 0q-0.125 0 -0.203125 -0.046875q-0.078125 -0.046875 -0.140625 -0.125q-0.171875 -0.21875 -0.40625 -0.4375q-0.234375 -0.234375 -0.609375 -0.375q-0.375 -0.15625 -0.984375 -0.15625q-0.859375 0 -1.296875 0.375q-0.4375 0.359375 -0.4375 0.90625q0 0.328125 0.1875 0.59375q0.203125 0.265625 0.734375 0.46875q0.53125 0.203125 1.59375 0.453125q1.140625 0.21875 1.796875 0.609375q0.671875 0.375 0.9375 0.875q0.28125 0.5 0.28125 1.15625q0 0.734375 -0.421875 1.34375q-0.40625 0.609375 -1.25 0.96875q-0.828125 0.34375 -2.03125 0.34375z" fill-rule="nonzero"/><path fill="#efefef" d="m7.9999466 17.15502l0 0c0 -5.0561876 4.0988503 -9.155039 9.155039 -9.155039l158.41434 0c2.42807 0 4.7566833 0.9645457 6.473587 2.6814494c1.7169037 1.7169027 2.6814423 4.0455227 2.6814423 6.473589l0 36.619057c0 5.0561867 -4.0988464 9.155037 -9.155029 9.155037l-158.41434 0c-5.0561886 0 -9.155039 -4.0988503 -9.155039 -9.155037z" fill-rule="evenodd"/><path stroke="#ad182b" stroke-width="2.0" stroke-linejoin="round" stroke-linecap="butt" d="m7.9999466 17.15502l0 0c0 -5.0561876 4.0988503 -9.155039 9.155039 -9.155039l158.41434 0c2.42807 0 4.7566833 0.9645457 6.473587 2.6814494c1.7169037 1.7169027 2.6814423 4.0455227 2.6814423 6.473589l0 36.619057c0 5.0561867 -4.0988464 9.155037 -9.155029 9.155037l-158.41434 0c-5.0561886 0 -9.155039 -4.0988503 -9.155039 -9.155037z" fill-rule="evenodd"/><path fill="#000000" d="m71.17609 31.104548q-0.1875 0 -0.296875 -0.109375q-0.109375 -0.109375 -0.109375 -0.296875l0 -11.3125q0 -0.1875 0.109375 -0.296875q0.109375 -0.109375 0.296875 -0.109375l7.0625 0q0.203125 0 0.3125 0.109375q0.109375 0.109375 0.109375 0.296875l0 0.703125q0 0.1875 -0.109375 0.296875q-0.109375 0.09375 -0.3125 0.09375l-5.78125 0l0 4.046875l5.4375 0q0.1875 0 0.296875 0.109375q0.125 0.109375 0.125 0.296875l0 0.703125q0 0.171875 -0.125 0.28125q-0.109375 0.109375 -0.296875 0.109375l-5.4375 0l0 4.671875q0 0.1875 -0.109375 0.296875q-0.109375 0.109375 -0.3125 0.109375l-0.859375 0zm12.663269 0.171875q-1.109375 0 -1.875 -0.484375q-0.765625 -0.5 -1.171875 -1.375q-0.390625 -0.890625 -0.390625 -2.03125l0 -4.890625q0 -0.171875 0.109375 -0.28125q0.109375 -0.125 0.28125 -0.125l0.859375 0q0.1875 0 0.296875 0.125q0.109375 0.109375 0.109375 0.28125l0 4.796875q0 2.578125 2.25 2.578125q1.078125 0 1.71875 -0.671875q0.65625 -0.6875 0.65625 -1.90625l0 -4.796875q0 -0.171875 0.109375 -0.28125q0.125 -0.125 0.296875 -0.125l0.859375 0q0.171875 0 0.265625 0.125q0.109375 0.109375 0.109375 0.28125l0 8.203125q0 0.1875 -0.109375 0.296875q-0.09375 0.109375 -0.265625 0.109375l-0.8125 0q-0.171875 0 -0.296875 -0.109375q-0.109375 -0.109375 -0.109375 -0.296875l0 -0.75q-0.46875 0.609375 -1.140625 0.96875q-0.65625 0.359375 -1.75 0.359375zm6.900223 -0.171875q-0.171875 0 -0.296875 -0.109375q-0.109375 -0.109375 -0.109375 -0.296875l0 -0.59375q0 -0.15625 0.078125 -0.296875q0.078125 -0.140625 0.171875 -0.265625l4.78125 -6.078125l-4.46875 0q-0.171875 0 -0.296875 -0.09375q-0.109375 -0.109375 -0.109375 -0.3125l0 -0.5625q0 -0.171875 0.109375 -0.28125q0.125 -0.125 0.296875 -0.125l6.171875 0q0.171875 0 0.28125 0.125q0.109375 0.109375 0.109375 0.28125l0 0.640625q0 0.15625 -0.078125 0.28125q-0.078125 0.109375 -0.15625 0.25l-4.734375 6.0625l4.921875 0q0.1875 0 0.28125 0.109375q0.109375 0.109375 0.109375 0.296875l0 0.5625q0 0.1875 -0.109375 0.296875q-0.09375 0.109375 -0.28125 0.109375l-6.671875 0zm8.819962 0q-0.171875 0 -0.296875 -0.109375q-0.109375 -0.109375 -0.109375 -0.296875l0 -0.59375q0 -0.15625 0.078125 -0.296875q0.078125 -0.140625 0.171875 -0.265625l4.78125 -6.078125l-4.46875 0q-0.171875 0 -0.296875 -0.09375q-0.109375 -0.109375 -0.109375 -0.3125l0 -0.5625q0 -0.171875 0.109375 -0.28125q0.125 -0.125 0.296875 -0.125l6.171875 0q0.171875 0 0.28125 0.125q0.109375 0.109375 0.109375 0.28125l0 0.640625q0 0.15625 -0.078125 0.28125q-0.078125 0.109375 -0.15625 0.25l-4.734375 6.0625l4.921875 0q0.1875 0 0.28125 0.109375q0.109375 0.109375 0.109375 0.296875l0 0.5625q0 0.1875 -0.109375 0.296875q-0.09375 0.109375 -0.28125 0.109375l-6.671875 0zm12.497208 0.171875q-1.8125 0 -2.875 -1.09375q-1.046875 -1.109375 -1.15625 -3.015625q-0.015625 -0.21875 -0.015625 -0.578125q0 -0.359375 0.015625 -0.578125q0.078125 -1.234375 0.578125 -2.15625q0.5 -0.921875 1.375 -1.421875q0.875 -0.515625 2.0625 -0.515625q1.3125 0 2.203125 0.5625q0.890625 0.546875 1.359375 1.578125q0.46875 1.015625 0.46875 2.390625l0 0.296875q0 0.1875 -0.109375 0.296875q-0.109375 0.09375 -0.28125 0.09375l-6.0 0q0 0.015625 0 0.078125q0 0.046875 0 0.078125q0.03125 0.703125 0.3125 1.328125q0.28125 0.609375 0.796875 1.0q0.53125 0.375 1.25 0.375q0.625 0 1.03125 -0.1875q0.421875 -0.1875 0.671875 -0.421875q0.265625 -0.234375 0.359375 -0.375q0.15625 -0.203125 0.234375 -0.25q0.09375 -0.046875 0.28125 -0.046875l0.84375 0q0.15625 0 0.265625 0.09375q0.125 0.09375 0.09375 0.265625q-0.015625 0.265625 -0.28125 0.640625q-0.25 0.375 -0.734375 0.734375q-0.46875 0.359375 -1.171875 0.59375q-0.703125 0.234375 -1.578125 0.234375zm-2.375 -5.328125l4.75 0l0 -0.0625q0 -0.78125 -0.296875 -1.375q-0.28125 -0.609375 -0.828125 -0.96875q-0.53125 -0.359375 -1.265625 -0.359375q-0.75 0 -1.28125 0.359375q-0.53125 0.359375 -0.8125 0.96875q-0.265625 0.59375 -0.265625 1.375l0 0.0625zm8.875565 5.15625q-0.1875 0 -0.296875 -0.109375q-0.109375 -0.109375 -0.109375 -0.296875l0 -8.1875q0 -0.171875 0.109375 -0.296875q0.109375 -0.125 0.296875 -0.125l0.796875 0q0.171875 0 0.28125 0.125q0.125 0.125 0.125 0.296875l0 0.765625q0.34375 -0.59375 0.953125 -0.890625q0.609375 -0.296875 1.46875 -0.296875l0.6875 0q0.171875 0 0.28125 0.125q0.109375 0.109375 0.109375 0.28125l0 0.703125q0 0.171875 -0.109375 0.28125q-0.109375 0.109375 -0.28125 0.109375l-1.046875 0q-0.9375 0 -1.46875 0.546875q-0.53125 0.546875 -0.53125 1.46875l0 5.09375q0 0.1875 -0.125 0.296875q-0.125 0.109375 -0.296875 0.109375l-0.84375 0z" fill-rule="nonzero"/><path fill="#000000" d="m64.14955 52.10455q-0.1875 0 -0.296875 -0.109375q-0.109375 -0.109375 -0.109375 -0.296875l0 -11.3125q0 -0.1875 0.109375 -0.296875q0.109375 -0.109375 0.296875 -0.109375l4.234375 0q1.953125 0 3.09375 0.921875q1.140625 0.90625 1.140625 2.71875q0 1.328125 -0.671875 2.171875q-0.65625 0.84375 -1.796875 1.171875l2.65625 4.609375q0.0625 0.09375 0.0625 0.1875q0 0.140625 -0.125 0.25q-0.109375 0.09375 -0.234375 0.09375l-0.84375 0q-0.296875 0 -0.4375 -0.15625q-0.125 -0.15625 -0.234375 -0.3125l-2.515625 -4.40625l-3.03125 0l0 4.46875q0 0.1875 -0.109375 0.296875q-0.109375 0.109375 -0.296875 0.109375l-0.890625 0zm1.296875 -6.34375l2.859375 0q1.296875 0 1.9375 -0.546875q0.640625 -0.546875 0.640625 -1.625q0 -1.046875 -0.640625 -1.59375q-0.625 -0.5625 -1.9375 -0.5625l-2.859375 0l0 4.328125zm12.7873535 6.515625q-1.109375 0 -1.875 -0.484375q-0.765625 -0.5 -1.171875 -1.375q-0.390625 -0.890625 -0.390625 -2.03125l0 -4.890625q0 -0.171875 0.109375 -0.28125q0.109375 -0.125 0.28125 -0.125l0.859375 0q0.1875 0 0.296875 0.125q0.109375 0.109375 0.109375 0.28125l0 4.796875q0 2.578125 2.25 2.578125q1.078125 0 1.71875 -0.671875q0.65625 -0.6875 0.65625 -1.90625l0 -4.796875q0 -0.171875 0.109375 -0.28125q0.125 -0.125 0.296875 -0.125l0.859375 0q0.171875 0 0.265625 0.125q0.109375 0.109375 0.109375 0.28125l0 8.203125q0 0.1875 -0.109375 0.296875q-0.09375 0.109375 -0.265625 0.109375l-0.8125 0q-0.171875 0 -0.296875 -0.109375q-0.109375 -0.109375 -0.109375 -0.296875l0 -0.75q-0.46875 0.609375 -1.140625 0.96875q-0.65625 0.359375 -1.75 0.359375zm7.478348 -0.171875q-0.1875 0 -0.296875 -0.109375q-0.109375 -0.109375 -0.109375 -0.296875l0 -8.203125q0 -0.171875 0.109375 -0.28125q0.109375 -0.125 0.296875 -0.125l0.8125 0q0.171875 0 0.28125 0.125q0.109375 0.109375 0.109375 0.28125l0 0.765625q0.453125 -0.59375 1.140625 -0.96875q0.6875 -0.375 1.75 -0.375q1.125 0 1.90625 0.5q0.796875 0.484375 1.203125 1.359375q0.421875 0.875 0.421875 2.046875l0 4.875q0 0.1875 -0.125 0.296875q-0.109375 0.109375 -0.28125 0.109375l-0.859375 0q-0.1875 0 -0.296875 -0.109375q-0.109375 -0.109375 -0.109375 -0.296875l0 -4.796875q0 -1.203125 -0.59375 -1.890625q-0.578125 -0.6875 -1.734375 -0.6875q-1.0625 0 -1.71875 0.6875q-0.640625 0.6875 -0.640625 1.890625l0 4.796875q0 0.1875 -0.125 0.296875q-0.109375 0.109375 -0.28125 0.109375l-0.859375 0zm13.488815 0q-0.96875 0 -1.578125 -0.375q-0.609375 -0.375 -0.890625 -1.046875q-0.265625 -0.6875 -0.265625 -1.625l0 -4.578125l-1.359375 0q-0.171875 0 -0.28125 -0.109375q-0.109375 -0.109375 -0.109375 -0.28125l0 -0.59375q0 -0.171875 0.109375 -0.28125q0.109375 -0.125 0.28125 -0.125l1.359375 0l0 -2.890625q0 -0.171875 0.109375 -0.28125q0.109375 -0.109375 0.28125 -0.109375l0.828125 0q0.171875 0 0.28125 0.109375q0.109375 0.109375 0.109375 0.28125l0 2.890625l2.15625 0q0.1875 0 0.28125 0.125q0.109375 0.109375 0.109375 0.28125l0 0.59375q0 0.171875 -0.109375 0.28125q-0.09375 0.109375 -0.28125 0.109375l-2.15625 0l0 4.453125q0 0.8125 0.28125 1.28125q0.28125 0.46875 0.984375 0.46875l1.0625 0q0.171875 0 0.28125 0.109375q0.109375 0.109375 0.109375 0.296875l0 0.609375q0 0.1875 -0.109375 0.296875q-0.109375 0.109375 -0.28125 0.109375l-1.203125 0zm3.6658783 0q-0.1875 0 -0.296875 -0.109375q-0.109375 -0.109375 -0.109375 -0.296875l0 -8.203125q0 -0.171875 0.109375 -0.28125q0.109375 -0.125 0.296875 -0.125l0.828125 0q0.171875 0 0.28125 0.125q0.109375 0.109375 0.109375 0.28125l0 8.203125q0 0.1875 -0.109375 0.296875q-0.109375 0.109375 -0.28125 0.109375l-0.828125 0zm-0.140625 -10.6875q-0.171875 0 -0.296875 -0.109375q-0.109375 -0.125 -0.109375 -0.296875l0 -0.9375q0 -0.171875 0.109375 -0.28125q0.125 -0.125 0.296875 -0.125l1.09375 0q0.171875 0 0.28125 0.125q0.125 0.109375 0.125 0.28125l0 0.9375q0 0.171875 -0.125 0.296875q-0.109375 0.109375 -0.28125 0.109375l-1.09375 0zm4.3339996 10.6875q-0.1875 0 -0.296875 -0.109375q-0.109375 -0.109375 -0.109375 -0.296875l0 -8.203125q0 -0.171875 0.109375 -0.28125q0.109375 -0.125 0.296875 -0.125l0.765625 0q0.1875 0 0.296875 0.125q0.109375 0.109375 0.109375 0.28125l0 0.609375q0.390625 -0.546875 1.0 -0.859375q0.609375 -0.328125 1.453125 -0.328125q1.96875 -0.015625 2.78125 1.59375q0.390625 -0.71875 1.15625 -1.15625q0.765625 -0.4375 1.734375 -0.4375q0.90625 0 1.640625 0.421875q0.734375 0.40625 1.15625 1.25q0.421875 0.84375 0.421875 2.109375l0 5.0q0 0.1875 -0.109375 0.296875q-0.109375 0.109375 -0.28125 0.109375l-0.8125 0q-0.171875 0 -0.296875 -0.109375q-0.109375 -0.109375 -0.109375 -0.296875l0 -4.84375q0 -0.96875 -0.28125 -1.515625q-0.265625 -0.5625 -0.734375 -0.78125q-0.46875 -0.234375 -1.03125 -0.234375q-0.4375 0 -0.90625 0.234375q-0.46875 0.21875 -0.78125 0.78125q-0.296875 0.546875 -0.296875 1.515625l0 4.84375q0 0.1875 -0.125 0.296875q-0.109375 0.109375 -0.28125 0.109375l-0.8125 0q-0.171875 0 -0.28125 -0.109375q-0.109375 -0.109375 -0.109375 -0.296875l0 -4.84375q0 -0.96875 -0.296875 -1.515625q-0.296875 -0.5625 -0.765625 -0.78125q-0.46875 -0.234375 -0.984375 -0.234375q-0.453125 0 -0.921875 0.234375q-0.46875 0.21875 -0.78125 0.78125q-0.296875 0.546875 -0.296875 1.5l0 4.859375q0 0.1875 -0.109375 0.296875q-0.109375 0.109375 -0.28125 0.109375l-0.828125 0zm18.607742 0.171875q-1.8125 0 -2.875 -1.09375q-1.046875 -1.109375 -1.15625 -3.015625q-0.015625 -0.21875 -0.015625 -0.578125q0 -0.359375 0.015625 -0.578125q0.078125 -1.234375 0.578125 -2.15625q0.5 -0.921875 1.375 -1.421875q0.875 -0.515625 2.0625 -0.515625q1.3125 0 2.203125 0.5625q0.890625 0.546875 1.359375 1.578125q0.46875 1.015625 0.46875 2.390625l0 0.296875q0 0.1875 -0.109375 0.296875q-0.109375 0.09375 -0.28125 0.09375l-6.0 0q0 0.015625 0 0.078125q0 0.046875 0 0.078125q0.03125 0.703125 0.3125 1.328125q0.28125 0.609375 0.796875 1.0q0.53125 0.375 1.25 0.375q0.625 0 1.03125 -0.1875q0.421875 -0.1875 0.671875 -0.421875q0.265625 -0.234375 0.359375 -0.375q0.15625 -0.203125 0.234375 -0.25q0.09375 -0.046875 0.28125 -0.046875l0.84375 0q0.15625 0 0.265625 0.09375q0.125 0.09375 0.09375 0.265625q-0.015625 0.265625 -0.28125 0.640625q-0.25 0.375 -0.734375 0.734375q-0.46875 0.359375 -1.171875 0.59375q-0.703125 0.234375 -1.578125 0.234375zm-2.375 -5.328125l4.75 0l0 -0.0625q0 -0.78125 -0.296875 -1.375q-0.28125 -0.609375 -0.828125 -0.96875q-0.53125 -0.359375 -1.265625 -0.359375q-0.75 0 -1.28125 0.359375q-0.53125 0.359375 -0.8125 0.96875q-0.265625 0.59375 -0.265625 1.375l0 0.0625z" fill-rule="nonzero"/><path fill="#efefef" d="m380.49323 108.66921l0 0c0 -5.0561905 4.0988464 -9.155045 9.155029 -9.155045l158.41437 0c2.4280396 0 4.756653 0.9645462 6.473572 2.68145c1.716919 1.7169037 2.6814575 4.0455246 2.6814575 6.4735947l0 36.619057c0 5.056183 -4.098877 9.155029 -9.155029 9.155029l-158.41437 0c-5.056183 0 -9.155029 -4.0988464 -9.155029 -9.155029z" fill-rule="evenodd"/><path stroke="#ad182b" stroke-width="2.0" stroke-linejoin="round" stroke-linecap="butt" d="m380.49323 108.66921l0 0c0 -5.0561905 4.0988464 -9.155045 9.155029 -9.155045l158.41437 0c2.4280396 0 4.756653 0.9645462 6.473572 2.68145c1.716919 1.7169037 2.6814575 4.0455246 2.6814575 6.4735947l0 36.619057c0 5.056183 -4.098877 9.155029 -9.155029 9.155029l-158.41437 0c-5.056183 0 -9.155029 -4.0988464 -9.155029 -9.155029z" fill-rule="evenodd"/><path fill="#000000" d="m405.2618 122.61874q-0.1875 0 -0.296875 -0.109375q-0.109375 -0.109375 -0.109375 -0.296875l0 -11.328125q0 -0.171875 0.109375 -0.28125q0.109375 -0.109375 0.296875 -0.109375l0.921875 0q0.1875 0 0.28125 0.109375q0.109375 0.109375 0.109375 0.28125l0 11.328125q0 0.1875 -0.109375 0.296875q-0.09375 0.109375 -0.28125 0.109375l-0.921875 0zm4.51178 0q-0.1875 0 -0.296875 -0.109375q-0.109375 -0.109375 -0.109375 -0.296875l0 -8.203125q0 -0.171875 0.109375 -0.28125q0.109375 -0.125 0.296875 -0.125l0.8125 0q0.171875 0 0.28125 0.125q0.109375 0.109375 0.109375 0.28125l0 0.765625q0.453125 -0.59375 1.140625 -0.96875q0.6875 -0.375 1.75 -0.375q1.125 0 1.90625 0.5q0.796875 0.484375 1.203125 1.359375q0.421875 0.875 0.421875 2.046875l0 4.875q0 0.1875 -0.125 0.296875q-0.109375 0.109375 -0.28125 0.109375l-0.859375 0q-0.1875 0 -0.296875 -0.109375q-0.109375 -0.109375 -0.109375 -0.296875l0 -4.796875q0 -1.203125 -0.59375 -1.890625q-0.578125 -0.6875 -1.734375 -0.6875q-1.0625 0 -1.71875 0.6875q-0.640625 0.6875 -0.640625 1.890625l0 4.796875q0 0.1875 -0.125 0.296875q-0.109375 0.109375 -0.28125 0.109375l-0.859375 0zm13.219543 0.171875q-0.96875 0 -1.671875 -0.234375q-0.6875 -0.25 -1.125 -0.59375q-0.4375 -0.34375 -0.65625 -0.6875q-0.203125 -0.359375 -0.21875 -0.5625q-0.03125 -0.1875 0.109375 -0.28125q0.140625 -0.109375 0.28125 -0.109375l0.78125 0q0.09375 0 0.140625 0.03125q0.0625 0.015625 0.171875 0.140625q0.21875 0.234375 0.5 0.484375q0.28125 0.234375 0.6875 0.390625q0.40625 0.15625 1.015625 0.15625q0.875 0 1.453125 -0.328125q0.578125 -0.34375 0.578125 -1.0q0 -0.4375 -0.234375 -0.6875q-0.234375 -0.265625 -0.84375 -0.46875q-0.59375 -0.21875 -1.625 -0.4375q-1.046875 -0.25 -1.65625 -0.59375q-0.609375 -0.359375 -0.875 -0.84375q-0.25 -0.5 -0.25 -1.125q0 -0.640625 0.375 -1.234375q0.390625 -0.609375 1.125 -0.984375q0.734375 -0.390625 1.84375 -0.390625q0.90625 0 1.546875 0.234375q0.640625 0.21875 1.046875 0.5625q0.421875 0.328125 0.625 0.65625q0.21875 0.328125 0.234375 0.5625q0.015625 0.171875 -0.109375 0.28125q-0.125 0.109375 -0.28125 0.109375l-0.71875 0q-0.125 0 -0.203125 -0.046875q-0.078125 -0.046875 -0.140625 -0.125q-0.171875 -0.21875 -0.40625 -0.4375q-0.234375 -0.234375 -0.609375 -0.375q-0.375 -0.15625 -0.984375 -0.15625q-0.859375 0 -1.296875 0.375q-0.4375 0.359375 -0.4375 0.90625q0 0.328125 0.1875 0.59375q0.203125 0.265625 0.734375 0.46875q0.53125 0.203125 1.59375 0.453125q1.140625 0.21875 1.796875 0.609375q0.671875 0.375 0.9375 0.875q0.28125 0.5 0.28125 1.15625q0 0.734375 -0.421875 1.34375q-0.40625 0.609375 -1.25 0.96875q-0.828125 0.34375 -2.03125 0.34375zm9.210571 -0.171875q-0.96875 0 -1.578125 -0.375q-0.609375 -0.375 -0.890625 -1.046875q-0.265625 -0.6875 -0.265625 -1.625l0 -4.578125l-1.359375 0q-0.171875 0 -0.28125 -0.109375q-0.109375 -0.109375 -0.109375 -0.28125l0 -0.59375q0 -0.171875 0.109375 -0.28125q0.109375 -0.125 0.28125 -0.125l1.359375 0l0 -2.890625q0 -0.171875 0.109375 -0.28125q0.109375 -0.109375 0.28125 -0.109375l0.828125 0q0.171875 0 0.28125 0.109375q0.109375 0.109375 0.109375 0.28125l0 2.890625l2.15625 0q0.1875 0 0.28125 0.125q0.109375 0.109375 0.109375 0.28125l0 0.59375q0 0.171875 -0.109375 0.28125q-0.09375 0.109375 -0.28125 0.109375l-2.15625 0l0 4.453125q0 0.8125 0.28125 1.28125q0.28125 0.46875 0.984375 0.46875l1.0625 0q0.171875 0 0.28125 0.109375q0.109375 0.109375 0.109375 0.296875l0 0.609375q0 0.1875 -0.109375 0.296875q-0.109375 0.109375 -0.28125 0.109375l-1.203125 0zm3.6658936 0q-0.1875 0 -0.296875 -0.109375q-0.109375 -0.109375 -0.109375 -0.296875l0 -8.1875q0 -0.171875 0.109375 -0.296875q0.109375 -0.125 0.296875 -0.125l0.796875 0q0.171875 0 0.28125 0.125q0.125 0.125 0.125 0.296875l0 0.765625q0.34375 -0.59375 0.953125 -0.890625q0.609375 -0.296875 1.46875 -0.296875l0.6875 0q0.171875 0 0.28125 0.125q0.109375 0.109375 0.109375 0.28125l0 0.703125q0 0.171875 -0.109375 0.28125q-0.109375 0.109375 -0.28125 0.109375l-1.046875 0q-0.9375 0 -1.46875 0.546875q-0.53125 0.546875 -0.53125 1.46875l0 5.09375q0 0.1875 -0.125 0.296875q-0.125 0.109375 -0.296875 0.109375l-0.84375 0zm9.537781 0.171875q-1.109375 0 -1.875 -0.484375q-0.765625 -0.5 -1.171875 -1.375q-0.390625 -0.890625 -0.390625 -2.03125l0 -4.890625q0 -0.171875 0.109375 -0.28125q0.109375 -0.125 0.28125 -0.125l0.859375 0q0.1875 0 0.296875 0.125q0.109375 0.109375 0.109375 0.28125l0 4.796875q0 2.578125 2.25 2.578125q1.078125 0 1.71875 -0.671875q0.65625 -0.6875 0.65625 -1.90625l0 -4.796875q0 -0.171875 0.109375 -0.28125q0.125 -0.125 0.296875 -0.125l0.859375 0q0.171875 0 0.265625 0.125q0.109375 0.109375 0.109375 0.28125l0 8.203125q0 0.1875 -0.109375 0.296875q-0.09375 0.109375 -0.265625 0.109375l-0.8125 0q-0.171875 0 -0.296875 -0.109375q-0.109375 -0.109375 -0.109375 -0.296875l0 -0.75q-0.46875 0.609375 -1.140625 0.96875q-0.65625 0.359375 -1.75 0.359375zm7.4783325 -0.171875q-0.1875 0 -0.296875 -0.109375q-0.109375 -0.109375 -0.109375 -0.296875l0 -8.203125q0 -0.171875 0.109375 -0.28125q0.109375 -0.125 0.296875 -0.125l0.765625 0q0.1875 0 0.296875 0.125q0.109375 0.109375 0.109375 0.28125l0 0.609375q0.390625 -0.546875 1.0 -0.859375q0.609375 -0.328125 1.453125 -0.328125q1.96875 -0.015625 2.78125 1.59375q0.390625 -0.71875 1.15625 -1.15625q0.765625 -0.4375 1.734375 -0.4375q0.90625 0 1.640625 0.421875q0.734375 0.40625 1.15625 1.25q0.421875 0.84375 0.421875 2.109375l0 5.0q0 0.1875 -0.109375 0.296875q-0.109375 0.109375 -0.28125 0.109375l-0.8125 0q-0.171875 0 -0.296875 -0.109375q-0.109375 -0.109375 -0.109375 -0.296875l0 -4.84375q0 -0.96875 -0.28125 -1.515625q-0.265625 -0.5625 -0.734375 -0.78125q-0.46875 -0.234375 -1.03125 -0.234375q-0.4375 0 -0.90625 0.234375q-0.46875 0.21875 -0.78125 0.78125q-0.296875 0.546875 -0.296875 1.515625l0 4.84375q0 0.1875 -0.125 0.296875q-0.109375 0.109375 -0.28125 0.109375l-0.8125 0q-0.171875 0 -0.28125 -0.109375q-0.109375 -0.109375 -0.109375 -0.296875l0 -4.84375q0 -0.96875 -0.296875 -1.515625q-0.296875 -0.5625 -0.765625 -0.78125q-0.46875 -0.234375 -0.984375 -0.234375q-0.453125 0 -0.921875 0.234375q-0.46875 0.21875 -0.78125 0.78125q-0.296875 0.546875 -0.296875 1.5l0 4.859375q0 0.1875 -0.109375 0.296875q-0.109375 0.109375 -0.28125 0.109375l-0.828125 0zm18.607758 0.171875q-1.8125 0 -2.875 -1.09375q-1.046875 -1.109375 -1.15625 -3.015625q-0.015625 -0.21875 -0.015625 -0.578125q0 -0.359375 0.015625 -0.578125q0.078125 -1.234375 0.578125 -2.15625q0.5 -0.921875 1.375 -1.421875q0.875 -0.515625 2.0625 -0.515625q1.3125 0 2.203125 0.5625q0.890625 0.546875 1.359375 1.578125q0.46875 1.015625 0.46875 2.390625l0 0.296875q0 0.1875 -0.109375 0.296875q-0.109375 0.09375 -0.28125 0.09375l-6.0 0q0 0.015625 0 0.078125q0 0.046875 0 0.078125q0.03125 0.703125 0.3125 1.328125q0.28125 0.609375 0.796875 1.0q0.53125 0.375 1.25 0.375q0.625 0 1.03125 -0.1875q0.421875 -0.1875 0.671875 -0.421875q0.265625 -0.234375 0.359375 -0.375q0.15625 -0.203125 0.234375 -0.25q0.09375 -0.046875 0.28125 -0.046875l0.84375 0q0.15625 0 0.265625 0.09375q0.125 0.09375 0.09375 0.265625q-0.015625 0.265625 -0.28125 0.640625q-0.25 0.375 -0.734375 0.734375q-0.46875 0.359375 -1.171875 0.59375q-0.703125 0.234375 -1.578125 0.234375zm-2.375 -5.328125l4.75 0l0 -0.0625q0 -0.78125 -0.296875 -1.375q-0.28125 -0.609375 -0.828125 -0.96875q-0.53125 -0.359375 -1.265625 -0.359375q-0.75 0 -1.28125 0.359375q-0.53125 0.359375 -0.8125 0.96875q-0.265625 0.59375 -0.265625 1.375l0 0.0625zm8.875549 5.15625q-0.1875 0 -0.296875 -0.109375q-0.109375 -0.109375 -0.109375 -0.296875l0 -8.203125q0 -0.171875 0.109375 -0.28125q0.109375 -0.125 0.296875 -0.125l0.8125 0q0.171875 0 0.28125 0.125q0.109375 0.109375 0.109375 0.28125l0 0.765625q0.453125 -0.59375 1.140625 -0.96875q0.6875 -0.375 1.75 -0.375q1.125 0 1.90625 0.5q0.796875 0.484375 1.203125 1.359375q0.421875 0.875 0.421875 2.046875l0 4.875q0 0.1875 -0.125 0.296875q-0.109375 0.109375 -0.28125 0.109375l-0.859375 0q-0.1875 0 -0.296875 -0.109375q-0.109375 -0.109375 -0.109375 -0.296875l0 -4.796875q0 -1.203125 -0.59375 -1.890625q-0.578125 -0.6875 -1.734375 -0.6875q-1.0625 0 -1.71875 0.6875q-0.640625 0.6875 -0.640625 1.890625l0 4.796875q0 0.1875 -0.125 0.296875q-0.109375 0.109375 -0.28125 0.109375l-0.859375 0zm13.488831 0q-0.96875 0 -1.578125 -0.375q-0.609375 -0.375 -0.890625 -1.046875q-0.265625 -0.6875 -0.265625 -1.625l0 -4.578125l-1.359375 0q-0.171875 0 -0.28125 -0.109375q-0.109375 -0.109375 -0.109375 -0.28125l0 -0.59375q0 -0.171875 0.109375 -0.28125q0.109375 -0.125 0.28125 -0.125l1.359375 0l0 -2.890625q0 -0.171875 0.109375 -0.28125q0.109375 -0.109375 0.28125 -0.109375l0.828125 0q0.171875 0 0.28125 0.109375q0.109375 0.109375 0.109375 0.28125l0 2.890625l2.15625 0q0.1875 0 0.28125 0.125q0.109375 0.109375 0.109375 0.28125l0 0.59375q0 0.171875 -0.109375 0.28125q-0.09375 0.109375 -0.28125 0.109375l-2.15625 0l0 4.453125q0 0.8125 0.28125 1.28125q0.28125 0.46875 0.984375 0.46875l1.0625 0q0.171875 0 0.28125 0.109375q0.109375 0.109375 0.109375 0.296875l0 0.609375q0 0.1875 -0.109375 0.296875q-0.109375 0.109375 -0.28125 0.109375l-1.203125 0zm5.775238 0.171875q-0.875 0 -1.59375 -0.34375q-0.703125 -0.34375 -1.140625 -0.9375q-0.421875 -0.59375 -0.421875 -1.328125q0 -1.203125 0.96875 -1.90625q0.96875 -0.71875 2.53125 -0.9375l2.578125 -0.375l0 -0.5q0 -0.828125 -0.484375 -1.296875q-0.46875 -0.46875 -1.53125 -0.46875q-0.765625 0 -1.25 0.3125q-0.484375 0.3125 -0.6875 0.796875q-0.09375 0.265625 -0.359375 0.265625l-0.78125 0q-0.1875 0 -0.28125 -0.109375q-0.09375 -0.125 -0.09375 -0.28125q0 -0.25 0.1875 -0.625q0.203125 -0.390625 0.625 -0.75q0.421875 -0.375 1.0625 -0.625q0.65625 -0.25 1.59375 -0.25q1.03125 0 1.734375 0.28125q0.71875 0.265625 1.125 0.71875q0.40625 0.4375 0.59375 1.015625q0.1875 0.5625 0.1875 1.15625l0 5.609375q0 0.1875 -0.125 0.296875q-0.109375 0.109375 -0.28125 0.109375l-0.796875 0q-0.1875 0 -0.296875 -0.109375q-0.09375 -0.109375 -0.09375 -0.296875l0 -0.734375q-0.234375 0.3125 -0.625 0.625q-0.375 0.296875 -0.953125 0.5q-0.5625 0.1875 -1.390625 0.1875zm0.359375 -1.296875q0.71875 0 1.296875 -0.296875q0.59375 -0.3125 0.921875 -0.953125q0.34375 -0.640625 0.34375 -1.609375l0 -0.484375l-2.0 0.296875q-1.234375 0.171875 -1.859375 0.578125q-0.625 0.40625 -0.625 1.03125q0 0.484375 0.28125 0.8125q0.296875 0.3125 0.734375 0.46875q0.4375 0.15625 0.90625 0.15625zm10.119019 1.125q-0.96875 0 -1.578125 -0.375q-0.609375 -0.375 -0.890625 -1.046875q-0.265625 -0.6875 -0.265625 -1.625l0 -4.578125l-1.359375 0q-0.171875 0 -0.28125 -0.109375q-0.109375 -0.109375 -0.109375 -0.28125l0 -0.59375q0 -0.171875 0.109375 -0.28125q0.109375 -0.125 0.28125 -0.125l1.359375 0l0 -2.890625q0 -0.171875 0.109375 -0.28125q0.109375 -0.109375 0.28125 -0.109375l0.828125 0q0.171875 0 0.28125 0.109375q0.109375 0.109375 0.109375 0.28125l0 2.890625l2.15625 0q0.1875 0 0.28125 0.125q0.109375 0.109375 0.109375 0.28125l0 0.59375q0 0.171875 -0.109375 0.28125q-0.09375 0.109375 -0.28125 0.109375l-2.15625 0l0 4.453125q0 0.8125 0.28125 1.28125q0.28125 0.46875 0.984375 0.46875l1.0625 0q0.171875 0 0.28125 0.109375q0.109375 0.109375 0.109375 0.296875l0 0.609375q0 0.1875 -0.109375 0.296875q-0.109375 0.109375 -0.28125 0.109375l-1.203125 0zm3.6658936 0q-0.1875 0 -0.296875 -0.109375q-0.109375 -0.109375 -0.109375 -0.296875l0 -8.203125q0 -0.171875 0.109375 -0.28125q0.109375 -0.125 0.296875 -0.125l0.8280945 0q0.171875 0 0.28125 0.125q0.109375 0.109375 0.109375 0.28125l0 8.203125q0 0.1875 -0.109375 0.296875q-0.109375 0.109375 -0.28125 0.109375l-0.8280945 0zm-0.140625 -10.6875q-0.171875 0 -0.296875 -0.109375q-0.109375 -0.125 -0.109375 -0.296875l0 -0.9375q0 -0.171875 0.109375 -0.28125q0.125 -0.125 0.296875 -0.125l1.0937195 0q0.171875 0 0.28125 0.125q0.125 0.109375 0.125 0.28125l0 0.9375q0 0.171875 -0.125 0.296875q-0.109375 0.109375 -0.28125 0.109375l-1.0937195 0zm7.615265 10.859375q-1.3125 0 -2.203125 -0.5q-0.875 -0.5 -1.34375 -1.390625q-0.46875 -0.890625 -0.515625 -2.046875q-0.015625 -0.296875 -0.015625 -0.75q0 -0.453125 0.015625 -0.734375q0.046875 -1.15625 0.515625 -2.03125q0.484375 -0.890625 1.359375 -1.390625q0.890625 -0.515625 2.1875 -0.515625q1.296875 0 2.1875 0.515625q0.890625 0.5 1.359375 1.390625q0.484375 0.875 0.53125 2.03125q0.015625 0.28125 0.015625 0.734375q0 0.453125 -0.015625 0.75q-0.046875 1.15625 -0.515625 2.046875q-0.46875 0.890625 -1.359375 1.390625q-0.875 0.5 -2.203125 0.5zm0 -1.328125q1.078125 0 1.71875 -0.6875q0.640625 -0.6875 0.6875 -2.0q0.03125 -0.265625 0.03125 -0.65625q0 -0.40625 -0.03125 -0.65625q-0.046875 -1.328125 -0.6875 -2.0q-0.640625 -0.6875 -1.71875 -0.6875q-1.0625 0 -1.71875 0.6875q-0.65625 0.671875 -0.6875 2.0q-0.015625 0.25 -0.015625 0.65625q0 0.390625 0.015625 0.65625q0.03125 1.3125 0.6875 2.0q0.65625 0.6875 1.71875 0.6875zm6.665039 1.15625q-0.1875 0 -0.296875 -0.109375q-0.109375 -0.109375 -0.109375 -0.296875l0 -8.203125q0 -0.171875 0.109375 -0.28125q0.109375 -0.125 0.296875 -0.125l0.8125 0q0.171875 0 0.28125 0.125q0.109375 0.109375 0.109375 0.28125l0 0.765625q0.453125 -0.59375 1.140625 -0.96875q0.6875 -0.375 1.75 -0.375q1.125 0 1.90625 0.5q0.796875 0.484375 1.203125 1.359375q0.421875 0.875 0.421875 2.046875l0 4.875q0 0.1875 -0.125 0.296875q-0.109375 0.109375 -0.28125 0.109375l-0.859375 0q-0.1875 0 -0.296875 -0.109375q-0.109375 -0.109375 -0.109375 -0.296875l0 -4.796875q0 -1.203125 -0.59375 -1.890625q-0.578125 -0.6875 -1.734375 -0.6875q-1.0625 0 -1.71875 0.6875q-0.640625 0.6875 -0.640625 1.890625l0 4.796875q0 0.1875 -0.125 0.296875q-0.109375 0.109375 -0.28125 0.109375l-0.859375 0z" fill-rule="nonzero"/><path fill="#000000" d="m436.64282 143.61874q-0.1875 0 -0.296875 -0.109375q-0.109375 -0.109375 -0.109375 -0.296875l0 -11.3125q0 -0.1875 0.109375 -0.296875q0.109375 -0.109375 0.296875 -0.109375l4.234375 0q1.953125 0 3.09375 0.921875q1.140625 0.90625 1.140625 2.71875q0 1.328125 -0.671875 2.171875q-0.65625 0.84375 -1.796875 1.171875l2.65625 4.609375q0.0625 0.09375 0.0625 0.1875q0 0.140625 -0.125 0.25q-0.109375 0.09375 -0.234375 0.09375l-0.84375 0q-0.296875 0 -0.4375 -0.15625q-0.125 -0.15625 -0.234375 -0.3125l-2.515625 -4.40625l-3.03125 0l0 4.46875q0 0.1875 -0.109375 0.296875q-0.109375 0.109375 -0.296875 0.109375l-0.890625 0zm1.296875 -6.34375l2.859375 0q1.296875 0 1.9375 -0.546875q0.640625 -0.546875 0.640625 -1.625q0 -1.046875 -0.640625 -1.59375q-0.625 -0.5625 -1.9375 -0.5625l-2.859375 0l0 4.328125zm12.7873535 6.515625q-1.109375 0 -1.875 -0.484375q-0.765625 -0.5 -1.171875 -1.375q-0.390625 -0.890625 -0.390625 -2.03125l0 -4.890625q0 -0.171875 0.109375 -0.28125q0.109375 -0.125 0.28125 -0.125l0.859375 0q0.1875 0 0.296875 0.125q0.109375 0.109375 0.109375 0.28125l0 4.796875q0 2.578125 2.25 2.578125q1.078125 0 1.71875 -0.671875q0.65625 -0.6875 0.65625 -1.90625l0 -4.796875q0 -0.171875 0.109375 -0.28125q0.125 -0.125 0.296875 -0.125l0.859375 0q0.171875 0 0.265625 0.125q0.109375 0.109375 0.109375 0.28125l0 8.203125q0 0.1875 -0.109375 0.296875q-0.09375 0.109375 -0.265625 0.109375l-0.8125 0q-0.171875 0 -0.296875 -0.109375q-0.109375 -0.109375 -0.109375 -0.296875l0 -0.75q-0.46875 0.609375 -1.140625 0.96875q-0.65625 0.359375 -1.75 0.359375zm7.478363 -0.171875q-0.1875 0 -0.296875 -0.109375q-0.109375 -0.109375 -0.109375 -0.296875l0 -8.203125q0 -0.171875 0.109375 -0.28125q0.109375 -0.125 0.296875 -0.125l0.8125 0q0.171875 0 0.28125 0.125q0.109375 0.109375 0.109375 0.28125l0 0.765625q0.453125 -0.59375 1.140625 -0.96875q0.6875 -0.375 1.75 -0.375q1.125 0 1.90625 0.5q0.796875 0.484375 1.203125 1.359375q0.421875 0.875 0.421875 2.046875l0 4.875q0 0.1875 -0.125 0.296875q-0.109375 0.109375 -0.28125 0.109375l-0.859375 0q-0.1875 0 -0.296875 -0.109375q-0.109375 -0.109375 -0.109375 -0.296875l0 -4.796875q0 -1.203125 -0.59375 -1.890625q-0.578125 -0.6875 -1.734375 -0.6875q-1.0625 0 -1.71875 0.6875q-0.640625 0.6875 -0.640625 1.890625l0 4.796875q0 0.1875 -0.125 0.296875q-0.109375 0.109375 -0.28125 0.109375l-0.859375 0zm13.4888 0q-0.96875 0 -1.578125 -0.375q-0.609375 -0.375 -0.890625 -1.046875q-0.265625 -0.6875 -0.265625 -1.625l0 -4.578125l-1.359375 0q-0.171875 0 -0.28125 -0.109375q-0.109375 -0.109375 -0.109375 -0.28125l0 -0.59375q0 -0.171875 0.109375 -0.28125q0.109375 -0.125 0.28125 -0.125l1.359375 0l0 -2.890625q0 -0.171875 0.109375 -0.28125q0.109375 -0.109375 0.28125 -0.109375l0.828125 0q0.171875 0 0.28125 0.109375q0.109375 0.109375 0.109375 0.28125l0 2.890625l2.15625 0q0.1875 0 0.28125 0.125q0.109375 0.109375 0.109375 0.28125l0 0.59375q0 0.171875 -0.109375 0.28125q-0.09375 0.109375 -0.28125 0.109375l-2.15625 0l0 4.453125q0 0.8125 0.28125 1.28125q0.28125 0.46875 0.984375 0.46875l1.0625 0q0.171875 0 0.28125 0.109375q0.109375 0.109375 0.109375 0.296875l0 0.609375q0 0.1875 -0.109375 0.296875q-0.109375 0.109375 -0.28125 0.109375l-1.203125 0zm3.6658936 0q-0.1875 0 -0.296875 -0.109375q-0.109375 -0.109375 -0.109375 -0.296875l0 -8.203125q0 -0.171875 0.109375 -0.28125q0.109375 -0.125 0.296875 -0.125l0.828125 0q0.171875 0 0.28125 0.125q0.109375 0.109375 0.109375 0.28125l0 8.203125q0 0.1875 -0.109375 0.296875q-0.109375 0.109375 -0.28125 0.109375l-0.828125 0zm-0.140625 -10.6875q-0.171875 0 -0.296875 -0.109375q-0.109375 -0.125 -0.109375 -0.296875l0 -0.9375q0 -0.171875 0.109375 -0.28125q0.125 -0.125 0.296875 -0.125l1.09375 0q0.171875 0 0.28125 0.125q0.125 0.109375 0.125 0.28125l0 0.9375q0 0.171875 -0.125 0.296875q-0.109375 0.109375 -0.28125 0.109375l-1.09375 0zm4.3339844 10.6875q-0.1875 0 -0.296875 -0.109375q-0.109375 -0.109375 -0.109375 -0.296875l0 -8.203125q0 -0.171875 0.109375 -0.28125q0.109375 -0.125 0.296875 -0.125l0.765625 0q0.1875 0 0.296875 0.125q0.109375 0.109375 0.109375 0.28125l0 0.609375q0.390625 -0.546875 1.0 -0.859375q0.609375 -0.328125 1.453125 -0.328125q1.96875 -0.015625 2.78125 1.59375q0.390625 -0.71875 1.15625 -1.15625q0.765625 -0.4375 1.734375 -0.4375q0.90625 0 1.640625 0.421875q0.734375 0.40625 1.15625 1.25q0.421875 0.84375 0.421875 2.109375l0 5.0q0 0.1875 -0.109375 0.296875q-0.109375 0.109375 -0.28125 0.109375l-0.8125 0q-0.171875 0 -0.296875 -0.109375q-0.109375 -0.109375 -0.109375 -0.296875l0 -4.84375q0 -0.96875 -0.28125 -1.515625q-0.265625 -0.5625 -0.734375 -0.78125q-0.46875 -0.234375 -1.03125 -0.234375q-0.4375 0 -0.90625 0.234375q-0.46875 0.21875 -0.78125 0.78125q-0.296875 0.546875 -0.296875 1.515625l0 4.84375q0 0.1875 -0.125 0.296875q-0.109375 0.109375 -0.28125 0.109375l-0.8125 0q-0.171875 0 -0.28125 -0.109375q-0.109375 -0.109375 -0.109375 -0.296875l0 -4.84375q0 -0.96875 -0.296875 -1.515625q-0.296875 -0.5625 -0.765625 -0.78125q-0.46875 -0.234375 -0.984375 -0.234375q-0.453125 0 -0.921875 0.234375q-0.46875 0.21875 -0.78125 0.78125q-0.296875 0.546875 -0.296875 1.5l0 4.859375q0 0.1875 -0.109375 0.296875q-0.109375 0.109375 -0.28125 0.109375l-0.828125 0zm18.607758 0.171875q-1.8125 0 -2.875 -1.09375q-1.046875 -1.109375 -1.15625 -3.015625q-0.015625 -0.21875 -0.015625 -0.578125q0 -0.359375 0.015625 -0.578125q0.078125 -1.234375 0.578125 -2.15625q0.5 -0.921875 1.375 -1.421875q0.875 -0.515625 2.0625 -0.515625q1.3125 0 2.203125 0.5625q0.890625 0.546875 1.359375 1.578125q0.46875 1.015625 0.46875 2.390625l0 0.296875q0 0.1875 -0.109375 0.296875q-0.109375 0.09375 -0.28125 0.09375l-6.0 0q0 0.015625 0 0.078125q0 0.046875 0 0.078125q0.03125 0.703125 0.3125 1.328125q0.28125 0.609375 0.796875 1.0q0.53125 0.375 1.25 0.375q0.625 0 1.03125 -0.1875q0.421875 -0.1875 0.671875 -0.421875q0.265625 -0.234375 0.359375 -0.375q0.15625 -0.203125 0.234375 -0.25q0.09375 -0.046875 0.28125 -0.046875l0.84375 0q0.15625 0 0.265625 0.09375q0.125 0.09375 0.09375 0.265625q-0.015625 0.265625 -0.28125 0.640625q-0.25 0.375 -0.734375 0.734375q-0.46875 0.359375 -1.171875 0.59375q-0.703125 0.234375 -1.578125 0.234375zm-2.375 -5.328125l4.75 0l0 -0.0625q0 -0.78125 -0.296875 -1.375q-0.28125 -0.609375 -0.828125 -0.96875q-0.53125 -0.359375 -1.265625 -0.359375q-0.75 0 -1.28125 0.359375q-0.53125 0.359375 -0.8125 0.96875q-0.265625 0.59375 -0.265625 1.375l0 0.0625z" fill-rule="nonzero"/><path fill="#000000" fill-opacity="0.0" d="m82.74016 55.341206l186.23622 0l0 58.17323l-186.23622 0z" fill-rule="evenodd"/><path fill="#000000" d="m125.19421 68.279335q2.21875 0 3.2343674 0.859375q1.015625 0.859375 1.015625 2.46875q0 0.734375 -0.234375 1.390625q-0.234375 0.640625 -0.765625 1.140625q-0.5312424 0.5 -1.4062424 0.78125q-0.859375 0.28125 -2.109375 0.28125l-1.390625 0l0 4.5l-1.328125 0l0 -11.421875l2.984375 0zm-0.125 1.125l-1.53125 0l0 4.65625l1.25 0q1.09375 0 1.8125 -0.234375q0.734375 -0.234375 1.09375 -0.75q0.37499237 -0.53125 0.37499237 -1.40625q0 -1.140625 -0.7343674 -1.703125q-0.71875 -0.5625 -2.265625 -0.5625zm7.8749924 1.734375l0 8.5625l-1.296875 0l0 -8.5625l1.296875 0zm-0.640625 -3.203125q0.328125 0 0.546875 0.203125q0.234375 0.203125 0.234375 0.640625q0 0.4375 -0.234375 0.65625q-0.21875 0.203125 -0.546875 0.203125q-0.328125 0 -0.5625 -0.203125q-0.21875 -0.21875 -0.21875 -0.65625q0 -0.4375 0.21875 -0.640625q0.234375 -0.203125 0.5625 -0.203125zm6.8046875 11.921875q-1.15625 0 -2.046875 -0.46875q-0.875 -0.484375 -1.375 -1.453125q-0.484375 -0.984375 -0.484375 -2.46875q0 -1.5625 0.515625 -2.546875q0.53125 -0.984375 1.4375 -1.453125q0.921875 -0.484375 2.078125 -0.484375q0.640625 0 1.234375 0.125q0.609375 0.125 0.984375 0.328125l-0.390625 1.078125q-0.390625 -0.15625 -0.90625 -0.28125q-0.5 -0.125 -0.953125 -0.125q-0.890625 0 -1.484375 0.390625q-0.578125 0.375 -0.875 1.125q-0.296875 0.734375 -0.296875 1.828125q0 1.03125 0.28125 1.765625q0.296875 0.734375 0.859375 1.125q0.5625 0.390625 1.421875 0.390625q0.671875 0 1.21875 -0.140625q0.546875 -0.15625 1.0 -0.34375l0 1.15625q-0.4375 0.21875 -0.96875 0.328125q-0.515625 0.125 -1.25 0.125zm5.5234375 -12.3125l0 6.3125q0 0.3125 -0.03125 0.765625q-0.015625 0.4375 -0.03125 0.78125l0.0625 0q0.15625 -0.203125 0.46875 -0.59375q0.328125 -0.40625 0.546875 -0.640625l2.84375 -3.03125l1.515625 0l-3.4375 3.65625l3.6875 4.90625l-1.5625 0l-3.015625 -4.0625l-1.046875 0.953125l0 3.109375l-1.28125 0l0 -12.15625l1.28125 0zm12.65625 9.8125q0 0.8125 -0.40625 1.375q-0.40625 0.5625 -1.171875 0.84375q-0.765625 0.28125 -1.8125 0.28125q-0.90625 0 -1.5625 -0.140625q-0.65625 -0.140625 -1.140625 -0.40625l0 -1.1875q0.515625 0.25 1.234375 0.46875q0.734375 0.203125 1.5 0.203125q1.109375 0 1.609375 -0.359375q0.5 -0.359375 0.5 -0.96875q0 -0.359375 -0.203125 -0.625q-0.203125 -0.265625 -0.671875 -0.515625q-0.46875 -0.265625 -1.296875 -0.5625q-0.8125 -0.3125 -1.421875 -0.625q-0.59375 -0.3125 -0.921875 -0.75q-0.3125 -0.453125 -0.3125 -1.15625q0 -1.09375 0.875 -1.671875q0.875 -0.578125 2.3125 -0.578125q0.765625 0 1.4375 0.15625q0.6875 0.140625 1.265625 0.40625l-0.4375 1.03125q-0.53125 -0.21875 -1.140625 -0.375q-0.59375 -0.15625 -1.21875 -0.15625q-0.890625 0 -1.375 0.296875q-0.484375 0.296875 -0.484375 0.8125q0 0.390625 0.21875 0.65625q0.234375 0.25 0.71875 0.484375q0.5 0.21875 1.296875 0.53125q0.8125 0.296875 1.390625 0.609375q0.59375 0.3125 0.90625 0.765625q0.3125 0.453125 0.3125 1.15625zm5.515625 -2.046875q0 -1.3125 0.25 -2.5625q0.265625 -1.25 0.78125 -2.375q0.53125 -1.140625 1.328125 -2.09375l1.234375 0q-1.125 1.484375 -1.703125 3.296875q-0.5625 1.8125 -0.5625 3.71875q0 1.25 0.25 2.46875q0.25 1.21875 0.75 2.34375q0.515625 1.125 1.25 2.125l-1.21875 0q-0.796875 -0.9375 -1.328125 -2.046875q-0.515625 -1.109375 -0.78125 -2.34375q-0.25 -1.234375 -0.25 -2.53125zm9.34375 -4.328125q0.25 0 0.53125 0.03125q0.28125 0.015625 0.5 0.0625l-0.15625 1.203125q-0.21875 -0.046875 -0.484375 -0.078125q-0.25 -0.03125 -0.46875 -0.03125q-0.515625 0 -0.984375 0.203125q-0.453125 0.203125 -0.796875 0.59375q-0.34375 0.390625 -0.546875 0.9375q-0.1875 0.53125 -0.1875 1.203125l0 4.59375l-1.296875 0l0 -8.5625l1.078125 0l0.140625 1.578125l0.046875 0q0.265625 -0.484375 0.640625 -0.875q0.375 -0.390625 0.875 -0.625q0.5 -0.234375 1.109375 -0.234375zm5.8515625 0.015625q1.53125 0 2.265625 0.6875q0.75 0.6875 0.75 2.1875l0 5.828125l-0.953125 0l-0.25 -1.265625l-0.0625 0q-0.359375 0.46875 -0.75 0.78125q-0.390625 0.3125 -0.90625 0.484375q-0.5 0.15625 -1.25 0.15625q-0.78125 0 -1.390625 -0.265625q-0.59375 -0.28125 -0.953125 -0.828125q-0.34375 -0.5625 -0.34375 -1.421875q0 -1.28125 1.015625 -1.96875q1.015625 -0.6875 3.09375 -0.75l1.484375 -0.0625l0 -0.515625q0 -1.109375 -0.484375 -1.546875q-0.46875 -0.453125 -1.34375 -0.453125q-0.671875 0 -1.28125 0.203125q-0.609375 0.1875 -1.15625 0.453125l-0.390625 -0.984375q0.578125 -0.296875 1.328125 -0.5q0.75 -0.21875 1.578125 -0.21875zm1.734375 4.484375l-1.3125 0.046875q-1.59375 0.0625 -2.25 0.53125q-0.65625 0.453125 -0.65625 1.296875q0 0.734375 0.4375 1.09375q0.453125 0.34375 1.1875 0.34375q1.140625 0 1.859375 -0.625q0.734375 -0.640625 0.734375 -1.90625l0 -0.78125zm8.0 -4.5q1.53125 0 2.3125 0.75q0.78125 0.734375 0.78125 2.390625l0 5.578125l-1.28125 0l0 -5.5q0 -1.0625 -0.5 -1.59375q-0.484375 -0.53125 -1.484375 -0.53125q-1.421875 0 -2.0 0.8125q-0.578125 0.796875 -0.578125 2.328125l0 4.484375l-1.296875 0l0 -8.5625l1.046875 0l0.1875 1.234375l0.078125 0q0.265625 -0.453125 0.6875 -0.765625q0.421875 -0.3125 0.9375 -0.46875q0.53125 -0.15625 1.109375 -0.15625zm8.8125 8.875q-1.625 0 -2.578125 -1.109375q-0.953125 -1.109375 -0.953125 -3.296875q0 -2.21875 0.96875 -3.34375q0.96875 -1.125 2.578125 -1.125q0.6875 0 1.1875 0.1875q0.515625 0.171875 0.875 0.46875q0.375 0.296875 0.625 0.6875l0.09375 0q-0.03125 -0.25 -0.0625 -0.671875q-0.03125 -0.421875 -0.03125 -0.6875l0 -3.421875l1.296875 0l0 12.15625l-1.046875 0l-0.203125 -1.21875l-0.046875 0q-0.25 0.375 -0.625 0.6875q-0.359375 0.3125 -0.875 0.5q-0.515625 0.1875 -1.203125 0.1875zm0.203125 -1.078125q1.375 0 1.9375 -0.78125q0.578125 -0.78125 0.578125 -2.328125l0 -0.234375q0 -1.625 -0.546875 -2.5q-0.546875 -0.875 -1.96875 -0.875q-1.203125 0 -1.796875 0.921875q-0.59375 0.90625 -0.59375 2.5q0 1.578125 0.59375 2.4375q0.59375 0.859375 1.796875 0.859375zm13.9140625 -3.375q0 1.046875 -0.28125 1.875q-0.265625 0.828125 -0.78125 1.40625q-0.515625 0.5625 -1.25 0.875q-0.71875 0.296875 -1.640625 0.296875q-0.859375 0 -1.578125 -0.296875q-0.71875 -0.3125 -1.234375 -0.875q-0.515625 -0.578125 -0.8125 -1.40625q-0.28125 -0.828125 -0.28125 -1.875q0 -1.40625 0.46875 -2.390625q0.484375 -1.0 1.375 -1.515625q0.890625 -0.515625 2.109375 -0.515625q1.171875 0 2.046875 0.53125q0.890625 0.515625 1.375 1.5q0.484375 0.984375 0.484375 2.390625zm-6.515625 0q0 1.03125 0.265625 1.796875q0.28125 0.75 0.84375 1.171875q0.578125 0.40625 1.484375 0.40625q0.890625 0 1.453125 -0.40625q0.578125 -0.421875 0.84375 -1.171875q0.28125 -0.765625 0.28125 -1.796875q0 -1.03125 -0.28125 -1.765625q-0.265625 -0.75 -0.84375 -1.15625q-0.5625 -0.40625 -1.46875 -0.40625q-1.328125 0 -1.953125 0.890625q-0.625 0.875 -0.625 2.4375zm18.0625 -4.421875q1.40625 0 2.125 0.734375q0.71875 0.734375 0.71875 2.375l0 5.609375l-1.28125 0l0 -5.546875q0 -1.046875 -0.453125 -1.5625q-0.4375 -0.515625 -1.328125 -0.515625q-1.234375 0 -1.796875 0.71875q-0.5625 0.71875 -0.5625 2.109375l0 4.796875l-1.296875 0l0 -5.546875q0 -0.703125 -0.203125 -1.15625q-0.1875 -0.46875 -0.59375 -0.6875q-0.390625 -0.234375 -0.984375 -0.234375q-0.859375 0 -1.375 0.359375q-0.515625 0.34375 -0.75 1.03125q-0.21875 0.6875 -0.21875 1.703125l0 4.53125l-1.296875 0l0 -8.5625l1.046875 0l0.1875 1.203125l0.078125 0q0.25 -0.4375 0.640625 -0.734375q0.390625 -0.3125 0.875 -0.46875q0.484375 -0.15625 1.03125 -0.15625q0.984375 0 1.640625 0.359375q0.65625 0.359375 0.953125 1.109375l0.078125 0q0.421875 -0.75 1.15625 -1.109375q0.734375 -0.359375 1.609375 -0.359375zm8.21875 4.3125q0 1.3125 -0.25 2.546875q-0.25 1.234375 -0.78125 2.34375q-0.515625 1.125 -1.3125 2.046875l-1.234375 0q0.75 -0.984375 1.25 -2.125q0.515625 -1.140625 0.765625 -2.34375q0.25 -1.21875 0.25 -2.46875q0 -1.28125 -0.265625 -2.515625q-0.25 -1.234375 -0.75 -2.375q-0.5 -1.140625 -1.265625 -2.125l1.25 0q0.796875 0.953125 1.3125 2.09375q0.53125 1.125 0.78125 2.375q0.25 1.234375 0.25 2.546875z" fill-rule="nonzero"/><path fill="#000000" d="m143.51842 97.99496q0.3125 0 0.640625 -0.046875q0.34375 -0.0625 0.5625 -0.140625l0 1.0q-0.234375 0.109375 -0.640625 0.171875q-0.390625 0.078125 -0.78125 0.078125q-0.671875 0 -1.234375 -0.234375q-0.546875 -0.25 -0.890625 -0.8125q-0.328125 -0.578125 -0.328125 -1.578125l0 -5.078125l-1.21875 0l0 -0.640625l1.234375 -0.5l0.515625 -1.859375l0.78125 0l0 1.984375l2.5 0l0 1.015625l-2.5 0l0 5.03125q0 0.8125 0.359375 1.21875q0.375 0.390625 1.0 0.390625zm6.234375 -7.8125q1.09375 0 1.875 0.484375q0.78125 0.484375 1.1875 1.359375q0.421875 0.859375 0.421875 2.03125l0 0.796875l-5.921875 0q0.03125 1.515625 0.75 2.3125q0.734375 0.78125 2.046875 0.78125q0.8125 0 1.4375 -0.140625q0.625 -0.15625 1.296875 -0.453125l0 1.140625q-0.640625 0.296875 -1.28125 0.421875q-0.640625 0.140625 -1.5 0.140625q-1.234375 0 -2.15625 -0.5q-0.921875 -0.515625 -1.4375 -1.484375q-0.5 -0.984375 -0.5 -2.390625q0 -1.390625 0.46875 -2.390625q0.46875 -1.015625 1.3125 -1.5625q0.84375 -0.546875 2.0 -0.546875zm-0.015625 1.0625q-1.046875 0 -1.671875 0.6875q-0.609375 0.671875 -0.71875 1.890625l4.53125 0q-0.015625 -0.765625 -0.25 -1.34375q-0.21875 -0.59375 -0.6875 -0.90625q-0.46875 -0.328125 -1.203125 -0.328125zm11.234375 5.3125q0 0.8125 -0.40625 1.375q-0.40625 0.5625 -1.171875 0.84375q-0.765625 0.28125 -1.8125 0.28125q-0.90625 0 -1.5625 -0.140625q-0.65625 -0.140625 -1.140625 -0.40625l0 -1.1875q0.515625 0.25 1.234375 0.46875q0.734375 0.203125 1.5 0.203125q1.109375 0 1.609375 -0.359375q0.5 -0.359375 0.5 -0.96875q0 -0.359375 -0.203125 -0.625q-0.203125 -0.265625 -0.671875 -0.515625q-0.46875 -0.265625 -1.296875 -0.5625q-0.8125 -0.3125 -1.421875 -0.625q-0.59375 -0.3125 -0.921875 -0.75q-0.3125 -0.453125 -0.3125 -1.15625q0 -1.09375 0.875 -1.671875q0.875 -0.578125 2.3125 -0.578125q0.765625 0 1.4375 0.15625q0.6875 0.140625 1.265625 0.40625l-0.4375 1.03125q-0.53125 -0.21875 -1.140625 -0.375q-0.59375 -0.15625 -1.21875 -0.15625q-0.890625 0 -1.375 0.296875q-0.484375 0.296875 -0.484375 0.8125q0 0.390625 0.21875 0.65625q0.234375 0.25 0.71875 0.484375q0.5 0.21875 1.296875 0.53125q0.8125 0.296875 1.390625 0.609375q0.59375 0.3125 0.90625 0.765625q0.3125 0.453125 0.3125 1.15625zm4.859375 1.4375q0.3125 0 0.640625 -0.046875q0.34375 -0.0625 0.5625 -0.140625l0 1.0q-0.234375 0.109375 -0.640625 0.171875q-0.390625 0.078125 -0.78125 0.078125q-0.671875 0 -1.234375 -0.234375q-0.546875 -0.25 -0.890625 -0.8125q-0.328125 -0.578125 -0.328125 -1.578125l0 -5.078125l-1.21875 0l0 -0.640625l1.234375 -0.5l0.515625 -1.859375l0.78125 0l0 1.984375l2.5 0l0 1.015625l-2.5 0l0 5.03125q0 0.8125 0.359375 1.21875q0.375 0.390625 1.0 0.390625zm10.515625 1.0625q-1.15625 0 -2.046875 -0.46875q-0.875 -0.484375 -1.375 -1.453125q-0.484375 -0.984375 -0.484375 -2.46875q0 -1.5625 0.515625 -2.546875q0.53125 -0.984375 1.4375 -1.453125q0.921875 -0.484375 2.078125 -0.484375q0.640625 0 1.234375 0.125q0.609375 0.125 0.984375 0.328125l-0.390625 1.078125q-0.390625 -0.15625 -0.90625 -0.28125q-0.5 -0.125 -0.953125 -0.125q-0.890625 0 -1.484375 0.390625q-0.578125 0.375 -0.875 1.125q-0.296875 0.734375 -0.296875 1.828125q0 1.03125 0.28125 1.765625q0.296875 0.734375 0.859375 1.125q0.5625 0.390625 1.421875 0.390625q0.671875 0 1.21875 -0.140625q0.546875 -0.15625 1.0 -0.34375l0 1.15625q-0.4375 0.21875 -0.96875 0.328125q-0.515625 0.125 -1.25 0.125zm7.4453125 -8.859375q1.53125 0 2.265625 0.6875q0.75 0.6875 0.75 2.1875l0 5.828125l-0.953125 0l-0.25 -1.265625l-0.0625 0q-0.359375 0.46875 -0.75 0.78125q-0.390625 0.3125 -0.90625 0.484375q-0.5 0.15625 -1.25 0.15625q-0.78125 0 -1.390625 -0.265625q-0.59375 -0.28125 -0.953125 -0.828125q-0.34375 -0.5625 -0.34375 -1.421875q0 -1.28125 1.015625 -1.96875q1.015625 -0.6875 3.09375 -0.75l1.484375 -0.0625l0 -0.515625q0 -1.109375 -0.484375 -1.546875q-0.46875 -0.453125 -1.34375 -0.453125q-0.671875 0 -1.28125 0.203125q-0.609375 0.1875 -1.15625 0.453125l-0.390625 -0.984375q0.578125 -0.296875 1.328125 -0.5q0.75 -0.21875 1.578125 -0.21875zm1.734375 4.484375l-1.3125 0.046875q-1.59375 0.0625 -2.25 0.53125q-0.65625 0.453125 -0.65625 1.296875q0 0.734375 0.4375 1.09375q0.453125 0.34375 1.1875 0.34375q1.140625 0 1.859375 -0.625q0.734375 -0.640625 0.734375 -1.90625l0 -0.78125zm9.484375 1.875q0 0.8125 -0.40625 1.375q-0.40625 0.5625 -1.171875 0.84375q-0.765625 0.28125 -1.8125 0.28125q-0.90625 0 -1.5625 -0.140625q-0.65625 -0.140625 -1.140625 -0.40625l0 -1.1875q0.515625 0.25 1.234375 0.46875q0.734375 0.203125 1.5 0.203125q1.109375 0 1.609375 -0.359375q0.5 -0.359375 0.5 -0.96875q0 -0.359375 -0.203125 -0.625q-0.203125 -0.265625 -0.671875 -0.515625q-0.46875 -0.265625 -1.296875 -0.5625q-0.8125 -0.3125 -1.421875 -0.625q-0.59375 -0.3125 -0.921875 -0.75q-0.3125 -0.453125 -0.3125 -1.15625q0 -1.09375 0.875 -1.671875q0.875 -0.578125 2.3125 -0.578125q0.765625 0 1.4375 0.15625q0.6875 0.140625 1.265625 0.40625l-0.4375 1.03125q-0.53125 -0.21875 -1.140625 -0.375q-0.59375 -0.15625 -1.21875 -0.15625q-0.890625 0 -1.375 0.296875q-0.484375 0.296875 -0.484375 0.8125q0 0.390625 0.21875 0.65625q0.234375 0.25 0.71875 0.484375q0.5 0.21875 1.296875 0.53125q0.8125 0.296875 1.390625 0.609375q0.59375 0.3125 0.90625 0.765625q0.3125 0.453125 0.3125 1.15625zm5.390625 -6.375q1.09375 0 1.875 0.484375q0.78125 0.484375 1.1875 1.359375q0.421875 0.859375 0.421875 2.03125l0 0.796875l-5.921875 0q0.03125 1.515625 0.75 2.3125q0.734375 0.78125 2.046875 0.78125q0.8125 0 1.4375 -0.140625q0.625 -0.15625 1.296875 -0.453125l0 1.140625q-0.640625 0.296875 -1.28125 0.421875q-0.640625 0.140625 -1.5 0.140625q-1.234375 0 -2.15625 -0.5q-0.921875 -0.515625 -1.4375 -1.484375q-0.5 -0.984375 -0.5 -2.390625q0 -1.390625 0.46875 -2.390625q0.46875 -1.015625 1.3125 -1.5625q0.84375 -0.546875 2.0 -0.546875zm-0.015625 1.0625q-1.046875 0 -1.671875 0.6875q-0.609375 0.671875 -0.71875 1.890625l4.53125 0q-0.015625 -0.765625 -0.25 -1.34375q-0.21875 -0.59375 -0.6875 -0.90625q-0.46875 -0.328125 -1.203125 -0.328125zm11.234375 5.3125q0 0.8125 -0.40625 1.375q-0.40625 0.5625 -1.171875 0.84375q-0.765625 0.28125 -1.8125 0.28125q-0.90625 0 -1.5625 -0.140625q-0.65625 -0.140625 -1.140625 -0.40625l0 -1.1875q0.515625 0.25 1.234375 0.46875q0.734375 0.203125 1.5 0.203125q1.109375 0 1.609375 -0.359375q0.5 -0.359375 0.5 -0.96875q0 -0.359375 -0.203125 -0.625q-0.203125 -0.265625 -0.671875 -0.515625q-0.46875 -0.265625 -1.296875 -0.5625q-0.8125 -0.3125 -1.421875 -0.625q-0.59375 -0.3125 -0.921875 -0.75q-0.3125 -0.453125 -0.3125 -1.15625q0 -1.09375 0.875 -1.671875q0.875 -0.578125 2.3125 -0.578125q0.765625 0 1.4375 0.15625q0.6875 0.140625 1.265625 0.40625l-0.4375 1.03125q-0.53125 -0.21875 -1.140625 -0.375q-0.59375 -0.15625 -1.21875 -0.15625q-0.890625 0 -1.375 0.296875q-0.484375 0.296875 -0.484375 0.8125q0 0.390625 0.21875 0.65625q0.234375 0.25 0.71875 0.484375q0.5 0.21875 1.296875 0.53125q0.8125 0.296875 1.390625 0.609375q0.59375 0.3125 0.90625 0.765625q0.3125 0.453125 0.3125 1.15625z" fill-rule="nonzero"/><path fill="#000000" fill-opacity="0.0" d="m281.97244 55.339893l186.2362 0l0 37.165356l-186.2362 0z" fill-rule="evenodd"/><path fill="#000000" d="m352.09415 78.41989l-5.8125 0l0 -10.46875l5.8125 0l0 1.078125l-4.609375 0l0 3.390625l4.34375 0l0 1.0625l-4.34375 0l0 3.859375l4.609375 0l0 1.078125zm4.0189514 -4.015625l-2.71875 -3.828125l1.359375 0l2.0625 3.015625l2.0625 -3.015625l1.359375 0l-2.71875 3.828125l2.859375 4.015625l-1.359375 0l-2.203125 -3.203125l-2.203125 3.203125l-1.34375 0l2.84375 -4.015625zm8.812256 -3.96875q1.015625 0 1.71875 0.453125q0.71875 0.4375 1.09375 1.234375q0.390625 0.796875 0.390625 1.859375l0 0.734375l-5.421875 0q0.015625 1.390625 0.6875 2.109375q0.671875 0.71875 1.875 0.71875q0.75 0 1.3125 -0.125q0.578125 -0.140625 1.1875 -0.40625l0 1.046875q-0.59375 0.265625 -1.171875 0.375q-0.578125 0.125 -1.375 0.125q-1.140625 0 -1.984375 -0.453125q-0.828125 -0.46875 -1.296875 -1.359375q-0.46875 -0.890625 -0.46875 -2.1875q0 -1.265625 0.421875 -2.1875q0.4375 -0.9375 1.203125 -1.4375q0.78125 -0.5 1.828125 -0.5zm0 0.96875q-0.953125 0 -1.53125 0.625q-0.5625 0.625 -0.671875 1.734375l4.15625 0q0 -0.703125 -0.21875 -1.234375q-0.203125 -0.53125 -0.640625 -0.828125q-0.421875 -0.296875 -1.09375 -0.296875zm8.354828 7.15625q-1.0625 0 -1.875 -0.4375q-0.796875 -0.4375 -1.25 -1.328125q-0.453125 -0.890625 -0.453125 -2.25q0 -1.421875 0.46875 -2.328125q0.484375 -0.90625 1.3125 -1.34375q0.84375 -0.4375 1.921875 -0.4375q0.578125 0 1.125 0.125q0.546875 0.109375 0.90625 0.28125l-0.359375 1.0q-0.359375 -0.140625 -0.828125 -0.25q-0.46875 -0.125 -0.875 -0.125q-0.8125 0 -1.359375 0.359375q-0.546875 0.34375 -0.8125 1.03125q-0.265625 0.671875 -0.265625 1.671875q0 0.953125 0.25 1.625q0.265625 0.671875 0.78125 1.03125q0.53125 0.34375 1.3125 0.34375q0.625 0 1.125 -0.125q0.5 -0.140625 0.90625 -0.3125l0 1.0625q-0.390625 0.1875 -0.875 0.296875q-0.484375 0.109375 -1.15625 0.109375zm10.364136 -7.984375l0 7.84375l-0.984375 0l-0.171875 -1.109375l-0.0625 0q-0.234375 0.421875 -0.625 0.703125q-0.390625 0.265625 -0.875 0.40625q-0.484375 0.140625 -1.015625 0.140625q-0.9375 0 -1.578125 -0.296875q-0.625 -0.296875 -0.9375 -0.921875q-0.3125 -0.640625 -0.3125 -1.625l0 -5.140625l1.203125 0l0 5.046875q0 0.984375 0.4375 1.46875q0.4375 0.484375 1.359375 0.484375q0.859375 0 1.375 -0.328125q0.53125 -0.328125 0.75 -0.96875q0.234375 -0.640625 0.234375 -1.578125l0 -4.125l1.203125 0zm5.0352783 7.015625q0.296875 0 0.59375 -0.046875q0.3125 -0.0625 0.515625 -0.125l0 0.921875q-0.203125 0.09375 -0.578125 0.15625q-0.375 0.0625 -0.71875 0.0625q-0.625 0 -1.140625 -0.21875q-0.5 -0.21875 -0.8125 -0.734375q-0.296875 -0.53125 -0.296875 -1.453125l0 -4.640625l-1.109375 0l0 -0.59375l1.125 -0.453125l0.46875 -1.703125l0.71875 0l0 1.8125l2.296875 0l0 0.9375l-2.296875 0l0 4.609375q0 0.734375 0.328125 1.109375q0.34375 0.359375 0.90625 0.359375zm5.7085266 -7.15625q1.015625 0 1.71875 0.453125q0.71875 0.4375 1.09375 1.234375q0.390625 0.796875 0.390625 1.859375l0 0.734375l-5.421875 0q0.015625 1.390625 0.6875 2.109375q0.671875 0.71875 1.875 0.71875q0.75 0 1.3125 -0.125q0.578125 -0.140625 1.1875 -0.40625l0 1.046875q-0.59375 0.265625 -1.171875 0.375q-0.578125 0.125 -1.375 0.125q-1.140625 0 -1.984375 -0.453125q-0.828125 -0.46875 -1.296875 -1.359375q-0.46875 -0.890625 -0.46875 -2.1875q0 -1.265625 0.421875 -2.1875q0.4375 -0.9375 1.203125 -1.4375q0.78125 -0.5 1.828125 -0.5zm0 0.96875q-0.953125 0 -1.53125 0.625q-0.5625 0.625 -0.671875 1.734375l4.15625 0q0 -0.703125 -0.21875 -1.234375q-0.203125 -0.53125 -0.640625 -0.828125q-0.421875 -0.296875 -1.09375 -0.296875zm10.292328 4.875q0 0.75 -0.375 1.265625q-0.375 0.5 -1.078125 0.765625q-0.703125 0.25 -1.65625 0.25q-0.828125 0 -1.4375 -0.125q-0.59375 -0.125 -1.046875 -0.359375l0 -1.109375q0.484375 0.25 1.140625 0.4375q0.671875 0.1875 1.359375 0.1875q1.03125 0 1.484375 -0.328125q0.453125 -0.328125 0.453125 -0.890625q0 -0.328125 -0.1875 -0.5625q-0.171875 -0.25 -0.609375 -0.484375q-0.421875 -0.234375 -1.1875 -0.515625q-0.75 -0.28125 -1.296875 -0.5625q-0.546875 -0.28125 -0.84375 -0.6875q-0.296875 -0.421875 -0.296875 -1.0625q0 -1.0 0.796875 -1.53125q0.8125 -0.53125 2.125 -0.53125q0.703125 0 1.328125 0.140625q0.625 0.140625 1.15625 0.375l-0.40625 0.953125q-0.484375 -0.21875 -1.03125 -0.359375q-0.546875 -0.140625 -1.125 -0.140625q-0.828125 0 -1.265625 0.28125q-0.4375 0.265625 -0.4375 0.734375q0 0.375 0.203125 0.609375q0.203125 0.234375 0.65625 0.4375q0.453125 0.203125 1.1875 0.484375q0.734375 0.28125 1.265625 0.578125q0.546875 0.28125 0.828125 0.6875q0.296875 0.40625 0.296875 1.0625z" fill-rule="nonzero"/><path fill="#000000" fill-opacity="0.0" d="m282.6089 62.930428l0 25.0l186.23624 0l0 -24.937008" fill-rule="evenodd"/><path stroke="#000000" stroke-width="1.0" stroke-linejoin="round" stroke-linecap="butt" d="m282.60892 62.930428l0 25.0l186.23618 0l0 -21.509918" fill-rule="evenodd"/><path fill="#000000" stroke="#000000" stroke-width="1.0" stroke-linecap="butt" d="m468.8451 66.4205l1.1246033 1.124588l-1.1246033 -3.0897675l-1.1245728 3.0897675z" fill-rule="evenodd"/><path fill="#000000" fill-opacity="0.0" d="m82.74013 62.93174l0 21.98558l186.23622 0l0 -21.922588" fill-rule="evenodd"/><path stroke="#000000" stroke-width="1.0" stroke-linejoin="round" stroke-linecap="butt" d="m82.740135 62.93174l0 21.98558l186.2362 0l0 -18.495499" fill-rule="evenodd"/><path fill="#000000" stroke="#000000" stroke-width="1.0" stroke-linecap="butt" d="m268.97635 66.421814l1.1246033 1.124588l-1.1246033 -3.0897675l-1.1245728 3.0897675z" fill-rule="evenodd"/><path fill="#000000" fill-opacity="0.0" d="m506.49323 64.39606l0 35.30709" fill-rule="evenodd"/><path stroke="#000000" stroke-width="1.0" stroke-linejoin="round" stroke-linecap="butt" d="m506.49323 67.82315l0 28.452911" fill-rule="evenodd"/><path fill="#000000" stroke="#000000" stroke-width="1.0" stroke-linecap="butt" d="m506.49323 67.82314l1.1246033 1.124588l-1.1246033 -3.0897675l-1.1245728 3.0897675z" fill-rule="evenodd"/><path fill="#000000" stroke="#000000" stroke-width="1.0" stroke-linecap="butt" d="m506.49323 96.27606l-1.1245728 -1.124588l1.1245728 3.0897675l1.1246033 -3.0897675z" fill-rule="evenodd"/></g></svg>