<svg version="1.1" viewBox="0.0 0.0 251.11023622047244 456.6666666666667" fill="none" stroke="none" stroke-linecap="square" stroke-miterlimit="10" xmlns:xlink="http://www.w3.org/1999/xlink" xmlns="http://www.w3.org/2000/svg"><clipPath id="p.0"><path d="m0 0l251.11023 0l0 456.66666l-251.11023 0l0 -456.66666z" clip-rule="nonzero"/></clipPath><g clip-path="url(#p.0)"><path fill="#000000" fill-opacity="0.0" d="m0 0l251.11023 0l0 456.66666l-251.11023 0z" fill-rule="evenodd"/><path fill="#efefef" d="m7.7637844 16.85845l0 0c0 -5.0561876 4.0988503 -9.155038 9.155039 -9.155038l191.4852 0c2.42807 0 4.7566833 0.9645462 6.473587 2.681449c1.7169037 1.7169027 2.6814575 4.0455227 2.6814575 6.473589l0 36.619057c0 5.0561867 -4.0988617 9.155037 -9.155045 9.155037l-191.4852 0c-5.0561886 0 -9.155039 -4.0988503 -9.155039 -9.155037z" fill-rule="evenodd"/><path stroke="#ad182b" stroke-width="2.0" stroke-linejoin="round" stroke-linecap="butt" d="m7.7637844 16.85845l0 0c0 -5.0561876 4.0988503 -9.155038 9.155039 -9.155038l191.4852 0c2.42807 0 4.7566833 0.9645462 6.473587 2.681449c1.7169037 1.7169027 2.6814575 4.0455227 2.6814575 6.473589l0 36.619057c0 5.0561867 -4.0988617 9.155037 -9.155045 9.155037l-191.4852 0c-5.0561886 0 -9.155039 -4.0988503 -9.155039 -9.155037z" fill-rule="evenodd"/><path fill="#000000" d="m66.37847 41.30798q-0.1875 0 -0.296875 -0.109375q-0.109375 -0.109375 -0.109375 -0.296875l0 -11.328127q0 -0.171875 0.109375 -0.28125q0.109375 -0.109375 0.296875 -0.109375l0.921875 0q0.1875 0 0.28125 0.109375q0.109375 0.109375 0.109375 0.28125l0 11.328127q0 0.1875 -0.109375 0.296875q-0.09375 0.109375 -0.28125 0.109375l-0.921875 0zm4.511795 0q-0.1875 0 -0.296875 -0.109375q-0.109375 -0.109375 -0.109375 -0.296875l0 -8.203125q0 -0.171875 0.109375 -0.28125q0.109375 -0.125 0.296875 -0.125l0.8125 0q0.171875 0 0.28125 0.125q0.109375 0.109375 0.109375 0.28125l0 0.765625q0.453125 -0.59375 1.140625 -0.96875q0.6875 -0.375 1.75 -0.375q1.125 0 1.90625 0.5q0.796875 0.484375 1.203125 1.359375q0.421875 0.875 0.421875 2.046875l0 4.875q0 0.1875 -0.125 0.296875q-0.109375 0.109375 -0.28125 0.109375l-0.859375 0q-0.1875 0 -0.296875 -0.109375q-0.109375 -0.109375 -0.109375 -0.296875l0 -4.796875q0 -1.203125 -0.59375 -1.890625q-0.578125 -0.6875 -1.734375 -0.6875q-1.0625 0 -1.71875 0.6875q-0.640625 0.6875 -0.640625 1.890625l0 4.796875q0 0.1875 -0.125 0.296875q-0.109375 0.109375 -0.28125 0.109375l-0.859375 0zm10.500778 0q-0.1875 0 -0.296875 -0.109375q-0.109375 -0.109375 -0.109375 -0.296875l0 -8.203125q0 -0.171875 0.109375 -0.28125q0.109375 -0.125 0.296875 -0.125l0.828125 0q0.171875 0 0.28125 0.125q0.109375 0.109375 0.109375 0.28125l0 8.203125q0 0.1875 -0.109375 0.296875q-0.109375 0.109375 -0.28125 0.109375l-0.828125 0zm-0.140625 -10.687502q-0.171875 0 -0.296875 -0.109375q-0.109375 -0.125 -0.109375 -0.296875l0 -0.9375q0 -0.171875 0.109375 -0.28125q0.125 -0.125 0.296875 -0.125l1.09375 0q0.171875 0 0.28125 0.125q0.125 0.109375 0.125 0.28125l0 0.9375q0 0.171875 -0.125 0.296875q-0.109375 0.109375 -0.28125 0.109375l-1.09375 0zm7.4433746 10.687502q-0.96875 0 -1.578125 -0.375q-0.609375 -0.375 -0.890625 -1.046875q-0.265625 -0.6875 -0.265625 -1.625l0 -4.578125l-1.359375 0q-0.171875 0 -0.28125 -0.109375q-0.109375 -0.109375 -0.109375 -0.28125l0 -0.59375q0 -0.171875 0.109375 -0.28125q0.109375 -0.125 0.28125 -0.125l1.359375 0l0 -2.890627q0 -0.171875 0.109375 -0.28125q0.109375 -0.109375 0.28125 -0.109375l0.828125 0q0.171875 0 0.28125 0.109375q0.109375 0.109375 0.109375 0.28125l0 2.890627l2.15625 0q0.1875 0 0.28125 0.125q0.109375 0.109375 0.109375 0.28125l0 0.59375q0 0.171875 -0.109375 0.28125q-0.09375 0.109375 -0.28125 0.109375l-2.15625 0l0 4.453125q0 0.8125 0.28125 1.28125q0.28125 0.46875 0.984375 0.46875l1.0625 0q0.171875 0 0.28125 0.109375q0.109375 0.109375 0.109375 0.296875l0 0.609375q0 0.1875 -0.109375 0.296875q-0.109375 0.109375 -0.28125 0.109375l-1.203125 0zm3.6658783 0q-0.1875 0 -0.296875 -0.109375q-0.109375 -0.109375 -0.109375 -0.296875l0 -8.203125q0 -0.171875 0.109375 -0.28125q0.109375 -0.125 0.296875 -0.125l0.828125 0q0.171875 0 0.28125 0.125q0.109375 0.109375 0.109375 0.28125l0 8.203125q0 0.1875 -0.109375 0.296875q-0.109375 0.109375 -0.28125 0.109375l-0.828125 0zm-0.140625 -10.687502q-0.171875 0 -0.296875 -0.109375q-0.109375 -0.125 -0.109375 -0.296875l0 -0.9375q0 -0.171875 0.109375 -0.28125q0.125 -0.125 0.296875 -0.125l1.09375 0q0.171875 0 0.28125 0.125q0.125 0.109375 0.125 0.28125l0 0.9375q0 0.171875 -0.125 0.296875q-0.109375 0.109375 -0.28125 0.109375l-1.09375 0zm6.4433746 10.859377q-0.875 0 -1.59375 -0.34375q-0.703125 -0.34375 -1.140625 -0.9375q-0.421875 -0.59375 -0.421875 -1.328125q0 -1.203125 0.96875 -1.90625q0.96875 -0.71875 2.53125 -0.9375l2.578125 -0.375l0 -0.5q0 -0.828125 -0.484375 -1.296875q-0.46875 -0.46875 -1.53125 -0.46875q-0.765625 0 -1.25 0.3125q-0.484375 0.3125 -0.6875 0.796875q-0.09375 0.265625 -0.359375 0.265625l-0.78125 0q-0.1875 0 -0.28125 -0.109375q-0.09375 -0.125 -0.09375 -0.28125q0 -0.25 0.1875 -0.625q0.203125 -0.390625 0.625 -0.75q0.421875 -0.375 1.0625 -0.625q0.65625 -0.25 1.59375 -0.25q1.03125 0 1.734375 0.28125q0.71875 0.265625 1.125 0.71875q0.40625 0.4375 0.59375 1.015625q0.1875 0.5625 0.1875 1.15625l0 5.609375q0 0.1875 -0.125 0.296875q-0.109375 0.109375 -0.28125 0.109375l-0.796875 0q-0.1875 0 -0.296875 -0.109375q-0.09375 -0.109375 -0.09375 -0.296875l0 -0.734375q-0.234375 0.3125 -0.625 0.625q-0.375 0.296875 -0.953125 0.5q-0.5625 0.1875 -1.390625 0.1875zm0.359375 -1.296875q0.71875 0 1.296875 -0.296875q0.59375 -0.3125 0.921875 -0.953125q0.34375 -0.640625 0.34375 -1.609375l0 -0.484375l-2.0 0.296875q-1.234375 0.171875 -1.859375 0.578125q-0.625 0.40625 -0.625 1.03125q0 0.484375 0.28125 0.8125q0.296875 0.3125 0.734375 0.46875q0.4375 0.15625 0.90625 0.15625zm7.1119385 1.125q-0.171875 0 -0.296875 -0.109375q-0.109375 -0.109375 -0.109375 -0.296875l0 -11.500002q0 -0.171875 0.109375 -0.28125q0.125 -0.109375 0.296875 -0.109375l0.8125 0q0.1875 0 0.28125 0.109375q0.109375 0.109375 0.109375 0.28125l0 11.500002q0 0.1875 -0.109375 0.296875q-0.09375 0.109375 -0.28125 0.109375l-0.8125 0zm12.159195 0.171875q-1.5 0 -2.53125 -0.46875q-1.015625 -0.46875 -1.5625 -1.203125q-0.546875 -0.734375 -0.578125 -1.546875q0 -0.140625 0.109375 -0.25q0.109375 -0.109375 0.265625 -0.109375l0.890625 0q0.203125 0 0.296875 0.109375q0.109375 0.09375 0.140625 0.234375q0.109375 0.40625 0.4375 0.8125q0.328125 0.40625 0.9375 0.6875q0.625 0.265625 1.59375 0.265625q1.484375 0 2.1875 -0.53125q0.703125 -0.53125 0.703125 -1.40625q0 -0.609375 -0.375 -0.984375q-0.359375 -0.375 -1.125 -0.671875q-0.765625 -0.296875 -1.984375 -0.640625q-1.265625 -0.359375 -2.09375 -0.796875q-0.828125 -0.4375 -1.234375 -1.078125q-0.40625 -0.640625 -0.40625 -1.625q0 -0.9375019 0.5 -1.6718769q0.5 -0.734375 1.453125 -1.15625q0.953125 -0.4375 2.28125 -0.4375q1.078125 0 1.875 0.28125q0.8125 0.28125 1.34375 0.765625q0.546875 0.46875 0.828125 1.015625q0.28125 0.546875 0.296875 1.0625019q0 0.125 -0.09375 0.25q-0.078125 0.109375 -0.28125 0.109375l-0.90625 0q-0.125 0 -0.265625 -0.0625q-0.125 -0.078125 -0.1875 -0.28125q-0.109375 -0.7031269 -0.8125 -1.1875019q-0.6875 -0.484375 -1.796875 -0.484375q-1.125 0 -1.828125 0.4375q-0.6875 0.421875 -0.6875 1.3437519q0 0.59375 0.328125 0.984375q0.328125 0.390625 1.03125 0.6875q0.71875 0.28125 1.859375 0.609375q1.390625 0.390625 2.265625 0.8125q0.890625 0.421875 1.3125 1.0625q0.421875 0.625 0.421875 1.609375q0 1.09375 -0.578125 1.875q-0.5625 0.765625 -1.59375 1.171875q-1.03125 0.40625 -2.4375 0.40625zm10.262398 0q-1.8124924 0 -2.8749924 -1.09375q-1.046875 -1.109375 -1.15625 -3.015625q-0.015625 -0.21875 -0.015625 -0.578125q0 -0.359375 0.015625 -0.578125q0.078125 -1.234375 0.578125 -2.15625q0.5 -0.921875 1.375 -1.421875q0.875 -0.515625 2.0624924 -0.515625q1.3125 0 2.203125 0.5625q0.890625 0.546875 1.359375 1.578125q0.46875 1.015625 0.46875 2.390625l0 0.296875q0 0.1875 -0.109375 0.296875q-0.109375 0.09375 -0.28125 0.09375l-5.9999924 0q0 0.015625 0 0.078125q0 0.046875 0 0.078125q0.03125 0.703125 0.3125 1.328125q0.28125 0.609375 0.796875 1.0q0.53125 0.375 1.2499924 0.375q0.625 0 1.03125 -0.1875q0.421875 -0.1875 0.671875 -0.421875q0.265625 -0.234375 0.359375 -0.375q0.15625 -0.203125 0.234375 -0.25q0.09375 -0.046875 0.28125 -0.046875l0.84375 0q0.15625 0 0.265625 0.09375q0.125 0.09375 0.09375 0.265625q-0.015625 0.265625 -0.28125 0.640625q-0.25 0.375 -0.734375 0.734375q-0.46875 0.359375 -1.171875 0.59375q-0.703125 0.234375 -1.578125 0.234375zm-2.3749924 -5.328125l4.7499924 0l0 -0.0625q0 -0.78125 -0.296875 -1.375q-0.28125 -0.609375 -0.828125 -0.96875q-0.53125 -0.359375 -1.265625 -0.359375q-0.7499924 0 -1.2812424 0.359375q-0.53125 0.359375 -0.8125 0.96875q-0.265625 0.59375 -0.265625 1.375l0 0.0625zm11.93293 5.15625q-0.96875 0 -1.578125 -0.375q-0.609375 -0.375 -0.890625 -1.046875q-0.265625 -0.6875 -0.265625 -1.625l0 -4.578125l-1.359375 0q-0.171875 0 -0.28125 -0.109375q-0.109375 -0.109375 -0.109375 -0.28125l0 -0.59375q0 -0.171875 0.109375 -0.28125q0.109375 -0.125 0.28125 -0.125l1.359375 0l0 -2.890627q0 -0.171875 0.109375 -0.28125q0.109375 -0.109375 0.28125 -0.109375l0.828125 0q0.171875 0 0.28125 0.109375q0.109375 0.109375 0.109375 0.28125l0 2.890627l2.15625 0q0.1875 0 0.28125 0.125q0.109375 0.109375 0.109375 0.28125l0 0.59375q0 0.171875 -0.109375 0.28125q-0.09375 0.109375 -0.28125 0.109375l-2.15625 0l0 4.453125q0 0.8125 0.28125 1.28125q0.28125 0.46875 0.984375 0.46875l1.0625 0q0.171875 0 0.28125 0.109375q0.109375 0.109375 0.109375 0.296875l0 0.609375q0 0.1875 -0.109375 0.296875q-0.109375 0.109375 -0.28125 0.109375l-1.203125 0zm6.6190186 0.171875q-1.109375 0 -1.875 -0.484375q-0.765625 -0.5 -1.171875 -1.375q-0.390625 -0.890625 -0.390625 -2.03125l0 -4.890625q0 -0.171875 0.109375 -0.28125q0.109375 -0.125 0.28125 -0.125l0.859375 0q0.1875 0 0.296875 0.125q0.109375 0.109375 0.109375 0.28125l0 4.796875q0 2.578125 2.25 2.578125q1.078125 0 1.71875 -0.671875q0.65625 -0.6875 0.65625 -1.90625l0 -4.796875q0 -0.171875 0.109375 -0.28125q0.125 -0.125 0.296875 -0.125l0.859375 0q0.171875 0 0.265625 0.125q0.109375 0.109375 0.109375 0.28125l0 8.203125q0 0.1875 -0.109375 0.296875q-0.09375 0.109375 -0.265625 0.109375l-0.8125 0q-0.171875 0 -0.296875 -0.109375q-0.109375 -0.109375 -0.109375 -0.296875l0 -0.75q-0.46875 0.609375 -1.140625 0.96875q-0.65625 0.359375 -1.75 0.359375zm7.4939575 3.125q-0.171875 0 -0.296875 -0.125q-0.109375 -0.109375 -0.109375 -0.28125l0 -11.5q0 -0.171875 0.109375 -0.28125q0.125 -0.125 0.296875 -0.125l0.796875 0q0.171875 0 0.28125 0.125q0.109375 0.109375 0.109375 0.28125l0 0.765625q0.421875 -0.578125 1.109375 -0.953125q0.703125 -0.390625 1.734375 -0.390625q0.96875 0 1.65625 0.328125q0.6875 0.328125 1.125 0.90625q0.4375 0.578125 0.65625 1.3125q0.234375 0.71875 0.265625 1.546875q0.03125 0.28125 0.03125 0.59375q0 0.3125 -0.03125 0.578125q-0.03125 0.8125 -0.265625 1.5625q-0.21875 0.734375 -0.65625 1.296875q-0.4375 0.5625 -1.125 0.90625q-0.6875 0.328125 -1.65625 0.328125q-1.0 0 -1.6875 -0.375q-0.6875 -0.375 -1.125 -0.921875l0 4.015625q0 0.171875 -0.109375 0.28125q-0.09375 0.125 -0.265625 0.125l-0.84375 0zm3.671875 -4.53125q0.890625 0 1.40625 -0.390625q0.515625 -0.390625 0.734375 -1.015625q0.234375 -0.640625 0.265625 -1.359375q0.015625 -0.5 0 -1.0q-0.03125 -0.734375 -0.265625 -1.359375q-0.21875 -0.640625 -0.734375 -1.03125q-0.515625 -0.390625 -1.40625 -0.390625q-0.859375 0 -1.390625 0.40625q-0.515625 0.390625 -0.765625 1.015625q-0.25 0.609375 -0.296875 1.25q-0.015625 0.28125 -0.015625 0.65625q0 0.375 0.015625 0.671875q0.03125 0.609375 0.296875 1.203125q0.265625 0.578125 0.796875 0.96875q0.546875 0.375 1.359375 0.375z" fill-rule="nonzero"/><path fill="#efefef" d="m7.7637844 111.924065l0 0c0 -5.056183 4.0988503 -9.155037 9.155039 -9.155037l191.4852 0c2.42807 0 4.7566833 0.9645462 6.473587 2.68145c1.7169037 1.7169037 2.6814575 4.0455246 2.6814575 6.473587l0 36.619057c0 5.056198 -4.0988617 9.155045 -9.155045 9.155045l-191.4852 0c-5.0561886 0 -9.155039 -4.0988464 -9.155039 -9.155045z" fill-rule="evenodd"/><path stroke="#ad182b" stroke-width="2.0" stroke-linejoin="round" stroke-linecap="butt" d="m7.7637844 111.924065l0 0c0 -5.056183 4.0988503 -9.155037 9.155039 -9.155037l191.4852 0c2.42807 0 4.7566833 0.9645462 6.473587 2.68145c1.7169037 1.7169037 2.6814575 4.0455246 2.6814575 6.473587l0 36.619057c0 5.056198 -4.0988617 9.155045 -9.155045 9.155045l-191.4852 0c-5.0561886 0 -9.155039 -4.0988464 -9.155039 -9.155045z" fill-rule="evenodd"/><path fill="#000000" d="m95.56753 136.3736q-0.1875 0 -0.296875 -0.109375q-0.109375 -0.109375 -0.109375 -0.296875l0 -11.3125q0 -0.1875 0.109375 -0.296875q0.109375 -0.109375 0.296875 -0.109375l7.0625 0q0.203125 0 0.3125 0.109375q0.109375 0.109375 0.109375 0.296875l0 0.703125q0 0.1875 -0.109375 0.296875q-0.109375 0.09375 -0.3125 0.09375l-5.78125 0l0 4.046875l5.4375 0q0.1875 0 0.296875 0.109375q0.125 0.109375 0.125 0.296875l0 0.703125q0 0.171875 -0.125 0.28125q-0.109375 0.109375 -0.296875 0.109375l-5.4375 0l0 4.671875q0 0.1875 -0.109375 0.296875q-0.109375 0.109375 -0.3125 0.109375l-0.859375 0zm12.663269 0.171875q-1.109375 0 -1.875 -0.484375q-0.765625 -0.5 -1.171875 -1.375q-0.390625 -0.890625 -0.390625 -2.03125l0 -4.890625q0 -0.171875 0.109375 -0.28125q0.109375 -0.125 0.28125 -0.125l0.859375 0q0.1875 0 0.296875 0.125q0.109375 0.109375 0.109375 0.28125l0 4.796875q0 2.578125 2.25 2.578125q1.078125 0 1.71875 -0.671875q0.65625 -0.6875 0.65625 -1.90625l0 -4.796875q0 -0.171875 0.109375 -0.28125q0.125 -0.125 0.296875 -0.125l0.859375 0q0.171875 0 0.265625 0.125q0.109375 0.109375 0.109375 0.28125l0 8.203125q0 0.1875 -0.109375 0.296875q-0.09375 0.109375 -0.265625 0.109375l-0.8125 0q-0.171875 0 -0.296875 -0.109375q-0.109375 -0.109375 -0.109375 -0.296875l0 -0.75q-0.46875 0.609375 -1.140625 0.96875q-0.65625 0.359375 -1.75 0.359375zm6.900223 -0.171875q-0.171875 0 -0.296875 -0.109375q-0.109375 -0.109375 -0.109375 -0.296875l0 -0.59375q0 -0.15625 0.078125 -0.296875q0.078125 -0.140625 0.171875 -0.265625l4.78125 -6.078125l-4.46875 0q-0.171875 0 -0.296875 -0.09375q-0.109375 -0.109375 -0.109375 -0.3125l0 -0.5625q0 -0.171875 0.109375 -0.28125q0.125 -0.125 0.296875 -0.125l6.171875 0q0.171875 0 0.28125 0.125q0.109375 0.109375 0.109375 0.28125l0 0.640625q0 0.15625 -0.078125 0.28125q-0.078125 0.109375 -0.15625 0.25l-4.734375 6.0625l4.921875 0q0.1875 0 0.28125 0.109375q0.109375 0.109375 0.109375 0.296875l0 0.5625q0 0.1875 -0.109375 0.296875q-0.09375 0.109375 -0.28125 0.109375l-6.671875 0zm8.819962 0q-0.171875 0 -0.296875 -0.109375q-0.109375 -0.109375 -0.109375 -0.296875l0 -0.59375q0 -0.15625 0.078125 -0.296875q0.078125 -0.140625 0.171875 -0.265625l4.7812424 -6.078125l-4.4687424 0q-0.171875 0 -0.296875 -0.09375q-0.109375 -0.109375 -0.109375 -0.3125l0 -0.5625q0 -0.171875 0.109375 -0.28125q0.125 -0.125 0.296875 -0.125l6.1718674 0q0.171875 0 0.28125 0.125q0.109375 0.109375 0.109375 0.28125l0 0.640625q0 0.15625 -0.078125 0.28125q-0.078125 0.109375 -0.15625 0.25l-4.7343674 6.0625l4.9218674 0q0.1875 0 0.28125 0.109375q0.109375 0.109375 0.109375 0.296875l0 0.5625q0 0.1875 -0.109375 0.296875q-0.09375 0.109375 -0.28125 0.109375l-6.6718674 0z" fill-rule="nonzero"/><path fill="#efefef" d="m7.763785 206.98969l0 0c0 -5.056183 4.0988507 -9.155045 9.155039 -9.155045l191.4852 0c2.42807 0 4.7566833 0.96455383 6.473587 2.6814575c1.7169037 1.7169037 2.6814575 4.045517 2.6814575 6.473587l0 36.61905c0 5.056198 -4.0988617 9.155045 -9.155045 9.155045l-191.4852 0c-5.0561876 0 -9.155039 -4.0988464 -9.155039 -9.155045z" fill-rule="evenodd"/><path stroke="#ad182b" stroke-width="2.0" stroke-linejoin="round" stroke-linecap="butt" d="m7.763785 206.98969l0 0c0 -5.056183 4.0988507 -9.155045 9.155039 -9.155045l191.4852 0c2.42807 0 4.7566833 0.96455383 6.473587 2.6814575c1.7169037 1.7169037 2.6814575 4.045517 2.6814575 6.473587l0 36.61905c0 5.056198 -4.0988617 9.155045 -9.155045 9.155045l-191.4852 0c-5.0561876 0 -9.155039 -4.0988464 -9.155039 -9.155045z" fill-rule="evenodd"/><path fill="#000000" d="m57.853165 220.93921q-0.1875 0 -0.296875 -0.109375q-0.109375 -0.109375 -0.109375 -0.296875l0 -11.3125q0 -0.1875 0.109375 -0.296875q0.109375 -0.109375 0.296875 -0.109375l7.15625 0q0.1875 0 0.296875 0.109375q0.109375 0.109375 0.109375 0.296875l0 0.65625q0 0.203125 -0.109375 0.3125q-0.109375 0.09375 -0.296875 0.09375l-5.890625 0l0 3.796875l5.515625 0q0.1875 0 0.28125 0.109375q0.109375 0.109375 0.109375 0.296875l0 0.640625q0 0.1875 -0.109375 0.296875q-0.09375 0.109375 -0.28125 0.109375l-5.515625 0l0 3.9375l6.03125 0q0.1875 0 0.28125 0.109375q0.109375 0.09375 0.109375 0.28125l0 0.671875q0 0.1875 -0.109375 0.296875q-0.09375 0.109375 -0.28125 0.109375l-7.296875 0zm12.756409 0q-0.265625 0 -0.421875 -0.125q-0.140625 -0.125 -0.21875 -0.3125l-3.203125 -8.03125q-0.046875 -0.09375 -0.046875 -0.171875q0 -0.15625 0.109375 -0.265625q0.109375 -0.109375 0.265625 -0.109375l0.828125 0q0.1875 0 0.28125 0.109375q0.109375 0.109375 0.15625 0.1875l2.625 6.828125l2.640625 -6.828125q0.03125 -0.078125 0.125 -0.1875q0.09375 -0.109375 0.28125 -0.109375l0.859375 0q0.140625 0 0.25 0.109375q0.109375 0.109375 0.109375 0.265625q0 0.078125 -0.03125 0.171875l-3.21875 8.03125q-0.078125 0.1875 -0.234375 0.3125q-0.140625 0.125 -0.421875 0.125l-0.734375 0zm8.628067 0.171875q-0.875 0 -1.59375 -0.34375q-0.703125 -0.34375 -1.140625 -0.9375q-0.421875 -0.59375 -0.421875 -1.328125q0 -1.203125 0.96875 -1.90625q0.96875 -0.71875 2.53125 -0.9375l2.578125 -0.375l0 -0.5q0 -0.828125 -0.484375 -1.296875q-0.46875 -0.46875 -1.53125 -0.46875q-0.765625 0 -1.25 0.3125q-0.484375 0.3125 -0.6875 0.796875q-0.09375 0.265625 -0.359375 0.265625l-0.78125 0q-0.1875 0 -0.28125 -0.109375q-0.09375 -0.125 -0.09375 -0.28125q0 -0.25 0.1875 -0.625q0.203125 -0.390625 0.625 -0.75q0.421875 -0.375 1.0625 -0.625q0.65625 -0.25 1.59375 -0.25q1.03125 0 1.734375 0.28125q0.71875 0.265625 1.125 0.71875q0.40625 0.4375 0.59375 1.015625q0.1875 0.5625 0.1875 1.15625l0 5.609375q0 0.1875 -0.125 0.296875q-0.109375 0.109375 -0.28125 0.109375l-0.796875 0q-0.1875 0 -0.296875 -0.109375q-0.09375 -0.109375 -0.09375 -0.296875l0 -0.734375q-0.234375 0.3125 -0.625 0.625q-0.375 0.296875 -0.953125 0.5q-0.5625 0.1875 -1.390625 0.1875zm0.359375 -1.296875q0.71875 0 1.296875 -0.296875q0.59375 -0.3125 0.921875 -0.953125q0.34375 -0.640625 0.34375 -1.609375l0 -0.484375l-2.0 0.296875q-1.234375 0.171875 -1.859375 0.578125q-0.625 0.40625 -0.625 1.03125q0 0.484375 0.28125 0.8125q0.296875 0.3125 0.734375 0.46875q0.4375 0.15625 0.90625 0.15625zm7.1119385 1.125q-0.171875 0 -0.296875 -0.109375q-0.109375 -0.109375 -0.109375 -0.296875l0 -11.5q0 -0.171875 0.109375 -0.28125q0.125 -0.109375 0.296875 -0.109375l0.8125 0q0.1875 0 0.28125 0.109375q0.109375 0.109375 0.109375 0.28125l0 11.5q0 0.1875 -0.109375 0.296875q-0.09375 0.109375 -0.28125 0.109375l-0.8125 0zm7.1482086 0.171875q-1.109375 0 -1.875 -0.484375q-0.765625 -0.5 -1.171875 -1.375q-0.390625 -0.890625 -0.390625 -2.03125l0 -4.890625q0 -0.171875 0.109375 -0.28125q0.109375 -0.125 0.28125 -0.125l0.859375 0q0.1875 0 0.296875 0.125q0.109375 0.109375 0.109375 0.28125l0 4.796875q0 2.578125 2.25 2.578125q1.078125 0 1.71875 -0.671875q0.65625 -0.6875 0.65625 -1.90625l0 -4.796875q0 -0.171875 0.109375 -0.28125q0.125 -0.125 0.296875 -0.125l0.859375 0q0.171875 0 0.265625 0.125q0.109375 0.109375 0.109375 0.28125l0 8.203125q0 0.1875 -0.109375 0.296875q-0.09375 0.109375 -0.265625 0.109375l-0.8125 0q-0.171875 0 -0.296875 -0.109375q-0.109375 -0.109375 -0.109375 -0.296875l0 -0.75q-0.46875 0.609375 -1.140625 0.96875q-0.65625 0.359375 -1.75 0.359375zm9.587723 0q-0.875 0 -1.59375 -0.34375q-0.703125 -0.34375 -1.140625 -0.9375q-0.421875 -0.59375 -0.421875 -1.328125q0 -1.203125 0.96875 -1.90625q0.96875 -0.71875 2.53125 -0.9375l2.578125 -0.375l0 -0.5q0 -0.828125 -0.484375 -1.296875q-0.46875 -0.46875 -1.53125 -0.46875q-0.765625 0 -1.25 0.3125q-0.484375 0.3125 -0.6875 0.796875q-0.09375 0.265625 -0.359375 0.265625l-0.78125 0q-0.1875 0 -0.28125 -0.109375q-0.09375 -0.125 -0.09375 -0.28125q0 -0.25 0.1875 -0.625q0.203125 -0.390625 0.625 -0.75q0.421875 -0.375 1.0625 -0.625q0.65625 -0.25 1.59375 -0.25q1.03125 0 1.734375 0.28125q0.71875 0.265625 1.125 0.71875q0.40625 0.4375 0.59375 1.015625q0.1875 0.5625 0.1875 1.15625l0 5.609375q0 0.1875 -0.125 0.296875q-0.109375 0.109375 -0.28125 0.109375l-0.796875 0q-0.1875 0 -0.296875 -0.109375q-0.09375 -0.109375 -0.09375 -0.296875l0 -0.734375q-0.234375 0.3125 -0.625 0.625q-0.375 0.296875 -0.953125 0.5q-0.5625 0.1875 -1.390625 0.1875zm0.359375 -1.296875q0.71875 0 1.296875 -0.296875q0.59375 -0.3125 0.921875 -0.953125q0.34375 -0.640625 0.34375 -1.609375l0 -0.484375l-2.0 0.296875q-1.234375 0.171875 -1.859375 0.578125q-0.625 0.40625 -0.625 1.03125q0 0.484375 0.28125 0.8125q0.296875 0.3125 0.734375 0.46875q0.4375 0.15625 0.90625 0.15625zm10.119019 1.125q-0.96875 0 -1.578125 -0.375q-0.609375 -0.375 -0.890625 -1.046875q-0.265625 -0.6875 -0.265625 -1.625l0 -4.578125l-1.359375 0q-0.171875 0 -0.28125 -0.109375q-0.109375 -0.109375 -0.109375 -0.28125l0 -0.59375q0 -0.171875 0.109375 -0.28125q0.109375 -0.125 0.28125 -0.125l1.359375 0l0 -2.890625q0 -0.171875 0.109375 -0.28125q0.109375 -0.109375 0.28125 -0.109375l0.828125 0q0.171875 0 0.28125 0.109375q0.109375 0.109375 0.109375 0.28125l0 2.890625l2.15625 0q0.1875 0 0.28125 0.125q0.109375 0.109375 0.109375 0.28125l0 0.59375q0 0.171875 -0.109375 0.28125q-0.09375 0.109375 -0.28125 0.109375l-2.15625 0l0 4.453125q0 0.8125 0.28125 1.28125q0.28125 0.46875 0.984375 0.46875l1.0625 0q0.171875 0 0.28125 0.109375q0.109375 0.109375 0.109375 0.296875l0 0.609375q0 0.1875 -0.109375 0.296875q-0.109375 0.109375 -0.28125 0.109375l-1.203125 0zm6.8690033 0.171875q-1.8125 0 -2.875 -1.09375q-1.046875 -1.109375 -1.15625 -3.015625q-0.015625 -0.21875 -0.015625 -0.578125q0 -0.359375 0.015625 -0.578125q0.078125 -1.234375 0.578125 -2.15625q0.5 -0.921875 1.375 -1.421875q0.875 -0.515625 2.0625 -0.515625q1.3125 0 2.203125 0.5625q0.890625 0.546875 1.359375 1.578125q0.46875 1.015625 0.46875 2.390625l0 0.296875q0 0.1875 -0.109375 0.296875q-0.109375 0.09375 -0.28125 0.09375l-6.0 0q0 0.015625 0 0.078125q0 0.046875 0 0.078125q0.03125 0.703125 0.3125 1.328125q0.28125 0.609375 0.796875 1.0q0.53125 0.375 1.25 0.375q0.625 0 1.03125 -0.1875q0.421875 -0.1875 0.671875 -0.421875q0.265625 -0.234375 0.359375 -0.375q0.15625 -0.203125 0.234375 -0.25q0.09375 -0.046875 0.28125 -0.046875l0.84375 0q0.15625 0 0.265625 0.09375q0.125 0.09375 0.09375 0.265625q-0.015625 0.265625 -0.28125 0.640625q-0.25 0.375 -0.734375 0.734375q-0.46875 0.359375 -1.171875 0.59375q-0.703125 0.234375 -1.578125 0.234375zm-2.375 -5.328125l4.75 0l0 -0.0625q0 -0.78125 -0.296875 -1.375q-0.28125 -0.609375 -0.828125 -0.96875q-0.53125 -0.359375 -1.265625 -0.359375q-0.75 0 -1.28125 0.359375q-0.53125 0.359375 -0.8125 0.96875q-0.265625 0.59375 -0.265625 1.375l0 0.0625zm16.3553 5.328125q-1.234375 0 -2.125 -0.46875q-0.890625 -0.484375 -1.375 -1.375q-0.484375 -0.890625 -0.515625 -2.140625q-0.015625 -0.265625 -0.015625 -0.6875q0 -0.4375 0.015625 -0.703125q0.03125 -1.25 0.515625 -2.140625q0.484375 -0.890625 1.375 -1.359375q0.890625 -0.484375 2.125 -0.484375q1.0 0 1.71875 0.28125q0.71875 0.28125 1.1875 0.71875q0.46875 0.421875 0.703125 0.921875q0.234375 0.5 0.25 0.953125q0.015625 0.171875 -0.109375 0.28125q-0.109375 0.109375 -0.28125 0.109375l-0.828125 0q-0.1875 0 -0.28125 -0.078125q-0.078125 -0.078125 -0.15625 -0.265625q-0.3125 -0.859375 -0.859375 -1.203125q-0.53125 -0.34375 -1.328125 -0.34375q-1.03125 0 -1.6875 0.640625q-0.65625 0.640625 -0.703125 2.0625q-0.015625 0.625 0 1.203125q0.046875 1.453125 0.703125 2.078125q0.65625 0.625 1.6875 0.625q0.796875 0 1.328125 -0.34375q0.546875 -0.34375 0.859375 -1.1875q0.078125 -0.1875 0.15625 -0.28125q0.09375 -0.09375 0.28125 -0.09375l0.828125 0q0.171875 0 0.28125 0.125q0.125 0.109375 0.109375 0.28125q-0.015625 0.359375 -0.15625 0.75q-0.140625 0.375 -0.4375 0.765625q-0.296875 0.390625 -0.75 0.703125q-0.453125 0.296875 -1.078125 0.484375q-0.625 0.171875 -1.4375 0.171875zm9.611938 0q-1.3125 0 -2.203125 -0.5q-0.875 -0.5 -1.34375 -1.390625q-0.46875 -0.890625 -0.515625 -2.046875q-0.015625 -0.296875 -0.015625 -0.75q0 -0.453125 0.015625 -0.734375q0.046875 -1.15625 0.515625 -2.03125q0.484375 -0.890625 1.359375 -1.390625q0.890625 -0.515625 2.1875 -0.515625q1.296875 0 2.1875 0.515625q0.890625 0.5 1.359375 1.390625q0.484375 0.875 0.53125 2.03125q0.015625 0.28125 0.015625 0.734375q0 0.453125 -0.015625 0.75q-0.046875 1.15625 -0.515625 2.046875q-0.46875 0.890625 -1.359375 1.390625q-0.875 0.5 -2.203125 0.5zm0 -1.328125q1.078125 0 1.71875 -0.6875q0.640625 -0.6875 0.6875 -2.0q0.03125 -0.265625 0.03125 -0.65625q0 -0.40625 -0.03125 -0.65625q-0.046875 -1.328125 -0.6875 -2.0q-0.640625 -0.6875 -1.71875 -0.6875q-1.0625 0 -1.71875 0.6875q-0.65625 0.671875 -0.6875 2.0q-0.015625 0.25 -0.015625 0.65625q0 0.390625 0.015625 0.65625q0.03125 1.3125 0.6875 2.0q0.65625 0.6875 1.71875 0.6875zm9.555664 1.328125q-0.953125 0 -1.65625 -0.328125q-0.6875 -0.34375 -1.125 -0.921875q-0.4375 -0.578125 -0.65625 -1.328125q-0.21875 -0.75 -0.25 -1.578125q-0.03125 -0.28125 -0.03125 -0.515625q0 -0.25 0.03125 -0.53125q0.03125 -0.8125 0.25 -1.546875q0.21875 -0.75 0.65625 -1.34375q0.4375 -0.59375 1.125 -0.921875q0.703125 -0.34375 1.65625 -0.34375q1.015625 0 1.6875 0.375q0.6875 0.359375 1.109375 0.890625l0 -3.984375q0 -0.171875 0.109375 -0.28125q0.125 -0.109375 0.296875 -0.109375l0.828125 0q0.171875 0 0.28125 0.109375q0.125 0.109375 0.125 0.28125l0 11.5q0 0.1875 -0.125 0.296875q-0.109375 0.109375 -0.28125 0.109375l-0.78125 0q-0.1875 0 -0.296875 -0.109375q-0.09375 -0.109375 -0.09375 -0.296875l0 -0.71875q-0.4375 0.546875 -1.140625 0.921875q-0.6875 0.375 -1.71875 0.375zm0.359375 -1.40625q0.875 0 1.390625 -0.390625q0.515625 -0.40625 0.765625 -1.015625q0.265625 -0.609375 0.28125 -1.265625q0.03125 -0.265625 0.03125 -0.65625q0 -0.390625 -0.03125 -0.671875q-0.015625 -0.609375 -0.28125 -1.1875q-0.265625 -0.59375 -0.796875 -0.96875q-0.53125 -0.390625 -1.359375 -0.390625q-0.875 0 -1.40625 0.390625q-0.515625 0.390625 -0.75 1.03125q-0.21875 0.625 -0.25 1.359375q-0.015625 0.5 0 1.0q0.03125 0.71875 0.25 1.359375q0.234375 0.625 0.75 1.015625q0.53125 0.390625 1.40625 0.390625zm10.263306 1.40625q-1.8125 0 -2.875 -1.09375q-1.046875 -1.109375 -1.15625 -3.015625q-0.015625 -0.21875 -0.015625 -0.578125q0 -0.359375 0.015625 -0.578125q0.078125 -1.234375 0.578125 -2.15625q0.5 -0.921875 1.375 -1.421875q0.875 -0.515625 2.0625 -0.515625q1.3125 0 2.203125 0.5625q0.890625 0.546875 1.359375 1.578125q0.46875 1.015625 0.46875 2.390625l0 0.296875q0 0.1875 -0.109375 0.296875q-0.109375 0.09375 -0.28125 0.09375l-6.0 0q0 0.015625 0 0.078125q0 0.046875 0 0.078125q0.03125 0.703125 0.3125 1.328125q0.28125 0.609375 0.796875 1.0q0.53125 0.375 1.25 0.375q0.625 0 1.03125 -0.1875q0.421875 -0.1875 0.671875 -0.421875q0.265625 -0.234375 0.359375 -0.375q0.15625 -0.203125 0.234375 -0.25q0.09375 -0.046875 0.28125 -0.046875l0.84375 0q0.15625 0 0.265625 0.09375q0.125 0.09375 0.09375 0.265625q-0.015625 0.265625 -0.28125 0.640625q-0.25 0.375 -0.734375 0.734375q-0.46875 0.359375 -1.171875 0.59375q-0.703125 0.234375 -1.578125 0.234375zm-2.375 -5.328125l4.75 0l0 -0.0625q0 -0.78125 -0.296875 -1.375q-0.28125 -0.609375 -0.828125 -0.96875q-0.53125 -0.359375 -1.265625 -0.359375q-0.75 0 -1.28125 0.359375q-0.53125 0.359375 -0.8125 0.96875q-0.265625 0.59375 -0.265625 1.375l0 0.0625z" fill-rule="nonzero"/><path fill="#000000" d="m26.230078 242.11108q-1.234375 0 -2.125 -0.46875q-0.890625 -0.484375 -1.375 -1.375q-0.484375 -0.890625 -0.515625 -2.140625q-0.015625 -0.265625 -0.015625 -0.6875q0 -0.4375 0.015625 -0.703125q0.03125 -1.25 0.515625 -2.140625q0.484375 -0.890625 1.375 -1.359375q0.890625 -0.484375 2.125 -0.484375q1.0 0 1.71875 0.28125q0.71875 0.28125 1.1875 0.71875q0.46875 0.421875 0.703125 0.921875q0.234375 0.5 0.25 0.953125q0.015625 0.171875 -0.109375 0.28125q-0.109375 0.109375 -0.28125 0.109375l-0.828125 0q-0.1875 0 -0.28125 -0.078125q-0.078125 -0.078125 -0.15625 -0.265625q-0.3125 -0.859375 -0.859375 -1.203125q-0.53125 -0.34375 -1.328125 -0.34375q-1.03125 0 -1.6875 0.640625q-0.65625 0.640625 -0.703125 2.0625q-0.015625 0.625 0 1.203125q0.046875 1.453125 0.703125 2.078125q0.65625 0.625 1.6875 0.625q0.796875 0 1.328125 -0.34375q0.546875 -0.34375 0.859375 -1.1875q0.078125 -0.1875 0.15625 -0.28125q0.09375 -0.09375 0.28125 -0.09375l0.828125 0q0.171875 0 0.28125 0.125q0.125 0.109375 0.109375 0.28125q-0.015625 0.359375 -0.15625 0.75q-0.140625 0.375 -0.4375 0.765625q-0.296875 0.390625 -0.75 0.703125q-0.453125 0.296875 -1.078125 0.484375q-0.625 0.171875 -1.4375 0.171875zm9.61194 0q-1.3125 0 -2.203125 -0.5q-0.875 -0.5 -1.34375 -1.390625q-0.4687519 -0.890625 -0.5156269 -2.046875q-0.015625 -0.296875 -0.015625 -0.75q0 -0.453125 0.015625 -0.734375q0.046875 -1.15625 0.5156269 -2.03125q0.484375 -0.890625 1.359375 -1.390625q0.890625 -0.515625 2.1875 -0.515625q1.296875 0 2.1875 0.515625q0.890625 0.5 1.359375 1.390625q0.484375 0.875 0.53125 2.03125q0.015625 0.28125 0.015625 0.734375q0 0.453125 -0.015625 0.75q-0.046875 1.15625 -0.515625 2.046875q-0.46875 0.890625 -1.359375 1.390625q-0.875 0.5 -2.203125 0.5zm0 -1.328125q1.078125 0 1.71875 -0.6875q0.640625 -0.6875 0.6875 -2.0q0.03125 -0.265625 0.03125 -0.65625q0 -0.40625 -0.03125 -0.65625q-0.046875 -1.328125 -0.6875 -2.0q-0.640625 -0.6875 -1.71875 -0.6875q-1.0625 0 -1.71875 0.6875q-0.65625 0.671875 -0.6875 2.0q-0.015625 0.25 -0.015625 0.65625q0 0.390625 0.015625 0.65625q0.03125 1.3125 0.6875 2.0q0.65625 0.6875 1.71875 0.6875zm9.070084 1.15625q-0.265625 0 -0.421875 -0.125q-0.140625 -0.125 -0.21875 -0.3125l-3.203125 -8.03125q-0.046875 -0.09375 -0.046875 -0.171875q0 -0.15625 0.109375 -0.265625q0.109375 -0.109375 0.265625 -0.109375l0.828125 0q0.1875 0 0.28125 0.109375q0.109375 0.109375 0.15625 0.1875l2.625 6.828125l2.640625 -6.828125q0.03125 -0.078125 0.125 -0.1875q0.09375 -0.109375 0.28125 -0.109375l0.859375 0q0.140625 0 0.25 0.109375q0.109375 0.109375 0.109375 0.265625q0 0.078125 -0.03125 0.171875l-3.21875 8.03125q-0.078125 0.1875 -0.234375 0.3125q-0.140625 0.125 -0.421875 0.125l-0.734375 0zm9.739151 0.171875q-1.8125 0 -2.875 -1.09375q-1.046875 -1.109375 -1.15625 -3.015625q-0.015625 -0.21875 -0.015625 -0.578125q0 -0.359375 0.015625 -0.578125q0.078125 -1.234375 0.578125 -2.15625q0.5 -0.921875 1.375 -1.421875q0.875 -0.515625 2.0625 -0.515625q1.3125 0 2.203125 0.5625q0.890625 0.546875 1.359375 1.578125q0.46875 1.015625 0.46875 2.390625l0 0.296875q0 0.1875 -0.109375 0.296875q-0.109375 0.09375 -0.28125 0.09375l-6.0 0q0 0.015625 0 0.078125q0 0.046875 0 0.078125q0.03125 0.703125 0.3125 1.328125q0.28125 0.609375 0.796875 1.0q0.53125 0.375 1.25 0.375q0.625 0 1.03125 -0.1875q0.421875 -0.1875 0.671875 -0.421875q0.265625 -0.234375 0.359375 -0.375q0.15625 -0.203125 0.234375 -0.25q0.09375 -0.046875 0.28125 -0.046875l0.84375 0q0.15625 0 0.265625 0.09375q0.125 0.09375 0.09375 0.265625q-0.015625 0.265625 -0.28125 0.640625q-0.25 0.375 -0.734375 0.734375q-0.46875 0.359375 -1.171875 0.59375q-0.703125 0.234375 -1.578125 0.234375zm-2.375 -5.328125l4.75 0l0 -0.0625q0 -0.78125 -0.296875 -1.375q-0.28125 -0.609375 -0.828125 -0.96875q-0.53125 -0.359375 -1.265625 -0.359375q-0.75 0 -1.28125 0.359375q-0.53125 0.359375 -0.8125 0.96875q-0.265625 0.59375 -0.265625 1.375l0 0.0625zm8.875565 5.15625q-0.1875 0 -0.296875 -0.109375q-0.109375 -0.109375 -0.109375 -0.296875l0 -8.1875q0 -0.171875 0.109375 -0.296875q0.109375 -0.125 0.296875 -0.125l0.796875 0q0.171875 0 0.28125 0.125q0.125 0.125 0.125 0.296875l0 0.765625q0.34375 -0.59375 0.953125 -0.890625q0.609375 -0.296875 1.46875 -0.296875l0.6875 0q0.171875 0 0.28125 0.125q0.109375 0.109375 0.109375 0.28125l0 0.703125q0 0.171875 -0.109375 0.28125q-0.109375 0.109375 -0.28125 0.109375l-1.046875 0q-0.9375 0 -1.46875 0.546875q-0.53125 0.546875 -0.53125 1.46875l0 5.09375q0 0.1875 -0.125 0.296875q-0.125 0.109375 -0.296875 0.109375l-0.84375 0zm8.555359 0.171875q-0.875 0 -1.59375 -0.34375q-0.703125 -0.34375 -1.140625 -0.9375q-0.421875 -0.59375 -0.421875 -1.328125q0 -1.203125 0.96875 -1.90625q0.96875 -0.71875 2.53125 -0.9375l2.578125 -0.375l0 -0.5q0 -0.828125 -0.484375 -1.296875q-0.46875 -0.46875 -1.53125 -0.46875q-0.765625 0 -1.25 0.3125q-0.484375 0.3125 -0.6875 0.796875q-0.09375 0.265625 -0.359375 0.265625l-0.78125 0q-0.1875 0 -0.28125 -0.109375q-0.09375 -0.125 -0.09375 -0.28125q0 -0.25 0.1875 -0.625q0.203125 -0.390625 0.625 -0.75q0.421875 -0.375 1.0625 -0.625q0.65625 -0.25 1.59375 -0.25q1.03125 0 1.734375 0.28125q0.71875 0.265625 1.125 0.71875q0.40625 0.4375 0.59375 1.015625q0.1875 0.5625 0.1875 1.15625l0 5.609375q0 0.1875 -0.125 0.296875q-0.109375 0.109375 -0.28125 0.109375l-0.796875 0q-0.1875 0 -0.296875 -0.109375q-0.09375 -0.109375 -0.09375 -0.296875l0 -0.734375q-0.234375 0.3125 -0.625 0.625q-0.375 0.296875 -0.953125 0.5q-0.5625 0.1875 -1.390625 0.1875zm0.359375 -1.296875q0.71875 0 1.296875 -0.296875q0.59375 -0.3125 0.921875 -0.953125q0.34375 -0.640625 0.34375 -1.609375l0 -0.484375l-2.0 0.296875q-1.234375 0.171875 -1.859375 0.578125q-0.625 0.40625 -0.625 1.03125q0 0.484375 0.28125 0.8125q0.296875 0.3125 0.734375 0.46875q0.4375 0.15625 0.90625 0.15625zm10.377563 4.9375q-1.171875 0 -1.9375 -0.3125q-0.75 -0.3125 -1.171875 -0.765625q-0.421875 -0.4375 -0.609375 -0.875q-0.171875 -0.4375 -0.1875 -0.703125q-0.015625 -0.171875 0.109375 -0.296875q0.125 -0.109375 0.28125 -0.109375l0.828125 0q0.15625 0 0.265625 0.0625q0.109375 0.078125 0.171875 0.296875q0.109375 0.265625 0.3125 0.578125q0.203125 0.328125 0.640625 0.5625q0.4375 0.234375 1.21875 0.234375q0.8125 0 1.359375 -0.234375q0.5625 -0.21875 0.84375 -0.765625q0.28125 -0.53125 0.28125 -1.484375l0 -1.171875q-0.40625 0.53125 -1.09375 0.890625q-0.671875 0.34375 -1.6875 0.34375q-0.96875 0 -1.671875 -0.328125q-0.6875 -0.34375 -1.125 -0.921875q-0.4375 -0.578125 -0.65625 -1.3125q-0.21875 -0.75 -0.25 -1.578125q-0.03125 -0.484375 0 -0.953125q0.03125 -0.8125 0.25 -1.546875q0.21875 -0.75 0.65625 -1.34375q0.4375 -0.59375 1.125 -0.921875q0.703125 -0.34375 1.671875 -0.34375q1.03125 0 1.71875 0.390625q0.6875 0.375 1.125 0.953125l0 -0.75q0 -0.171875 0.109375 -0.296875q0.109375 -0.125 0.28125 -0.125l0.796875 0q0.171875 0 0.296875 0.125q0.125 0.125 0.125 0.296875l0 8.40625q0 1.15625 -0.390625 2.046875q-0.390625 0.90625 -1.28125 1.421875q-0.890625 0.53125 -2.40625 0.53125zm-0.03125 -5.125q0.875 0 1.390625 -0.390625q0.53125 -0.40625 0.78125 -1.015625q0.25 -0.609375 0.265625 -1.234375q0.03125 -0.234375 0.03125 -0.59375q0 -0.359375 -0.03125 -0.59375q-0.015625 -0.625 -0.265625 -1.234375q-0.25 -0.609375 -0.78125 -1.0q-0.515625 -0.40625 -1.390625 -0.40625q-0.859375 0 -1.390625 0.390625q-0.515625 0.390625 -0.75 1.03125q-0.21875 0.625 -0.25 1.359375q-0.015625 0.4375 0 0.90625q0.03125 0.734375 0.25 1.375q0.234375 0.625 0.75 1.015625q0.53125 0.390625 1.390625 0.390625zm10.297958 1.484375q-1.8125 0 -2.875 -1.09375q-1.046875 -1.109375 -1.15625 -3.015625q-0.015625 -0.21875 -0.015625 -0.578125q0 -0.359375 0.015625 -0.578125q0.078125 -1.234375 0.578125 -2.15625q0.5 -0.921875 1.375 -1.421875q0.875 -0.515625 2.0625 -0.515625q1.3125 0 2.203125 0.5625q0.890625 0.546875 1.359375 1.578125q0.46875 1.015625 0.46875 2.390625l0 0.296875q0 0.1875 -0.109375 0.296875q-0.109375 0.09375 -0.28125 0.09375l-6.0 0q0 0.015625 0 0.078125q0 0.046875 0 0.078125q0.03125 0.703125 0.3125 1.328125q0.28125 0.609375 0.796875 1.0q0.53125 0.375 1.25 0.375q0.625 0 1.03125 -0.1875q0.421875 -0.1875 0.671875 -0.421875q0.265625 -0.234375 0.359375 -0.375q0.15625 -0.203125 0.234375 -0.25q0.09375 -0.046875 0.28125 -0.046875l0.84375 0q0.15625 0 0.265625 0.09375q0.125 0.09375 0.09375 0.265625q-0.015625 0.265625 -0.28125 0.640625q-0.25 0.375 -0.734375 0.734375q-0.46875 0.359375 -1.171875 0.59375q-0.703125 0.234375 -1.578125 0.234375zm-2.375 -5.328125l4.75 0l0 -0.0625q0 -0.78125 -0.296875 -1.375q-0.28125 -0.609375 -0.828125 -0.96875q-0.53125 -0.359375 -1.265625 -0.359375q-0.75 0 -1.28125 0.359375q-0.53125 0.359375 -0.8125 0.96875q-0.265625 0.59375 -0.265625 1.375l0 0.0625zm16.07405 5.328125q-1.109375 0 -1.875 -0.484375q-0.765625 -0.5 -1.171875 -1.375q-0.390625 -0.890625 -0.390625 -2.03125l0 -4.890625q0 -0.171875 0.109375 -0.28125q0.109375 -0.125 0.28125 -0.125l0.859375 0q0.1875 0 0.296875 0.125q0.109375 0.109375 0.109375 0.28125l0 4.796875q0 2.578125 2.25 2.578125q1.078125 0 1.71875 -0.671875q0.65625 -0.6875 0.65625 -1.90625l0 -4.796875q0 -0.171875 0.109375 -0.28125q0.125 -0.125 0.296875 -0.125l0.859375 0q0.171875 0 0.265625 0.125q0.109375 0.109375 0.109375 0.28125l0 8.203125q0 0.1875 -0.109375 0.296875q-0.09375 0.109375 -0.265625 0.109375l-0.8125 0q-0.171875 0 -0.296875 -0.109375q-0.109375 -0.109375 -0.109375 -0.296875l0 -0.75q-0.46875 0.609375 -1.140625 0.96875q-0.65625 0.359375 -1.75 0.359375zm10.197098 0q-0.96875 0 -1.671875 -0.234375q-0.6875 -0.25 -1.125 -0.59375q-0.4375 -0.34375 -0.65625 -0.6875q-0.203125 -0.359375 -0.21875 -0.5625q-0.03125 -0.1875 0.109375 -0.28125q0.140625 -0.109375 0.28125 -0.109375l0.78125 0q0.09375 0 0.140625 0.03125q0.0625 0.015625 0.171875 0.140625q0.21875 0.234375 0.5 0.484375q0.28125 0.234375 0.6875 0.390625q0.40625 0.15625 1.015625 0.15625q0.875 0 1.453125 -0.328125q0.578125 -0.34375 0.578125 -1.0q0 -0.4375 -0.234375 -0.6875q-0.234375 -0.265625 -0.84375 -0.46875q-0.59375 -0.21875 -1.625 -0.4375q-1.046875 -0.25 -1.65625 -0.59375q-0.609375 -0.359375 -0.875 -0.84375q-0.25 -0.5 -0.25 -1.125q0 -0.640625 0.375 -1.234375q0.390625 -0.609375 1.125 -0.984375q0.734375 -0.390625 1.84375 -0.390625q0.90625 0 1.546875 0.234375q0.640625 0.21875 1.046875 0.5625q0.421875 0.328125 0.625 0.65625q0.21875 0.328125 0.234375 0.5625q0.015625 0.171875 -0.109375 0.28125q-0.125 0.109375 -0.28125 0.109375l-0.71875 0q-0.125 0 -0.203125 -0.046875q-0.078125 -0.046875 -0.140625 -0.125q-0.171875 -0.21875 -0.40625 -0.4375q-0.234375 -0.234375 -0.609375 -0.375q-0.375 -0.15625 -0.984375 -0.15625q-0.859375 0 -1.296875 0.375q-0.4375 0.359375 -0.4375 0.90625q0 0.328125 0.1875 0.59375q0.203125 0.265625 0.734375 0.46875q0.53125 0.203125 1.59375 0.453125q1.140625 0.21875 1.796875 0.609375q0.671875 0.375 0.9375 0.875q0.28125 0.5 0.28125 1.15625q0 0.734375 -0.421875 1.34375q-0.40625 0.609375 -1.25 0.96875q-0.828125 0.34375 -2.03125 0.34375zm6.1185455 -0.171875q-0.1875 0 -0.296875 -0.109375q-0.109375 -0.109375 -0.109375 -0.296875l0 -8.203125q0 -0.171875 0.109375 -0.28125q0.109375 -0.125 0.296875 -0.125l0.828125 0q0.171875 0 0.28125 0.125q0.109375 0.109375 0.109375 0.28125l0 8.203125q0 0.1875 -0.109375 0.296875q-0.109375 0.109375 -0.28125 0.109375l-0.828125 0zm-0.140625 -10.6875q-0.171875 0 -0.296875 -0.109375q-0.109375 -0.125 -0.109375 -0.296875l0 -0.9375q0 -0.171875 0.109375 -0.28125q0.125 -0.125 0.296875 -0.125l1.09375 0q0.171875 0 0.28125 0.125q0.125 0.109375 0.125 0.28125l0 0.9375q0 0.171875 -0.125 0.296875q-0.109375 0.109375 -0.28125 0.109375l-1.09375 0zm4.3339996 10.6875q-0.1875 0 -0.296875 -0.109375q-0.109375 -0.109375 -0.109375 -0.296875l0 -8.203125q0 -0.171875 0.109375 -0.28125q0.109375 -0.125 0.296875 -0.125l0.8125 0q0.171875 0 0.28125 0.125q0.109375 0.109375 0.109375 0.28125l0 0.765625q0.453125 -0.59375 1.140625 -0.96875q0.6875 -0.375 1.7499924 -0.375q1.125 0 1.90625 0.5q0.796875 0.484375 1.203125 1.359375q0.421875 0.875 0.421875 2.046875l0 4.875q0 0.1875 -0.125 0.296875q-0.109375 0.109375 -0.28125 0.109375l-0.859375 0q-0.1875 0 -0.296875 -0.109375q-0.109375 -0.109375 -0.109375 -0.296875l0 -4.796875q0 -1.203125 -0.59375 -1.890625q-0.578125 -0.6875 -1.734375 -0.6875q-1.0624924 0 -1.7187424 0.6875q-0.640625 0.6875 -0.640625 1.890625l0 4.796875q0 0.1875 -0.125 0.296875q-0.109375 0.109375 -0.28125 0.109375l-0.859375 0zm13.782021 3.8125q-1.171875 0 -1.9375 -0.3125q-0.75 -0.3125 -1.171875 -0.765625q-0.421875 -0.4375 -0.609375 -0.875q-0.171875 -0.4375 -0.1875 -0.703125q-0.015625 -0.171875 0.109375 -0.296875q0.125 -0.109375 0.28125 -0.109375l0.828125 0q0.15625 0 0.265625 0.0625q0.109375 0.078125 0.171875 0.296875q0.109375 0.265625 0.3125 0.578125q0.203125 0.328125 0.640625 0.5625q0.4375 0.234375 1.21875 0.234375q0.8125 0 1.359375 -0.234375q0.5625 -0.21875 0.84375 -0.765625q0.28125 -0.53125 0.28125 -1.484375l0 -1.171875q-0.40625 0.53125 -1.09375 0.890625q-0.671875 0.34375 -1.6875 0.34375q-0.96875 0 -1.671875 -0.328125q-0.6875 -0.34375 -1.125 -0.921875q-0.4375 -0.578125 -0.65625 -1.3125q-0.21875 -0.75 -0.25 -1.578125q-0.03125 -0.484375 0 -0.953125q0.03125 -0.8125 0.25 -1.546875q0.21875 -0.75 0.65625 -1.34375q0.4375 -0.59375 1.125 -0.921875q0.703125 -0.34375 1.671875 -0.34375q1.03125 0 1.71875 0.390625q0.6875 0.375 1.125 0.953125l0 -0.75q0 -0.171875 0.109375 -0.296875q0.109375 -0.125 0.28125 -0.125l0.796875 0q0.171875 0 0.296875 0.125q0.125 0.125 0.125 0.296875l0 8.40625q0 1.15625 -0.390625 2.046875q-0.390625 0.90625 -1.28125 1.421875q-0.890625 0.53125 -2.40625 0.53125zm-0.03125 -5.125q0.875 0 1.390625 -0.390625q0.53125 -0.40625 0.78125 -1.015625q0.25 -0.609375 0.265625 -1.234375q0.03125 -0.234375 0.03125 -0.59375q0 -0.359375 -0.03125 -0.59375q-0.015625 -0.625 -0.265625 -1.234375q-0.25 -0.609375 -0.78125 -1.0q-0.515625 -0.40625 -1.390625 -0.40625q-0.859375 0 -1.390625 0.390625q-0.515625 0.390625 -0.75 1.03125q-0.21875 0.625 -0.25 1.359375q-0.015625 0.4375 0 0.90625q0.03125 0.734375 0.25 1.375q0.234375 0.625 0.75 1.015625q0.53125 0.390625 1.390625 0.390625zm14.574585 1.484375q-1.234375 0 -2.125 -0.46875q-0.890625 -0.484375 -1.375 -1.375q-0.484375 -0.890625 -0.515625 -2.140625q-0.015625 -0.265625 -0.015625 -0.6875q0 -0.4375 0.015625 -0.703125q0.03125 -1.25 0.515625 -2.140625q0.484375 -0.890625 1.375 -1.359375q0.890625 -0.484375 2.125 -0.484375q1.0 0 1.71875 0.28125q0.71875 0.28125 1.1875 0.71875q0.46875 0.421875 0.703125 0.921875q0.234375 0.5 0.25 0.953125q0.015625 0.171875 -0.109375 0.28125q-0.109375 0.109375 -0.28125 0.109375l-0.828125 0q-0.1875 0 -0.28125 -0.078125q-0.078125 -0.078125 -0.15625 -0.265625q-0.3125 -0.859375 -0.859375 -1.203125q-0.53125 -0.34375 -1.328125 -0.34375q-1.03125 0 -1.6875 0.640625q-0.65625 0.640625 -0.703125 2.0625q-0.015625 0.625 0 1.203125q0.046875 1.453125 0.703125 2.078125q0.65625 0.625 1.6875 0.625q0.796875 0 1.328125 -0.34375q0.546875 -0.34375 0.859375 -1.1875q0.078125 -0.1875 0.15625 -0.28125q0.09375 -0.09375 0.28125 -0.09375l0.828125 0q0.171875 0 0.28125 0.125q0.125 0.109375 0.109375 0.28125q-0.015625 0.359375 -0.15625 0.75q-0.140625 0.375 -0.4375 0.765625q-0.296875 0.390625 -0.75 0.703125q-0.453125 0.296875 -1.078125 0.484375q-0.625 0.171875 -1.4375 0.171875zm9.611938 0q-1.3125 0 -2.203125 -0.5q-0.875 -0.5 -1.34375 -1.390625q-0.46875 -0.890625 -0.515625 -2.046875q-0.015625 -0.296875 -0.015625 -0.75q0 -0.453125 0.015625 -0.734375q0.046875 -1.15625 0.515625 -2.03125q0.484375 -0.890625 1.359375 -1.390625q0.890625 -0.515625 2.1875 -0.515625q1.296875 0 2.1875 0.515625q0.890625 0.5 1.359375 1.390625q0.484375 0.875 0.53125 2.03125q0.015625 0.28125 0.015625 0.734375q0 0.453125 -0.015625 0.75q-0.046875 1.15625 -0.515625 2.046875q-0.46875 0.890625 -1.359375 1.390625q-0.875 0.5 -2.203125 0.5zm0 -1.328125q1.078125 0 1.71875 -0.6875q0.640625 -0.6875 0.6875 -2.0q0.03125 -0.265625 0.03125 -0.65625q0 -0.40625 -0.03125 -0.65625q-0.046875 -1.328125 -0.6875 -2.0q-0.640625 -0.6875 -1.71875 -0.6875q-1.0625 0 -1.71875 0.6875q-0.65625 0.671875 -0.6875 2.0q-0.015625 0.25 -0.015625 0.65625q0 0.390625 0.015625 0.65625q0.03125 1.3125 0.6875 2.0q0.65625 0.6875 1.71875 0.6875zm6.665039 1.15625q-0.1875 0 -0.296875 -0.109375q-0.109375 -0.109375 -0.109375 -0.296875l0 -8.1875q0 -0.171875 0.109375 -0.296875q0.109375 -0.125 0.296875 -0.125l0.796875 0q0.171875 0 0.28125 0.125q0.125 0.125 0.125 0.296875l0 0.765625q0.34375 -0.59375 0.953125 -0.890625q0.609375 -0.296875 1.46875 -0.296875l0.6875 0q0.171875 0 0.28125 0.125q0.109375 0.109375 0.109375 0.28125l0 0.703125q0 0.171875 -0.109375 0.28125q-0.109375 0.109375 -0.28125 0.109375l-1.046875 0q-0.9375 0 -1.46875 0.546875q-0.53125 0.546875 -0.53125 1.46875l0 5.09375q0 0.1875 -0.125 0.296875q-0.125 0.109375 -0.296875 0.109375l-0.84375 0zm6.600281 3.296875q-0.171875 0 -0.296875 -0.125q-0.109375 -0.109375 -0.109375 -0.28125l0 -11.5q0 -0.171875 0.109375 -0.28125q0.125 -0.125 0.296875 -0.125l0.796875 0q0.171875 0 0.28125 0.125q0.109375 0.109375 0.109375 0.28125l0 0.765625q0.421875 -0.578125 1.109375 -0.953125q0.703125 -0.390625 1.734375 -0.390625q0.96875 0 1.65625 0.328125q0.6875 0.328125 1.125 0.90625q0.4375 0.578125 0.65625 1.3125q0.234375 0.71875 0.265625 1.546875q0.03125 0.28125 0.03125 0.59375q0 0.3125 -0.03125 0.578125q-0.03125 0.8125 -0.265625 1.5625q-0.21875 0.734375 -0.65625 1.296875q-0.4375 0.5625 -1.125 0.90625q-0.6875 0.328125 -1.65625 0.328125q-1.0 0 -1.6875 -0.375q-0.6875 -0.375 -1.125 -0.921875l0 4.015625q0 0.171875 -0.109375 0.28125q-0.09375 0.125 -0.265625 0.125l-0.84375 0zm3.671875 -4.53125q0.890625 0 1.40625 -0.390625q0.515625 -0.390625 0.734375 -1.015625q0.234375 -0.640625 0.265625 -1.359375q0.015625 -0.5 0 -1.0q-0.03125 -0.734375 -0.265625 -1.359375q-0.21875 -0.640625 -0.734375 -1.03125q-0.515625 -0.390625 -1.40625 -0.390625q-0.859375 0 -1.390625 0.40625q-0.515625 0.390625 -0.765625 1.015625q-0.25 0.609375 -0.296875 1.25q-0.015625 0.28125 -0.015625 0.65625q0 0.375 0.015625 0.671875q0.03125 0.609375 0.296875 1.203125q0.265625 0.578125 0.796875 0.96875q0.546875 0.375 1.359375 0.375zm9.593109 1.40625q-1.109375 0 -1.875 -0.484375q-0.765625 -0.5 -1.171875 -1.375q-0.390625 -0.890625 -0.390625 -2.03125l0 -4.890625q0 -0.171875 0.109375 -0.28125q0.109375 -0.125 0.28125 -0.125l0.859375 0q0.1875 0 0.296875 0.125q0.109375 0.109375 0.109375 0.28125l0 4.796875q0 2.578125 2.25 2.578125q1.078125 0 1.71875 -0.671875q0.65625 -0.6875 0.65625 -1.90625l0 -4.796875q0 -0.171875 0.109375 -0.28125q0.125 -0.125 0.296875 -0.125l0.859375 0q0.171875 0 0.265625 0.125q0.109375 0.109375 0.109375 0.28125l0 8.203125q0 0.1875 -0.109375 0.296875q-0.09375 0.109375 -0.265625 0.109375l-0.8125 0q-0.171875 0 -0.296875 -0.109375q-0.109375 -0.109375 -0.109375 -0.296875l0 -0.75q-0.46875 0.609375 -1.140625 0.96875q-0.65625 0.359375 -1.75 0.359375zm10.197113 0q-0.96875 0 -1.671875 -0.234375q-0.6875 -0.25 -1.125 -0.59375q-0.4375 -0.34375 -0.65625 -0.6875q-0.203125 -0.359375 -0.21875 -0.5625q-0.03125 -0.1875 0.109375 -0.28125q0.140625 -0.109375 0.28125 -0.109375l0.78125 0q0.09375 0 0.140625 0.03125q0.0625 0.015625 0.171875 0.140625q0.21875 0.234375 0.5 0.484375q0.28125 0.234375 0.6875 0.390625q0.40625 0.15625 1.015625 0.15625q0.875 0 1.453125 -0.328125q0.578125 -0.34375 0.578125 -1.0q0 -0.4375 -0.234375 -0.6875q-0.234375 -0.265625 -0.84375 -0.46875q-0.59375 -0.21875 -1.625 -0.4375q-1.046875 -0.25 -1.65625 -0.59375q-0.609375 -0.359375 -0.875 -0.84375q-0.25 -0.5 -0.25 -1.125q0 -0.640625 0.375 -1.234375q0.390625 -0.609375 1.125 -0.984375q0.734375 -0.390625 1.84375 -0.390625q0.90625 0 1.546875 0.234375q0.640625 0.21875 1.046875 0.5625q0.421875 0.328125 0.625 0.65625q0.21875 0.328125 0.234375 0.5625q0.015625 0.171875 -0.109375 0.28125q-0.125 0.109375 -0.28125 0.109375l-0.71875 0q-0.125 0 -0.203125 -0.046875q-0.078125 -0.046875 -0.140625 -0.125q-0.171875 -0.21875 -0.40625 -0.4375q-0.234375 -0.234375 -0.609375 -0.375q-0.375 -0.15625 -0.984375 -0.15625q-0.859375 0 -1.296875 0.375q-0.4375 0.359375 -0.4375 0.90625q0 0.328125 0.1875 0.59375q0.203125 0.265625 0.734375 0.46875q0.53125 0.203125 1.59375 0.453125q1.140625 0.21875 1.796875 0.609375q0.671875 0.375 0.9375 0.875q0.28125 0.5 0.28125 1.15625q0 0.734375 -0.421875 1.34375q-0.40625 0.609375 -1.25 0.96875q-0.828125 0.34375 -2.03125 0.34375z" fill-rule="nonzero"/><path fill="#efefef" d="m7.7637844 398.75085l0 0c0 -5.0562134 4.0988503 -9.15506 9.155039 -9.15506l191.4852 0c2.42807 0 4.7566833 0.9645386 6.473587 2.6814575c1.7169037 1.7168884 2.6814575 4.045532 2.6814575 6.4736023l0 36.61905c0 5.056183 -4.0988617 9.155029 -9.155045 9.155029l-191.4852 0c-5.0561886 0 -9.155039 -4.0988464 -9.155039 -9.155029z" fill-rule="evenodd"/><path stroke="#ad182b" stroke-width="2.0" stroke-linejoin="round" stroke-linecap="butt" d="m7.7637844 398.75085l0 0c0 -5.0562134 4.0988503 -9.15506 9.155039 -9.15506l191.4852 0c2.42807 0 4.7566833 0.9645386 6.473587 2.6814575c1.7169037 1.7168884 2.6814575 4.045532 2.6814575 6.4736023l0 36.61905c0 5.056183 -4.0988617 9.155029 -9.155045 9.155029l-191.4852 0c-5.0561886 0 -9.155039 -4.0988464 -9.155039 -9.155029z" fill-rule="evenodd"/><path fill="#000000" d="m95.56753 423.20038q-0.1875 0 -0.296875 -0.109375q-0.109375 -0.109375 -0.109375 -0.296875l0 -11.3125q0 -0.1875 0.109375 -0.296875q0.109375 -0.109375 0.296875 -0.109375l7.0625 0q0.203125 0 0.3125 0.109375q0.109375 0.109375 0.109375 0.296875l0 0.703125q0 0.1875 -0.109375 0.296875q-0.109375 0.09375 -0.3125 0.09375l-5.78125 0l0 4.046875l5.4375 0q0.1875 0 0.296875 0.109375q0.125 0.109375 0.125 0.296875l0 0.703125q0 0.171875 -0.125 0.28125q-0.109375 0.109375 -0.296875 0.109375l-5.4375 0l0 4.671875q0 0.1875 -0.109375 0.296875q-0.109375 0.109375 -0.3125 0.109375l-0.859375 0zm12.663269 0.171875q-1.109375 0 -1.875 -0.484375q-0.765625 -0.5 -1.171875 -1.375q-0.390625 -0.890625 -0.390625 -2.03125l0 -4.890625q0 -0.171875 0.109375 -0.28125q0.109375 -0.125 0.28125 -0.125l0.859375 0q0.1875 0 0.296875 0.125q0.109375 0.109375 0.109375 0.28125l0 4.796875q0 2.578125 2.25 2.578125q1.078125 0 1.71875 -0.671875q0.65625 -0.6875 0.65625 -1.90625l0 -4.796875q0 -0.171875 0.109375 -0.28125q0.125 -0.125 0.296875 -0.125l0.859375 0q0.171875 0 0.265625 0.125q0.109375 0.109375 0.109375 0.28125l0 8.203125q0 0.1875 -0.109375 0.296875q-0.09375 0.109375 -0.265625 0.109375l-0.8125 0q-0.171875 0 -0.296875 -0.109375q-0.109375 -0.109375 -0.109375 -0.296875l0 -0.75q-0.46875 0.609375 -1.140625 0.96875q-0.65625 0.359375 -1.75 0.359375zm6.900223 -0.171875q-0.171875 0 -0.296875 -0.109375q-0.109375 -0.109375 -0.109375 -0.296875l0 -0.59375q0 -0.15625 0.078125 -0.296875q0.078125 -0.140625 0.171875 -0.265625l4.78125 -6.078125l-4.46875 0q-0.171875 0 -0.296875 -0.09375q-0.109375 -0.109375 -0.109375 -0.3125l0 -0.5625q0 -0.171875 0.109375 -0.28125q0.125 -0.125 0.296875 -0.125l6.171875 0q0.171875 0 0.28125 0.125q0.109375 0.109375 0.109375 0.28125l0 0.640625q0 0.15625 -0.078125 0.28125q-0.078125 0.109375 -0.15625 0.25l-4.734375 6.0625l4.921875 0q0.1875 0 0.28125 0.109375q0.109375 0.109375 0.109375 0.296875l0 0.5625q0 0.1875 -0.109375 0.296875q-0.09375 0.109375 -0.28125 0.109375l-6.671875 0zm8.819962 0q-0.171875 0 -0.296875 -0.109375q-0.109375 -0.109375 -0.109375 -0.296875l0 -0.59375q0 -0.15625 0.078125 -0.296875q0.078125 -0.140625 0.171875 -0.265625l4.7812424 -6.078125l-4.4687424 0q-0.171875 0 -0.296875 -0.09375q-0.109375 -0.109375 -0.109375 -0.3125l0 -0.5625q0 -0.171875 0.109375 -0.28125q0.125 -0.125 0.296875 -0.125l6.1718674 0q0.171875 0 0.28125 0.125q0.109375 0.109375 0.109375 0.28125l0 0.640625q0 0.15625 -0.078125 0.28125q-0.078125 0.109375 -0.15625 0.25l-4.7343674 6.0625l4.9218674 0q0.1875 0 0.28125 0.109375q0.109375 0.109375 0.109375 0.296875l0 0.5625q0 0.1875 -0.109375 0.296875q-0.09375 0.109375 -0.28125 0.109375l-6.6718674 0z" fill-rule="nonzero"/><path fill="#efefef" d="m7.763779 302.46213l0 0c0 -5.056183 4.0988507 -9.155029 9.155039 -9.155029l191.4852 0c2.4280548 0 4.7566833 0.9645386 6.473587 2.681427c1.7169037 1.716919 2.6814423 4.045532 2.6814423 6.4736023l0 36.61905c0 5.056183 -4.0988464 9.155029 -9.155029 9.155029l-191.4852 0c-5.0561876 0 -9.155039 -4.0988464 -9.155039 -9.155029z" fill-rule="evenodd"/><path stroke="#ad182b" stroke-width="2.0" stroke-linejoin="round" stroke-linecap="butt" d="m7.763779 302.46213l0 0c0 -5.056183 4.0988507 -9.155029 9.155039 -9.155029l191.4852 0c2.4280548 0 4.7566833 0.9645386 6.473587 2.681427c1.7169037 1.716919 2.6814423 4.045532 2.6814423 6.4736023l0 36.61905c0 5.056183 -4.0988464 9.155029 -9.155029 9.155029l-191.4852 0c-5.0561876 0 -9.155039 -4.0988464 -9.155039 -9.155029z" fill-rule="evenodd"/><path fill="#000000" d="m30.05474 327.08353q-1.453125 0 -2.5 -0.515625q-1.046875 -0.515625 -1.609375 -1.578125q-0.5625 -1.078125 -0.5625 -2.75l0 -7.046875q0 -0.1875 0.09375 -0.296875q0.109375 -0.109375 0.296875 -0.109375l0.890625 0q0.1875 0 0.296875 0.109375q0.125 0.109375 0.125 0.296875l0 7.078125q0 1.6875 0.796875 2.515625q0.796875 0.8125 2.171875 0.8125q1.375 0 2.171875 -0.8125q0.8125 -0.828125 0.8125 -2.515625l0 -7.078125q0 -0.1875 0.109375 -0.296875q0.109375 -0.109375 0.296875 -0.109375l0.890625 0q0.171875 0 0.28125 0.109375q0.125 0.109375 0.125 0.296875l0 7.046875q0 1.671875 -0.5625 2.75q-0.5625 1.0625 -1.609375 1.578125q-1.03125 0.515625 -2.515625 0.515625zm7.771942 3.125q-0.171875 0 -0.296875 -0.125q-0.109375 -0.109375 -0.109375 -0.28125l0 -11.5q0 -0.171875 0.109375 -0.28125q0.125 -0.125 0.296875 -0.125l0.796875 0q0.171875 0 0.28125 0.125q0.109375 0.109375 0.109375 0.28125l0 0.765625q0.421875 -0.578125 1.109375 -0.953125q0.703125 -0.390625 1.734375 -0.390625q0.96875 0 1.65625 0.328125q0.6875 0.328125 1.125 0.90625q0.4375 0.578125 0.65625 1.3125q0.234375 0.71875 0.265625 1.546875q0.03125 0.28125 0.03125 0.59375q0 0.3125 -0.03125 0.578125q-0.03125 0.8125 -0.265625 1.5625q-0.21875 0.734375 -0.65625 1.296875q-0.4375 0.5625 -1.125 0.90625q-0.6875 0.328125 -1.65625 0.328125q-1.0 0 -1.6875 -0.375q-0.6875 -0.375 -1.125 -0.921875l0 4.015625q0 0.171875 -0.109375 0.28125q-0.09375 0.125 -0.265625 0.125l-0.84375 0zm3.671875 -4.53125q0.890625 0 1.40625 -0.390625q0.515625 -0.390625 0.734375 -1.015625q0.234375 -0.640625 0.265625 -1.359375q0.015625 -0.5 0 -1.0q-0.03125 -0.734375 -0.265625 -1.359375q-0.21875 -0.640625 -0.734375 -1.03125q-0.515625 -0.390625 -1.40625 -0.390625q-0.859375 0 -1.390625 0.40625q-0.515625 0.390625 -0.765625 1.015625q-0.25 0.609375 -0.296875 1.25q-0.015625 0.28125 -0.015625 0.65625q0 0.375 0.015625 0.671875q0.03125 0.609375 0.296875 1.203125q0.265625 0.578125 0.796875 0.96875q0.546875 0.375 1.359375 0.375zm9.530624 1.40625q-0.953125 0 -1.65625 -0.328125q-0.6875 -0.34375 -1.125 -0.921875q-0.4375 -0.578125 -0.65625 -1.328125q-0.21875 -0.75 -0.25 -1.578125q-0.03125 -0.28125 -0.03125 -0.515625q0 -0.25 0.03125 -0.53125q0.03125 -0.8125 0.25 -1.546875q0.21875 -0.75 0.65625 -1.34375q0.4375 -0.59375 1.125 -0.921875q0.703125 -0.34375 1.65625 -0.34375q1.015625 0 1.6875 0.375q0.6875 0.359375 1.109375 0.890625l0 -3.984375q0 -0.171875 0.109375 -0.28125q0.125 -0.109375 0.296875 -0.109375l0.828125 0q0.171875 0 0.28125 0.109375q0.125 0.109375 0.125 0.28125l0 11.5q0 0.1875 -0.125 0.296875q-0.109375 0.109375 -0.28125 0.109375l-0.78125 0q-0.1875 0 -0.296875 -0.109375q-0.09375 -0.109375 -0.09375 -0.296875l0 -0.71875q-0.4375 0.546875 -1.140625 0.921875q-0.6875 0.375 -1.71875 0.375zm0.359375 -1.40625q0.875 0 1.390625 -0.390625q0.515625 -0.40625 0.765625 -1.015625q0.265625 -0.609375 0.28125 -1.265625q0.03125 -0.265625 0.03125 -0.65625q0 -0.390625 -0.03125 -0.671875q-0.015625 -0.609375 -0.28125 -1.1875q-0.265625 -0.59375 -0.796875 -0.96875q-0.53125 -0.390625 -1.359375 -0.390625q-0.875 0 -1.40625 0.390625q-0.515625 0.390625 -0.75 1.03125q-0.21875 0.625 -0.25 1.359375q-0.015625 0.5 0 1.0q0.03125 0.71875 0.25 1.359375q0.234375 0.625 0.75 1.015625q0.53125 0.390625 1.40625 0.390625zm9.169556 1.40625q-0.875 0 -1.59375 -0.34375q-0.703125 -0.34375 -1.140625 -0.9375q-0.421875 -0.59375 -0.421875 -1.328125q0 -1.203125 0.96875 -1.90625q0.96875 -0.71875 2.53125 -0.9375l2.578125 -0.375l0 -0.5q0 -0.828125 -0.484375 -1.296875q-0.46875 -0.46875 -1.53125 -0.46875q-0.765625 0 -1.25 0.3125q-0.484375 0.3125 -0.6875 0.796875q-0.09375 0.265625 -0.359375 0.265625l-0.78125 0q-0.1875 0 -0.28125 -0.109375q-0.09375 -0.125 -0.09375 -0.28125q0 -0.25 0.1875 -0.625q0.203125 -0.390625 0.625 -0.75q0.421875 -0.375 1.0625 -0.625q0.65625 -0.25 1.59375 -0.25q1.03125 0 1.734375 0.28125q0.71875 0.265625 1.125 0.71875q0.40625 0.4375 0.59375 1.015625q0.1875 0.5625 0.1875 1.15625l0 5.609375q0 0.1875 -0.125 0.296875q-0.109375 0.109375 -0.28125 0.109375l-0.796875 0q-0.1875 0 -0.296875 -0.109375q-0.09375 -0.109375 -0.09375 -0.296875l0 -0.734375q-0.234375 0.3125 -0.625 0.625q-0.375 0.296875 -0.953125 0.5q-0.5625 0.1875 -1.390625 0.1875zm0.359375 -1.296875q0.71875 0 1.296875 -0.296875q0.59375 -0.3125 0.921875 -0.953125q0.34375 -0.640625 0.34375 -1.609375l0 -0.484375l-2.0 0.296875q-1.234375 0.171875 -1.859375 0.578125q-0.625 0.40625 -0.625 1.03125q0 0.484375 0.28125 0.8125q0.296875 0.3125 0.734375 0.46875q0.4375 0.15625 0.90625 0.15625zm10.119019 1.125q-0.96875 0 -1.578125 -0.375q-0.609375 -0.375 -0.890625 -1.046875q-0.265625 -0.6875 -0.265625 -1.625l0 -4.578125l-1.359375 0q-0.171875 0 -0.28125 -0.109375q-0.109375 -0.109375 -0.109375 -0.28125l0 -0.59375q0 -0.171875 0.109375 -0.28125q0.109375 -0.125 0.28125 -0.125l1.359375 0l0 -2.890625q0 -0.171875 0.109375 -0.28125q0.109375 -0.109375 0.28125 -0.109375l0.828125 0q0.171875 0 0.28125 0.109375q0.109375 0.109375 0.109375 0.28125l0 2.890625l2.15625 0q0.1875 0 0.28125 0.125q0.109375 0.109375 0.109375 0.28125l0 0.59375q0 0.171875 -0.109375 0.28125q-0.09375 0.109375 -0.28125 0.109375l-2.15625 0l0 4.453125q0 0.8125 0.28125 1.28125q0.28125 0.46875 0.984375 0.46875l1.0625 0q0.171875 0 0.28125 0.109375q0.109375 0.109375 0.109375 0.296875l0 0.609375q0 0.1875 -0.109375 0.296875q-0.109375 0.109375 -0.28125 0.109375l-1.203125 0zm6.8690033 0.171875q-1.8125 0 -2.875 -1.09375q-1.046875 -1.109375 -1.15625 -3.015625q-0.015625 -0.21875 -0.015625 -0.578125q0 -0.359375 0.015625 -0.578125q0.078125 -1.234375 0.578125 -2.15625q0.5 -0.921875 1.375 -1.421875q0.875 -0.515625 2.0625 -0.515625q1.3125 0 2.203125 0.5625q0.890625 0.546875 1.359375 1.578125q0.46875 1.015625 0.46875 2.390625l0 0.296875q0 0.1875 -0.109375 0.296875q-0.109375 0.09375 -0.28125 0.09375l-6.0 0q0 0.015625 0 0.078125q0 0.046875 0 0.078125q0.03125 0.703125 0.3125 1.328125q0.28125 0.609375 0.796875 1.0q0.53125 0.375 1.25 0.375q0.625 0 1.03125 -0.1875q0.421875 -0.1875 0.671875 -0.421875q0.265625 -0.234375 0.359375 -0.375q0.15625 -0.203125 0.234375 -0.25q0.09375 -0.046875 0.28125 -0.046875l0.84375 0q0.15625 0 0.265625 0.09375q0.125 0.09375 0.09375 0.265625q-0.015625 0.265625 -0.28125 0.640625q-0.25 0.375 -0.734375 0.734375q-0.46875 0.359375 -1.171875 0.59375q-0.703125 0.234375 -1.578125 0.234375zm-2.375 -5.328125l4.75 0l0 -0.0625q0 -0.78125 -0.296875 -1.375q-0.28125 -0.609375 -0.828125 -0.96875q-0.53125 -0.359375 -1.265625 -0.359375q-0.75 0 -1.28125 0.359375q-0.53125 0.359375 -0.8125 0.96875q-0.265625 0.59375 -0.265625 1.375l0 0.0625zm13.136551 5.15625q-0.171875 0 -0.296875 -0.109375q-0.109375 -0.109375 -0.109375 -0.296875l0 -11.5q0 -0.171875 0.109375 -0.28125q0.125 -0.109375 0.296875 -0.109375l0.859375 0q0.1875 0 0.296875 0.109375q0.109375 0.109375 0.109375 0.28125l0 4.046875q0.46875 -0.59375 1.140625 -0.953125q0.671875 -0.375 1.71875 -0.375q1.125 0 1.90625 0.5q0.796875 0.484375 1.203125 1.359375q0.40625 0.875 0.40625 2.046875l0 4.875q0 0.1875 -0.109375 0.296875q-0.109375 0.109375 -0.296875 0.109375l-0.859375 0q-0.171875 0 -0.296875 -0.109375q-0.109375 -0.109375 -0.109375 -0.296875l0 -4.796875q0 -1.203125 -0.59375 -1.890625q-0.578125 -0.6875 -1.71875 -0.6875q-1.078125 0 -1.734375 0.6875q-0.65625 0.6875 -0.65625 1.890625l0 4.796875q0 0.1875 -0.109375 0.296875q-0.109375 0.109375 -0.296875 0.109375l-0.859375 0zm12.646515 0.171875q-0.875 0 -1.59375 -0.34375q-0.703125 -0.34375 -1.140625 -0.9375q-0.421875 -0.59375 -0.421875 -1.328125q0 -1.203125 0.96875 -1.90625q0.96875 -0.71875 2.53125 -0.9375l2.578125 -0.375l0 -0.5q0 -0.828125 -0.484375 -1.296875q-0.46875 -0.46875 -1.53125 -0.46875q-0.765625 0 -1.25 0.3125q-0.484375 0.3125 -0.6875 0.796875q-0.09375 0.265625 -0.359375 0.265625l-0.78125 0q-0.1875 0 -0.28125 -0.109375q-0.09375 -0.125 -0.09375 -0.28125q0 -0.25 0.1875 -0.625q0.203125 -0.390625 0.625 -0.75q0.421875 -0.375 1.0625 -0.625q0.65625 -0.25 1.59375 -0.25q1.03125 0 1.734375 0.28125q0.71875 0.265625 1.125 0.71875q0.40625 0.4375 0.59375 1.015625q0.1875 0.5625 0.1875 1.15625l0 5.609375q0 0.1875 -0.125 0.296875q-0.109375 0.109375 -0.28125 0.109375l-0.796875 0q-0.1875 0 -0.296875 -0.109375q-0.09375 -0.109375 -0.09375 -0.296875l0 -0.734375q-0.234375 0.3125 -0.625 0.625q-0.375 0.296875 -0.953125 0.5q-0.5625 0.1875 -1.390625 0.1875zm0.359375 -1.296875q0.71875 0 1.296875 -0.296875q0.59375 -0.3125 0.921875 -0.953125q0.34375 -0.640625 0.34375 -1.609375l0 -0.484375l-2.0 0.296875q-1.234375 0.171875 -1.859375 0.578125q-0.625 0.40625 -0.625 1.03125q0 0.484375 0.28125 0.8125q0.296875 0.3125 0.734375 0.46875q0.4375 0.15625 0.90625 0.15625zm7.0963135 1.125q-0.1875 0 -0.296875 -0.109375q-0.109375 -0.109375 -0.109375 -0.296875l0 -8.1875q0 -0.171875 0.109375 -0.296875q0.109375 -0.125 0.296875 -0.125l0.796875 0q0.171875 0 0.28125 0.125q0.125 0.125 0.125 0.296875l0 0.765625q0.34375 -0.59375 0.953125 -0.890625q0.609375 -0.296875 1.46875 -0.296875l0.6875 0q0.171875 0 0.28125 0.125q0.109375 0.109375 0.109375 0.28125l0 0.703125q0 0.171875 -0.109375 0.28125q-0.109375 0.109375 -0.28125 0.109375l-1.046875 0q-0.9375 0 -1.46875 0.546875q-0.53125 0.546875 -0.53125 1.46875l0 5.09375q0 0.1875 -0.125 0.296875q-0.125 0.109375 -0.296875 0.109375l-0.84375 0zm6.584656 0q-0.1875 0 -0.296875 -0.109375q-0.109375 -0.109375 -0.109375 -0.296875l0 -8.203125q0 -0.171875 0.109375 -0.28125q0.109375 -0.125 0.296875 -0.125l0.8125 0q0.171875 0 0.28125 0.125q0.109375 0.109375 0.109375 0.28125l0 0.765625q0.453125 -0.59375 1.140625 -0.96875q0.6875 -0.375 1.75 -0.375q1.125 0 1.90625 0.5q0.796875 0.484375 1.203125 1.359375q0.421875 0.875 0.421875 2.046875l0 4.875q0 0.1875 -0.125 0.296875q-0.109375 0.109375 -0.28125 0.109375l-0.859375 0q-0.1875 0 -0.296875 -0.109375q-0.109375 -0.109375 -0.109375 -0.296875l0 -4.796875q0 -1.203125 -0.59375 -1.890625q-0.578125 -0.6875 -1.734375 -0.6875q-1.0625 0 -1.71875 0.6875q-0.640625 0.6875 -0.640625 1.890625l0 4.796875q0 0.1875 -0.125 0.296875q-0.109375 0.109375 -0.28125 0.109375l-0.859375 0zm13.703911 0.171875q-1.8125076 0 -2.8750076 -1.09375q-1.046875 -1.109375 -1.15625 -3.015625q-0.015625 -0.21875 -0.015625 -0.578125q0 -0.359375 0.015625 -0.578125q0.078125 -1.234375 0.578125 -2.15625q0.5 -0.921875 1.375 -1.421875q0.875 -0.515625 2.0625076 -0.515625q1.3125 0 2.203125 0.5625q0.890625 0.546875 1.359375 1.578125q0.46875 1.015625 0.46875 2.390625l0 0.296875q0 0.1875 -0.109375 0.296875q-0.109375 0.09375 -0.28125 0.09375l-6.0000076 0q0 0.015625 0 0.078125q0 0.046875 0 0.078125q0.03125 0.703125 0.3125 1.328125q0.28125 0.609375 0.796875 1.0q0.5312576 0.375 1.2500076 0.375q0.625 0 1.03125 -0.1875q0.421875 -0.1875 0.671875 -0.421875q0.265625 -0.234375 0.359375 -0.375q0.15625 -0.203125 0.234375 -0.25q0.09375 -0.046875 0.28125 -0.046875l0.84375 0q0.15625 0 0.265625 0.09375q0.125 0.09375 0.09375 0.265625q-0.015625 0.265625 -0.28125 0.640625q-0.25 0.375 -0.734375 0.734375q-0.46875 0.359375 -1.171875 0.59375q-0.703125 0.234375 -1.578125 0.234375zm-2.3750076 -5.328125l4.7500076 0l0 -0.0625q0 -0.78125 -0.296875 -1.375q-0.28125 -0.609375 -0.828125 -0.96875q-0.53125 -0.359375 -1.265625 -0.359375q-0.75 0 -1.2812576 0.359375q-0.53125 0.359375 -0.8125 0.96875q-0.265625 0.59375 -0.265625 1.375l0 0.0625zm11.594322 5.328125q-0.96875 0 -1.671875 -0.234375q-0.6875 -0.25 -1.125 -0.59375q-0.4375 -0.34375 -0.65625 -0.6875q-0.203125 -0.359375 -0.21875 -0.5625q-0.03125 -0.1875 0.109375 -0.28125q0.140625 -0.109375 0.28125 -0.109375l0.78125 0q0.09375 0 0.140625 0.03125q0.0625 0.015625 0.171875 0.140625q0.21875 0.234375 0.5 0.484375q0.28125 0.234375 0.6875 0.390625q0.40625 0.15625 1.015625 0.15625q0.875 0 1.453125 -0.328125q0.578125 -0.34375 0.578125 -1.0q0 -0.4375 -0.234375 -0.6875q-0.234375 -0.265625 -0.84375 -0.46875q-0.59375 -0.21875 -1.625 -0.4375q-1.046875 -0.25 -1.65625 -0.59375q-0.609375 -0.359375 -0.875 -0.84375q-0.25 -0.5 -0.25 -1.125q0 -0.640625 0.375 -1.234375q0.390625 -0.609375 1.125 -0.984375q0.734375 -0.390625 1.84375 -0.390625q0.90625 0 1.546875 0.234375q0.640625 0.21875 1.046875 0.5625q0.421875 0.328125 0.625 0.65625q0.21875 0.328125 0.234375 0.5625q0.015625 0.171875 -0.109375 0.28125q-0.125 0.109375 -0.28125 0.109375l-0.71875 0q-0.125 0 -0.203125 -0.046875q-0.078125 -0.046875 -0.140625 -0.125q-0.171875 -0.21875 -0.40625 -0.4375q-0.234375 -0.234375 -0.609375 -0.375q-0.375 -0.15625 -0.984375 -0.15625q-0.859375 0 -1.296875 0.375q-0.4375 0.359375 -0.4375 0.90625q0 0.328125 0.1875 0.59375q0.203125 0.265625 0.734375 0.46875q0.53125 0.203125 1.59375 0.453125q1.140625 0.21875 1.796875 0.609375q0.671875 0.375 0.9375 0.875q0.28125 0.5 0.28125 1.15625q0 0.734375 -0.421875 1.34375q-0.40625 0.609375 -1.25 0.96875q-0.828125 0.34375 -2.03125 0.34375zm8.837296 0q-0.96875 0 -1.671875 -0.234375q-0.6875 -0.25 -1.125 -0.59375q-0.4375 -0.34375 -0.65625 -0.6875q-0.203125 -0.359375 -0.21875 -0.5625q-0.03125 -0.1875 0.109375 -0.28125q0.140625 -0.109375 0.28125 -0.109375l0.78125 0q0.09375 0 0.140625 0.03125q0.0625 0.015625 0.171875 0.140625q0.21875 0.234375 0.5 0.484375q0.28125 0.234375 0.6875 0.390625q0.40625 0.15625 1.015625 0.15625q0.875 0 1.453125 -0.328125q0.578125 -0.34375 0.578125 -1.0q0 -0.4375 -0.234375 -0.6875q-0.234375 -0.265625 -0.84375 -0.46875q-0.59375 -0.21875 -1.625 -0.4375q-1.046875 -0.25 -1.65625 -0.59375q-0.609375 -0.359375 -0.875 -0.84375q-0.25 -0.5 -0.25 -1.125q0 -0.640625 0.375 -1.234375q0.390625 -0.609375 1.125 -0.984375q0.734375 -0.390625 1.84375 -0.390625q0.90625 0 1.546875 0.234375q0.640625 0.21875 1.046875 0.5625q0.421875 0.328125 0.625 0.65625q0.21875 0.328125 0.234375 0.5625q0.015625 0.171875 -0.109375 0.28125q-0.125 0.109375 -0.28125 0.109375l-0.71875 0q-0.125 0 -0.203125 -0.046875q-0.078125 -0.046875 -0.140625 -0.125q-0.171875 -0.21875 -0.40625 -0.4375q-0.234375 -0.234375 -0.609375 -0.375q-0.375 -0.15625 -0.984375 -0.15625q-0.859375 0 -1.296875 0.375q-0.4375 0.359375 -0.4375 0.90625q0 0.328125 0.1875 0.59375q0.203125 0.265625 0.734375 0.46875q0.53125 0.203125 1.59375 0.453125q1.140625 0.21875 1.796875 0.609375q0.671875 0.375 0.9375 0.875q0.28125 0.5 0.28125 1.15625q0 0.734375 -0.421875 1.34375q-0.40625 0.609375 -1.25 0.96875q-0.828125 0.34375 -2.03125 0.34375zm9.473282 1.28125q-0.140625 0 -0.25 -0.109375q-0.09375 -0.09375 -0.09375 -0.234375q0 -0.09375 0.046875 -0.203125l5.921875 -14.21875q0.0625 -0.09375 0.15625 -0.203125q0.09375 -0.109375 0.296875 -0.109375l0.6875 0q0.125 0 0.234375 0.109375q0.109375 0.109375 0.109375 0.25q0 0.0625 -0.046875 0.203125l-5.9375 14.203125q-0.03125 0.09375 -0.140625 0.203125q-0.09375 0.109375 -0.3125 0.109375l-0.671875 0zm17.206848 -1.28125q-1.5 0 -2.53125 -0.46875q-1.015625 -0.46875 -1.5625 -1.203125q-0.546875 -0.734375 -0.578125 -1.546875q0 -0.140625 0.109375 -0.25q0.109375 -0.109375 0.265625 -0.109375l0.890625 0q0.203125 0 0.296875 0.109375q0.109375 0.09375 0.140625 0.234375q0.109375 0.40625 0.4375 0.8125q0.328125 0.40625 0.9375 0.6875q0.625 0.265625 1.59375 0.265625q1.484375 0 2.1875 -0.53125q0.703125 -0.53125 0.703125 -1.40625q0 -0.609375 -0.375 -0.984375q-0.359375 -0.375 -1.125 -0.671875q-0.765625 -0.296875 -1.984375 -0.640625q-1.265625 -0.359375 -2.09375 -0.796875q-0.828125 -0.4375 -1.234375 -1.078125q-0.40625 -0.640625 -0.40625 -1.625q0 -0.9375 0.5 -1.671875q0.5 -0.734375 1.453125 -1.15625q0.953125 -0.4375 2.28125 -0.4375q1.078125 0 1.875 0.28125q0.8125 0.28125 1.34375 0.765625q0.546875 0.46875 0.828125 1.015625q0.28125 0.546875 0.296875 1.0625q0 0.125 -0.09375 0.25q-0.078125 0.109375 -0.28125 0.109375l-0.90625 0q-0.125 0 -0.265625 -0.0625q-0.125 -0.078125 -0.1875 -0.28125q-0.109375 -0.703125 -0.8125 -1.1875q-0.6875 -0.484375 -1.796875 -0.484375q-1.125 0 -1.828125 0.4375q-0.6875 0.421875 -0.6875 1.34375q0 0.59375 0.328125 0.984375q0.328125 0.390625 1.03125 0.6875q0.71875 0.28125 1.859375 0.609375q1.390625 0.390625 2.265625 0.8125q0.890625 0.421875 1.3125 1.0625q0.421875 0.625 0.421875 1.609375q0 1.09375 -0.578125 1.875q-0.5625 0.765625 -1.59375 1.171875q-1.03125 0.40625 -2.4375 0.40625zm11.449905 0q-1.453125 0 -2.5 -0.515625q-1.046875 -0.515625 -1.609375 -1.578125q-0.5625 -1.078125 -0.5625 -2.75l0 -7.046875q0 -0.1875 0.09375 -0.296875q0.109375 -0.109375 0.296875 -0.109375l0.890625 0q0.1875 0 0.296875 0.109375q0.125 0.109375 0.125 0.296875l0 7.078125q0 1.6875 0.796875 2.515625q0.796875 0.8125 2.171875 0.8125q1.375 0 2.171875 -0.8125q0.8125 -0.828125 0.8125 -2.515625l0 -7.078125q0 -0.1875 0.109375 -0.296875q0.109375 -0.109375 0.296875 -0.109375l0.890625 0q0.171875 0 0.28125 0.109375q0.125 0.109375 0.125 0.296875l0 7.046875q0 1.671875 -0.5625 2.75q-0.5625 1.0625 -1.609375 1.578125q-1.03125 0.515625 -2.515625 0.515625zm10.631317 -0.171875q-0.171875 0 -0.296875 -0.109375q-0.109375 -0.109375 -0.109375 -0.296875l0 -10.1875l-3.328125 0q-0.171875 0 -0.28125 -0.109375q-0.109375 -0.109375 -0.109375 -0.28125l0 -0.734375q0 -0.1875 0.109375 -0.296875q0.109375 -0.109375 0.28125 -0.109375l8.359375 0q0.1875 0 0.296875 0.109375q0.109375 0.109375 0.109375 0.296875l0 0.734375q0 0.171875 -0.109375 0.28125q-0.109375 0.109375 -0.296875 0.109375l-3.3125 0l0 10.1875q0 0.1875 -0.109375 0.296875q-0.109375 0.109375 -0.3125 0.109375l-0.890625 0z" fill-rule="nonzero"/><path fill="#000000" fill-opacity="0.0" d="m217.55907 225.29921l25.0 0l0 191.74803l-24.937012 0" fill-rule="evenodd"/><path stroke="#000000" stroke-width="1.0" stroke-linejoin="round" stroke-linecap="butt" d="m220.98615 225.29921l21.572906 0l0 191.74803l-24.937012 0" fill-rule="evenodd"/><path fill="#000000" stroke="#000000" stroke-width="1.0" stroke-linecap="butt" d="m220.98615 225.29921l1.1245728 -1.124588l-3.0897675 1.124588l3.0897675 1.124588z" fill-rule="evenodd"/><path fill="#000000" fill-opacity="0.0" d="m112.66142 62.632545l0 20.068207l0.06298828 0l0 20.057777" fill-rule="evenodd"/><path stroke="#000000" stroke-width="1.0" stroke-linejoin="round" stroke-linecap="butt" d="m112.661415 62.632545l0 20.068214l0.06299591 0l0 16.630684" fill-rule="evenodd"/><path fill="#000000" stroke="#000000" stroke-width="1.0" stroke-linecap="butt" d="m112.72441 99.33144l-1.124588 -1.1245804l1.124588 3.0897675l1.1245804 -3.0897675z" fill-rule="evenodd"/><path fill="#000000" fill-opacity="0.0" d="m112.66142 157.69817l0 20.068207l0.06298828 0l0 20.05777" fill-rule="evenodd"/><path stroke="#000000" stroke-width="1.0" stroke-linejoin="round" stroke-linecap="butt" d="m112.661415 157.69817l0 20.068192l0.06299591 0l0 16.630707" fill-rule="evenodd"/><path fill="#000000" stroke="#000000" stroke-width="1.0" stroke-linecap="butt" d="m112.72441 194.39706l-1.124588 -1.124588l1.124588 3.0897675l1.1245804 -3.0897675z" fill-rule="evenodd"/><path fill="#000000" fill-opacity="0.0" d="m112.66142 252.76378l0 20.271774l0.06298828 0l0 20.263672" fill-rule="evenodd"/><path stroke="#000000" stroke-width="1.0" stroke-linejoin="round" stroke-linecap="butt" d="m112.66143 252.76378l0 20.271774l0.06298828 0l0 16.836578" fill-rule="evenodd"/><path fill="#000000" stroke="#000000" stroke-width="1.0" stroke-linecap="butt" d="m112.72442 289.87213l-1.1245804 -1.1246033l1.1245804 3.0897827l1.124588 -3.0897827z" fill-rule="evenodd"/><path fill="#000000" fill-opacity="0.0" d="m112.661415 348.2362l0 20.679657l0.06299591 0l0 20.674683" fill-rule="evenodd"/><path stroke="#000000" stroke-width="1.0" stroke-linejoin="round" stroke-linecap="butt" d="m112.661415 348.2362l0 20.679688l0.06299591 0l0 17.24759" fill-rule="evenodd"/><path fill="#000000" stroke="#000000" stroke-width="1.0" stroke-linecap="butt" d="m112.72441 386.16345l-1.124588 -1.1245728l1.124588 3.0897827l1.1245804 -3.0897827z" fill-rule="evenodd"/></g></svg>